<svg width="194" height="33" viewBox="0 0 194 33" fill="none" xmlns="http://www.w3.org/2000/svg">
<path d="M101.372 16.2393V7.89648H94.3276V10.0469H98.981V16.2393H101.372Z" fill="#666464"/>
<path d="M73.1633 18.1958C70.8848 18.1958 69.0234 20.0875 69.0234 22.4157C69.0234 24.7439 70.8687 26.6356 73.1633 26.6356C75.4579 26.6356 77.3031 24.7439 77.3031 22.4157C77.3031 20.0875 75.4579 18.1958 73.1633 18.1958ZM73.1633 24.3397C72.1203 24.3397 71.2859 23.4828 71.2859 22.4157C71.2859 21.3486 72.1203 20.4917 73.1633 20.4917C74.2063 20.4917 75.0407 21.3486 75.0407 22.4157C75.0407 23.4828 74.2063 24.3397 73.1633 24.3397Z" fill="#666464"/>
<path d="M77.3194 7.6377H74.8965V17.1931H77.3194V13.2804H79.5498V11.0815H77.3194V7.6377Z" fill="#666464"/>
<path d="M88.1022 14.9297H85.6793V18.422H80.3521V20.6047H93.4455V18.422H88.1022V14.9297Z" fill="#666464"/>
<path d="M57.1334 23.1433H54.7105V19.651H49.3672V17.4683H62.4767V19.651H57.1334V23.1433Z" fill="#666464"/>
<path d="M83.1923 15.7057L86.8989 11.6798L90.6055 15.7057L92.3706 14.0242L88.7121 10.16H91.8731V7.89648H81.9247V10.16H85.0857L81.4272 14.0242L83.1923 15.7057Z" fill="#666464"/>
<path d="M52.2231 15.7057L55.9297 11.6798L59.6363 15.7057L61.3853 14.0242L57.7429 10.16H60.9039V7.89648H50.9554V10.16H54.1004L50.458 14.0242L52.2231 15.7057Z" fill="#666464"/>
<path d="M171.798 17.5811H174.076V7.6377H171.798V10.839H169.808V13.0217H171.798V17.5811Z" fill="#666464"/>
<path d="M159.587 7.6377H157.212V17.5973H159.587V7.6377Z" fill="#666464"/>
<path d="M177.847 7.6377H175.472V17.5973H177.847V7.6377Z" fill="#666464"/>
<path d="M72.8426 14.768L69.7778 10.0468H72.3452V7.8318H69.5853V6.24731H66.9858V7.8318H64.2259V10.0468H66.7933C65.6059 11.8738 63.7285 14.768 63.7285 14.768L65.7022 16.1261L68.3016 11.9547L70.901 16.1261L72.8747 14.768H72.8426Z" fill="#666464"/>
<path d="M140.668 10.1438H138.133V12.2295H140.668V13.911H138.133V15.9967H140.668V18.05H143.107V7.6377H140.668V10.1438Z" fill="#666464"/>
<path d="M104.019 18.1958C101.741 18.1958 99.8794 20.0875 99.8794 22.4157C99.8794 24.7439 101.741 26.6356 104.019 26.6356C106.298 26.6356 108.159 24.7439 108.159 22.4157C108.159 20.0875 106.314 18.1958 104.019 18.1958ZM104.019 24.3397C102.976 24.3397 102.142 23.4828 102.142 22.4157C102.142 21.3486 102.992 20.4917 104.019 20.4917C105.046 20.4917 105.897 21.3486 105.897 22.4157C105.897 23.4828 105.062 24.3397 104.019 24.3397Z" fill="#666464"/>
<path d="M154.003 14.6547L149.446 7.6377L144.873 14.6547L146.846 16.0128L149.446 11.8576L152.029 16.0128L154.003 14.6547Z" fill="#666464"/>
<path d="M154.099 19.1658H151.692V25.7947H159.747V23.612H154.099V19.1658Z" fill="#666464"/>
<path d="M190.924 7.6377V12.2456H188.582V14.4283H190.924V21.5909H193.363V7.6377H190.924Z" fill="#666464"/>
<path d="M172.359 19.1658H169.952V25.7947H177.991V23.612H172.359V19.1658Z" fill="#666464"/>
<path d="M183.046 14.3961H187.426V12.2781H183.046V10.0792H187.603V7.89648H180.655V18.9232H187.779V16.7082H183.046V14.3961Z" fill="#666464"/>
<path d="M165.748 7.6377L161.304 14.6385L163.277 15.9967L165.748 11.8576L168.203 15.9967L170.177 14.6385L165.748 7.6377Z" fill="#666464"/>
<path d="M118.252 10.1115V7.89648H110.855V10.1115H113.086L110.117 14.8165L112.091 16.1746L114.546 12.0355L117.017 16.1746L118.991 14.8165L116.006 10.1115H118.252Z" fill="#666464"/>
<path d="M120.547 10.839H118.317V13.0217H120.547V21.5909H122.826V7.6377H120.547V10.839Z" fill="#666464"/>
<path d="M105.736 9.28685H103.185V11.3725H105.736V13.054H103.185V15.1397H105.736V17.1931H108.159V7.6377H105.736V9.28685Z" fill="#666464"/>
<path d="M126.596 7.6377H124.221V21.5909H126.596V7.6377Z" fill="#666464"/>
<path d="M135.036 22.0114H140.492V26.1019H142.915V19.8125H135.036V22.0114Z" fill="#666464"/>
<path d="M137.01 14.1375C137.01 12.068 135.357 10.3865 133.336 10.3865C131.314 10.3865 129.661 12.068 129.661 14.1375C129.661 16.207 131.298 17.8885 133.336 17.8885C135.373 17.8885 137.01 16.207 137.01 14.1375ZM133.336 15.6088C132.549 15.6088 131.908 14.9459 131.908 14.1375C131.908 13.3291 132.549 12.6662 133.336 12.6662C134.122 12.6662 134.764 13.3129 134.764 14.1375C134.764 14.9621 134.122 15.6088 133.336 15.6088Z" fill="#666464"/>
<path d="M137.379 7.81568H134.555V6.2312H131.956V7.81568H129.1V9.96606H137.379V7.81568Z" fill="#666464"/>
<path d="M34.1076 16.1261L32.1821 14.6387L35.632 10.5643H33.0165V8.12287H40.3335V10.5643H37.718L40.3335 13.6847V11.3889H42.6762V7.03961H44.8745V22.1892H42.6762V13.8303H40.4618L41.1839 14.671L39.2584 16.1423L36.691 12.9087L34.1076 16.1423V16.1261ZM45.9335 22.173V7.02344H48.1799V22.173H45.9335Z" fill="#666464"/>
<path d="M3.37939 26.6355L12.0602 31.7446C12.7502 32.165 13.6648 32.3914 14.5795 32.3914C15.4138 32.3914 16.2322 32.2135 16.858 31.8578L17.5159 31.4698C17.8207 31.2434 18.0614 31.0171 18.27 30.7907C18.607 30.435 18.9279 29.853 18.9279 29.853L20.5004 27.0882H5.46537C5.46537 27.0882 4.80748 27.0882 4.34215 26.975C4.05332 26.9104 3.7324 26.7972 3.37939 26.6517" fill="#0050A2"/>
<path d="M26.4376 16.5627L20.4845 27.0721L18.912 29.8368C18.912 29.8368 18.5911 30.4189 18.2542 30.7746C18.0456 31.001 17.7888 31.2273 17.5 31.4537L26.1808 26.3445C27.5287 25.6008 28.6519 23.7091 28.668 22.1569V21.397C28.6198 21.009 28.5556 20.6856 28.4754 20.3946C28.331 19.9257 28.0101 19.3437 28.0101 19.3437L26.4376 16.5789" fill="#E24558"/>
<path d="M23.6294 6.05347H20.5005L28.01 19.3276C28.01 19.3276 28.3309 19.9096 28.4753 20.3785C28.5555 20.6695 28.6358 21.0091 28.6679 21.3809V11.1626C28.7 9.61047 27.673 7.67029 26.3573 6.87805L25.6994 6.49001C25.3624 6.34449 25.0415 6.23132 24.7366 6.16664C24.2713 6.05347 23.6134 6.05347 23.6134 6.05347" fill="#0050A2"/>
<path d="M0.427002 11.7285V21.9468C0.39491 23.499 1.42185 25.4392 2.73762 26.2476L3.3955 26.6356C3.73246 26.7811 4.05338 26.8943 4.35825 26.959C4.83963 27.0721 5.48147 27.0721 5.48147 27.0721H8.61043L1.08488 13.798C1.08488 13.798 0.763966 13.216 0.619553 12.7471C0.539323 12.4561 0.459093 12.1166 0.427002 11.7447" fill="#E24558"/>
<path d="M14.5157 0.750244C13.6813 0.750244 12.8629 0.928094 12.2372 1.28379L11.5793 1.67183C11.2744 1.89819 11.0337 2.12454 10.8251 2.3509C10.4881 2.7066 10.1672 3.28865 10.1672 3.28865L8.59473 6.05341H23.6137C23.6137 6.05341 24.2716 6.05341 24.7369 6.16659C25.0258 6.23126 25.3467 6.34444 25.6997 6.48996L17.0349 1.39697C16.361 0.960431 15.4303 0.750244 14.5317 0.750244" fill="#E24558"/>
<path d="M11.5792 1.67193L2.91436 6.78108C1.56651 7.52482 0.443292 9.40033 0.427246 10.9686V11.7286C0.475384 12.1004 0.539568 12.44 0.619797 12.731C0.764211 13.1999 1.08513 13.7819 1.08513 13.7819L2.65763 16.5467L8.61067 6.03735L10.1832 3.27258C10.1832 3.27258 10.5041 2.69053 10.8411 2.33483C11.0496 2.10847 11.3064 1.88212 11.5952 1.65576" fill="#0050A2"/>
<path d="M2.65759 16.5627C2.65759 16.5627 0.908583 9.44874 5.3533 5.29351L7.56764 3.98389C7.56764 3.98389 1.6146 7.75108 2.65759 16.5627Z" fill="white"/>
<path d="M8.59442 27.0558C8.59442 27.0558 1.69467 25.0509 0.378906 19.0525V16.4495C0.378906 16.4495 0.603549 23.5796 8.59442 27.072V27.0558Z" fill="white"/>
<path d="M20.5006 27.0559C20.5006 27.0559 15.3498 32.1489 9.58934 30.3057L7.375 29.0123C7.375 29.0123 13.5366 32.3752 20.5006 27.0559Z" fill="white"/>
<path d="M26.4374 16.5627C26.4374 16.5627 28.1864 23.6768 23.7417 27.832L21.5273 29.1416C21.5273 29.1416 27.4643 25.3744 26.4374 16.5789V16.5627Z" fill="white"/>
<path d="M20.5005 5.75982C20.5005 5.75982 27.4163 7.76468 28.716 13.7631V16.3662C28.716 16.3662 28.4914 9.23598 20.5005 5.74365V5.75982Z" fill="white"/>
<path d="M8.59424 6.05342C8.59424 6.05342 13.761 0.960432 19.5055 2.80361L21.7198 4.09706C21.7198 4.09706 15.5582 0.750245 8.59424 6.05342Z" fill="white"/>
</svg>
