<svg width="194" height="40" viewBox="0 0 194 40" fill="none" xmlns="http://www.w3.org/2000/svg">
<path d="M101.993 19.4891V11.1463H94.9489V13.2967H99.6022V19.4891H101.993Z" fill="#666464"/>
<path d="M73.7843 21.4456C71.5058 21.4456 69.6445 23.3373 69.6445 25.6655C69.6445 27.9937 71.4898 29.8854 73.7843 29.8854C76.0789 29.8854 77.9242 27.9937 77.9242 25.6655C77.9242 23.3373 76.0789 21.4456 73.7843 21.4456ZM73.7843 27.5895C72.7413 27.5895 71.9069 26.7326 71.9069 25.6655C71.9069 24.5984 72.7413 23.7415 73.7843 23.7415C74.8273 23.7415 75.6617 24.5984 75.6617 25.6655C75.6617 26.7326 74.8273 27.5895 73.7843 27.5895Z" fill="#666464"/>
<path d="M77.9404 10.8876H75.5174V20.443H77.9404V16.5303H80.1707V14.3314H77.9404V10.8876Z" fill="#666464"/>
<path d="M88.7232 18.1794H86.3003V21.6717H80.9731V23.8544H94.0665V21.6717H88.7232V18.1794Z" fill="#666464"/>
<path d="M57.7546 26.393H55.3316V22.9007H49.9883V20.718H63.0979V22.9007H57.7546V26.393Z" fill="#666464"/>
<path d="M83.8132 18.9556L87.5198 14.9297L91.2264 18.9556L92.9914 17.2741L89.333 13.4099H92.494V11.1463H82.5455V13.4099H85.7066L82.0481 17.2741L83.8132 18.9556Z" fill="#666464"/>
<path d="M52.8442 18.9556L56.5508 14.9297L60.2575 18.9556L62.0065 17.2741L58.364 13.4099H61.5251V11.1463H51.5766V13.4099H54.7216L51.0792 17.2741L52.8442 18.9556Z" fill="#666464"/>
<path d="M172.419 20.831H174.697V10.8876H172.419V14.0889H170.429V16.2716H172.419V20.831Z" fill="#666464"/>
<path d="M160.208 10.8876H157.833V20.8472H160.208V10.8876Z" fill="#666464"/>
<path d="M178.468 10.8876H176.093V20.8472H178.468V10.8876Z" fill="#666464"/>
<path d="M73.4635 18.0177L70.3988 13.2966H72.9661V11.0816H70.2062V9.49708H67.6068V11.0816H64.8469V13.2966H67.4142C66.2268 15.1236 64.3495 18.0177 64.3495 18.0177L66.3231 19.3759L68.9225 15.2045L71.522 19.3759L73.4956 18.0177H73.4635Z" fill="#666464"/>
<path d="M141.289 13.3936H138.754V15.4793H141.289V17.1608H138.754V19.2465H141.289V21.2999H143.728V10.8876H141.289V13.3936Z" fill="#666464"/>
<path d="M104.64 21.4456C102.362 21.4456 100.501 23.3373 100.501 25.6655C100.501 27.9937 102.362 29.8854 104.64 29.8854C106.919 29.8854 108.78 27.9937 108.78 25.6655C108.78 23.3373 106.935 21.4456 104.64 21.4456ZM104.64 27.5895C103.597 27.5895 102.763 26.7326 102.763 25.6655C102.763 24.5984 103.614 23.7415 104.64 23.7415C105.667 23.7415 106.518 24.5984 106.518 25.6655C106.518 26.7326 105.683 27.5895 104.64 27.5895Z" fill="#666464"/>
<path d="M154.624 17.9046L150.067 10.8876L145.494 17.9046L147.467 19.2627L150.067 15.1075L152.65 19.2627L154.624 17.9046Z" fill="#666464"/>
<path d="M154.72 22.4156H152.313V29.0446H160.368V26.8619H154.72V22.4156Z" fill="#666464"/>
<path d="M191.545 10.8876V15.4955H189.203V17.6782H191.545V24.8407H193.984V10.8876H191.545Z" fill="#666464"/>
<path d="M172.98 22.4156H170.573V29.0446H178.612V26.8619H172.98V22.4156Z" fill="#666464"/>
<path d="M183.667 17.6459H188.047V15.5279H183.667V13.329H188.224V11.1463H181.276V22.173H188.4V19.958H183.667V17.6459Z" fill="#666464"/>
<path d="M166.369 10.8876L161.925 17.8884L163.898 19.2465L166.369 15.1075L168.824 19.2465L170.798 17.8884L166.369 10.8876Z" fill="#666464"/>
<path d="M118.874 13.3614V11.1463H111.476V13.3614H113.707L110.738 18.0663L112.712 19.4244L115.167 15.2854L117.638 19.4244L119.612 18.0663L116.627 13.3614H118.874Z" fill="#666464"/>
<path d="M121.168 14.0889H118.938V16.2716H121.168V24.8407H123.447V10.8876H121.168V14.0889Z" fill="#666464"/>
<path d="M106.357 12.5367H103.806V14.6224H106.357V16.3039H103.806V18.3896H106.357V20.443H108.78V10.8876H106.357V12.5367Z" fill="#666464"/>
<path d="M127.217 10.8876H124.842V24.8407H127.217V10.8876Z" fill="#666464"/>
<path d="M135.657 25.2612H141.113V29.3517H143.536V23.0623H135.657V25.2612Z" fill="#666464"/>
<path d="M137.631 17.3872C137.631 15.3177 135.978 13.6362 133.957 13.6362C131.935 13.6362 130.282 15.3177 130.282 17.3872C130.282 19.4568 131.919 21.1383 133.957 21.1383C135.994 21.1383 137.631 19.4568 137.631 17.3872ZM133.957 18.8585C133.17 18.8585 132.529 18.1956 132.529 17.3872C132.529 16.5788 133.17 15.9159 133.957 15.9159C134.743 15.9159 135.385 16.5627 135.385 17.3872C135.385 18.2118 134.743 18.8585 133.957 18.8585Z" fill="#666464"/>
<path d="M138 11.0654H135.176V9.48094H132.577V11.0654H129.72V13.2158H138V11.0654Z" fill="#666464"/>
<path d="M34.7286 19.3758L32.8031 17.8884L36.2529 13.814H33.6375V11.3726H40.9544V13.814H38.3389L40.9544 16.9345V14.6386H43.2971V10.2893H45.4954V25.4389H43.2971V17.08H41.0828L41.8048 17.9207L39.8793 19.392L37.312 16.1584L34.7286 19.392V19.3758ZM46.5544 25.4228V10.2732H48.8009V25.4228H46.5544Z" fill="#666464"/>
<path d="M4.00053 29.8853L12.6814 34.9944C13.3714 35.4148 14.286 35.6412 15.2006 35.6412C16.035 35.6412 16.8533 35.4633 17.4791 35.1076L18.137 34.7196C18.4419 34.4932 18.6826 34.2669 18.8912 34.0405C19.2281 33.6848 19.549 33.1028 19.549 33.1028L21.1215 30.338H6.0865C6.0865 30.338 5.42862 30.338 4.96329 30.2248C4.67446 30.1602 4.35354 30.047 4.00053 29.9015" fill="#0050A2"/>
<path d="M27.0588 19.8125L21.1057 30.3218L19.5332 33.0866C19.5332 33.0866 19.2123 33.6687 18.8754 34.0244C18.6668 34.2507 18.41 34.4771 18.1212 34.7034L26.802 29.5943C28.1499 28.8505 29.2731 26.9588 29.2892 25.4067V24.6468C29.241 24.2588 29.1768 23.9354 29.0966 23.6444C28.9522 23.1755 28.6313 22.5934 28.6313 22.5934L27.0588 19.8287" fill="#E24558"/>
<path d="M24.2507 9.30312H21.1217L28.6312 22.5772C28.6312 22.5772 28.9521 23.1593 29.0966 23.6282C29.1768 23.9192 29.257 24.2587 29.2891 24.6306V14.4123C29.3212 12.8601 28.2943 10.9199 26.9785 10.1277L26.3206 9.73966C25.9837 9.59415 25.6627 9.48097 25.3579 9.4163C24.8925 9.30312 24.2346 9.30312 24.2346 9.30312" fill="#0050A2"/>
<path d="M1.04808 14.9783V25.1966C1.01599 26.7487 2.04293 28.6889 3.35869 29.4973L4.01658 29.8853C4.35354 30.0308 4.67446 30.144 4.97933 30.2087C5.46071 30.3219 6.10255 30.3219 6.10255 30.3219H9.2315L1.70596 17.0478C1.70596 17.0478 1.38504 16.4657 1.24063 15.9968C1.1604 15.7058 1.08017 15.3663 1.04808 14.9944" fill="#E24558"/>
<path d="M15.1366 4C14.3023 4 13.4839 4.17785 12.8581 4.53355L12.2002 4.92159C11.8954 5.14794 11.6547 5.3743 11.4461 5.60065C11.1091 5.95635 10.7882 6.53841 10.7882 6.53841L9.2157 9.30317H24.2347C24.2347 9.30317 24.8926 9.30317 25.3579 9.41635C25.6467 9.48102 25.9676 9.5942 26.3207 9.73971L17.6559 4.64673C16.9819 4.21019 16.0513 4 15.1527 4" fill="#E24558"/>
<path d="M12.2002 4.92162L3.5354 10.0308C2.18754 10.7745 1.06432 12.65 1.04828 14.2183V14.9782C1.09642 15.3501 1.1606 15.6896 1.24083 15.9807C1.38524 16.4496 1.70616 17.0316 1.70616 17.0316L3.27866 19.7964L9.2317 9.28704L10.8042 6.52228C10.8042 6.52228 11.1251 5.94022 11.4621 5.58452C11.6707 5.35817 11.9274 5.13181 12.2162 4.90546" fill="#0050A2"/>
<path d="M3.27852 19.8125C3.27852 19.8125 1.52951 12.6985 5.97423 8.54325L8.18857 7.23362C8.18857 7.23362 2.23553 11.0008 3.27852 19.8125Z" fill="white"/>
<path d="M9.21551 30.3057C9.21551 30.3057 2.31577 28.3008 1 22.3024V19.6993C1 19.6993 1.22464 26.8295 9.21551 30.3218V30.3057Z" fill="white"/>
<path d="M21.1216 30.3056C21.1216 30.3056 15.9709 35.3986 10.2104 33.5555L7.99603 32.262C7.99603 32.262 14.1577 35.625 21.1216 30.3056Z" fill="white"/>
<path d="M27.0586 19.8125C27.0586 19.8125 28.8076 26.9265 24.3629 31.0817L22.1485 32.3913C22.1485 32.3913 28.0855 28.6242 27.0586 19.8287V19.8125Z" fill="white"/>
<path d="M21.1216 9.00967C21.1216 9.00967 28.0374 11.0145 29.3371 17.0129V19.616C29.3371 19.616 29.1125 12.4858 21.1216 8.9935V9.00967Z" fill="white"/>
<path d="M9.21552 9.30315C9.21552 9.30315 14.3823 4.21017 20.1267 6.05334L22.3411 7.3468C22.3411 7.3468 16.1794 3.99998 9.21552 9.30315Z" fill="white"/>
</svg>
