<svg width="230" height="33" viewBox="0 0 230 33" fill="none" xmlns="http://www.w3.org/2000/svg">
<g clip-path="url(#clip0_110_2470)">
<path d="M46.5448 9.21153V7.8381L51.5699 7.83011V12.174C50.7985 12.7809 50.0028 13.2387 49.1828 13.5474C48.3628 13.8508 47.5212 14.0026 46.6581 14.0026C45.4928 14.0026 44.4328 13.7577 43.4779 13.2679C42.5285 12.7729 41.811 12.0595 41.3254 11.1279C40.8399 10.1964 40.5972 9.15563 40.5972 8.00579C40.5972 6.86658 40.8372 5.80457 41.3174 4.81975C41.8029 3.8296 42.4988 3.09498 43.4051 2.61587C44.3114 2.13677 45.3553 1.89722 46.5367 1.89722C47.3945 1.89722 48.1686 2.03562 48.8591 2.31244C49.555 2.58393 50.0999 2.96455 50.4937 3.4543C50.8875 3.94405 51.1869 4.58286 51.3919 5.37072L49.9758 5.754C49.7978 5.15778 49.5766 4.68933 49.3123 4.34863C49.0479 4.00793 48.6703 3.73644 48.1794 3.53415C47.6885 3.32654 47.1436 3.22274 46.5448 3.22274C45.8273 3.22274 45.2069 3.33187 44.6836 3.55012C44.1603 3.76306 43.7369 4.0452 43.4132 4.39654C43.0949 4.74788 42.8467 5.13383 42.6687 5.55437C42.3666 6.27835 42.2156 7.06355 42.2156 7.90997C42.2156 8.95335 42.3963 9.82638 42.7577 10.5291C43.1246 11.2317 43.6559 11.7534 44.3519 12.0941C45.0478 12.4348 45.7868 12.6052 46.5691 12.6052C47.2488 12.6052 47.9123 12.4774 48.5597 12.2219C49.2071 11.9611 49.698 11.6842 50.0324 11.3915V9.21153H46.5448Z" fill="#646C73"/>
<path d="M62.6884 9.56287C62.6884 7.99248 63.1308 6.82932 64.0155 6.0734C64.7546 5.44524 65.6555 5.13117 66.7182 5.13117C67.8997 5.13117 68.8653 5.51445 69.6152 6.28101C70.365 7.04226 70.74 8.09628 70.74 9.4431C70.74 10.5344 70.5727 11.3941 70.2383 12.0223C69.9092 12.6451 69.4264 13.1295 68.7898 13.4756C68.1586 13.8216 67.4681 13.9946 66.7182 13.9946C65.5152 13.9946 64.5415 13.614 63.797 12.8527C63.058 12.0915 62.6884 10.9949 62.6884 9.56287ZM64.1854 9.56287C64.1854 10.6488 64.4255 11.4633 64.9056 12.0063C65.3858 12.544 65.99 12.8128 66.7182 12.8128C67.4411 12.8128 68.0426 12.5413 68.5228 11.9983C69.0029 11.4553 69.243 10.6275 69.243 9.51496C69.243 8.46626 69.0002 7.67308 68.5147 7.13541C68.0345 6.59243 67.4357 6.32094 66.7182 6.32094C65.99 6.32094 65.3858 6.58977 64.9056 7.12743C64.4255 7.66509 64.1854 8.4769 64.1854 9.56287Z" fill="#646C73"/>
<path d="M53.4635 9.56287C53.4635 7.99248 53.9059 6.82932 54.7906 6.0734C55.5297 5.44524 56.4306 5.13117 57.4934 5.13117C58.6748 5.13117 59.6404 5.51445 60.3903 6.28101C61.1402 7.04226 61.5151 8.09628 61.5151 9.4431C61.5151 10.5344 61.3479 11.3941 61.0134 12.0223C60.6843 12.6451 60.2015 13.1295 59.5649 13.4756C58.9337 13.8216 58.2432 13.9946 57.4934 13.9946C56.2903 13.9946 55.3166 13.614 54.5721 12.8527C53.8331 12.0915 53.4635 10.9949 53.4635 9.56287ZM54.9606 9.56287C54.9606 10.6488 55.2006 11.4633 55.6808 12.0063C56.1609 12.544 56.7651 12.8128 57.4934 12.8128C58.2162 12.8128 58.8178 12.5413 59.2979 11.9983C59.778 11.4553 60.0181 10.6275 60.0181 9.51496C60.0181 8.46626 59.7753 7.67308 59.2898 7.13541C58.8097 6.59243 58.2109 6.32094 57.4934 6.32094C56.7651 6.32094 56.1609 6.58977 55.6808 7.12743C55.2006 7.66509 54.9606 8.4769 54.9606 9.56287Z" fill="#646C73"/>
<path d="M72.5179 14.5056L73.934 14.7132C73.9933 15.1444 74.1579 15.4585 74.4276 15.6555C74.7891 15.9216 75.2827 16.0547 75.9085 16.0547C76.5828 16.0547 77.1034 15.9216 77.4702 15.6555C77.837 15.3893 78.0852 15.0167 78.2147 14.5376C78.2902 14.2448 78.3253 13.6299 78.3199 12.693C77.6833 13.433 76.8903 13.8029 75.9408 13.8029C74.7594 13.8029 73.845 13.3824 73.1976 12.5413C72.5503 11.7002 72.2266 10.6914 72.2266 9.51496C72.2266 8.70581 72.3749 7.96054 72.6717 7.27915C72.9684 6.59243 73.3972 6.06276 73.9583 5.69012C74.5247 5.31748 75.1883 5.13117 75.9489 5.13117C76.9631 5.13117 77.7993 5.53574 78.4574 6.34489V5.32281H79.8007V12.6531C79.8007 13.9733 79.6631 14.9075 79.388 15.4558C79.1183 16.0095 78.6867 16.446 78.0933 16.7654C77.5053 17.0848 76.7797 17.2445 75.9165 17.2445C74.8916 17.2445 74.0635 17.0156 73.4323 16.5578C72.8011 16.1053 72.4963 15.4212 72.5179 14.5056ZM73.7236 9.41116C73.7236 10.5237 73.9475 11.3356 74.3952 11.8466C74.843 12.3576 75.4041 12.6132 76.0784 12.6132C76.7473 12.6132 77.3084 12.3603 77.7615 11.8546C78.2147 11.3435 78.4413 10.545 78.4413 9.45907C78.4413 8.42101 78.2066 7.63847 77.7372 7.11146C77.2733 6.58445 76.7123 6.32094 76.0541 6.32094C75.4067 6.32094 74.8565 6.58178 74.4033 7.10348C73.9502 7.61984 73.7236 8.38907 73.7236 9.41116Z" fill="#646C73"/>
<path d="M82.1208 13.8029V2.09684H83.5774V13.8029H82.1208Z" fill="#646C73"/>
<path d="M91.2538 11.072L92.7589 11.2557C92.5215 12.1234 92.0818 12.7968 91.4399 13.2759C90.7979 13.755 89.9779 13.9946 88.9799 13.9946C87.7229 13.9946 86.7249 13.614 85.9859 12.8527C85.2522 12.0862 84.8854 11.0135 84.8854 9.63474C84.8854 8.20807 85.2576 7.10081 86.002 6.31295C86.7465 5.5251 87.7122 5.13117 88.899 5.13117C90.0481 5.13117 90.9867 5.51711 91.715 6.289C92.4433 7.06089 92.8074 8.14686 92.8074 9.5469C92.8074 9.63208 92.8047 9.75984 92.7993 9.93018H86.3905C86.4444 10.8618 86.7115 11.5751 87.1916 12.0702C87.6717 12.5653 88.2705 12.8128 88.988 12.8128C89.5221 12.8128 89.9779 12.6744 90.3556 12.3976C90.7332 12.1208 91.0326 11.6789 91.2538 11.072ZM86.4714 8.7484H91.2699C91.2052 8.03507 91.0218 7.50007 90.7197 7.1434C90.2557 6.58977 89.6542 6.31295 88.9152 6.31295C88.2462 6.31295 87.6825 6.53387 87.2239 6.97571C86.7708 7.41755 86.5199 8.00845 86.4714 8.7484Z" fill="#646C73"/>
<path d="M98.1856 13.8029V2.09684H102.272C103.195 2.09684 103.899 2.15274 104.384 2.26453C105.064 2.41891 105.644 2.69838 106.124 3.10296C106.75 3.62465 107.216 4.29273 107.524 5.10721C107.837 5.91636 107.993 6.84263 107.993 7.88601C107.993 8.77501 107.888 9.56287 107.678 10.2496C107.467 10.9363 107.197 11.5059 106.868 11.9584C106.539 12.4056 106.178 12.7596 105.784 13.0204C105.396 13.2759 104.924 13.4702 104.368 13.6033C103.818 13.7364 103.184 13.8029 102.466 13.8029H98.1856ZM99.7555 12.4215H102.288C103.071 12.4215 103.683 12.3497 104.125 12.2059C104.573 12.0622 104.929 11.8599 105.193 11.5991C105.566 11.2317 105.854 10.7393 106.059 10.1218C106.27 9.49899 106.375 8.74573 106.375 7.86206C106.375 6.63768 106.17 5.6981 105.76 5.04333C105.355 4.38323 104.862 3.94139 104.279 3.71781C103.858 3.55811 103.181 3.47826 102.248 3.47826H99.7555V12.4215Z" fill="#646C73"/>
<path d="M115.116 11.072L116.621 11.2557C116.384 12.1234 115.944 12.7968 115.302 13.2759C114.66 13.755 113.84 13.9946 112.842 13.9946C111.585 13.9946 110.587 13.614 109.848 12.8527C109.114 12.0862 108.747 11.0135 108.747 9.63474C108.747 8.20807 109.12 7.10081 109.864 6.31295C110.609 5.5251 111.574 5.13117 112.761 5.13117C113.91 5.13117 114.849 5.51711 115.577 6.289C116.305 7.06089 116.669 8.14686 116.669 9.5469C116.669 9.63208 116.667 9.75984 116.661 9.93018H110.252C110.306 10.8618 110.573 11.5751 111.054 12.0702C111.534 12.5653 112.133 12.8128 112.85 12.8128C113.384 12.8128 113.84 12.6744 114.218 12.3976C114.595 12.1208 114.895 11.6789 115.116 11.072ZM110.333 8.7484H115.132C115.067 8.03507 114.884 7.50007 114.582 7.1434C114.118 6.58977 113.516 6.31295 112.777 6.31295C112.108 6.31295 111.545 6.53387 111.086 6.97571C110.633 7.41755 110.382 8.00845 110.333 8.7484Z" fill="#646C73"/>
<path d="M120.405 13.8029L117.135 5.32281H118.673L120.518 10.4013C120.717 10.9496 120.901 11.5192 121.068 12.1101C121.198 11.6629 121.378 11.1253 121.61 10.4971L123.52 5.32281H125.017L121.764 13.8029H120.405Z" fill="#646C73"/>
<path d="M132.144 11.072L133.649 11.2557C133.412 12.1234 132.972 12.7968 132.33 13.2759C131.688 13.755 130.868 13.9946 129.87 13.9946C128.613 13.9946 127.615 13.614 126.876 12.8527C126.142 12.0862 125.775 11.0135 125.775 9.63474C125.775 8.20807 126.148 7.10081 126.892 6.31295C127.637 5.5251 128.602 5.13117 129.789 5.13117C130.938 5.13117 131.877 5.51711 132.605 6.289C133.333 7.06089 133.697 8.14686 133.697 9.5469C133.697 9.63208 133.695 9.75984 133.689 9.93018H127.281C127.334 10.8618 127.602 11.5751 128.082 12.0702C128.562 12.5653 129.161 12.8128 129.878 12.8128C130.412 12.8128 130.868 12.6744 131.246 12.3976C131.623 12.1208 131.923 11.6789 132.144 11.072ZM127.361 8.7484H132.16C132.095 8.03507 131.912 7.50007 131.61 7.1434C131.146 6.58977 130.544 6.31295 129.805 6.31295C129.136 6.31295 128.573 6.53387 128.114 6.97571C127.661 7.41755 127.41 8.00845 127.361 8.7484Z" fill="#646C73"/>
<path d="M138.35 9.56287C138.35 7.99248 138.792 6.82932 139.677 6.0734C140.416 5.44524 141.317 5.13117 142.38 5.13117C143.561 5.13117 144.527 5.51445 145.277 6.28101C146.026 7.04226 146.401 8.09628 146.401 9.4431C146.401 10.5344 146.234 11.3941 145.9 12.0223C145.571 12.6451 145.088 13.1295 144.451 13.4756C143.82 13.8216 143.13 13.9946 142.38 13.9946C141.177 13.9946 140.203 13.614 139.458 12.8527C138.719 12.0915 138.35 10.9949 138.35 9.56287ZM139.847 9.56287C139.847 10.6488 140.087 11.4633 140.567 12.0063C141.047 12.544 141.651 12.8128 142.38 12.8128C143.103 12.8128 143.704 12.5413 144.184 11.9983C144.664 11.4553 144.904 10.6275 144.904 9.51496C144.904 8.46626 144.662 7.67308 144.176 7.13541C143.696 6.59243 143.097 6.32094 142.38 6.32094C141.651 6.32094 141.047 6.58977 140.567 7.12743C140.087 7.66509 139.847 8.4769 139.847 9.56287Z" fill="#646C73"/>
<path d="M135.17 13.8029V2.09684H136.626V13.8029H135.17Z" fill="#646C73"/>
<path d="M147.731 17.0529V5.32281H149.058V6.42474C149.371 5.99355 149.724 5.67149 150.118 5.45855C150.512 5.24029 150.989 5.13117 151.55 5.13117C152.284 5.13117 152.932 5.31748 153.493 5.69012C154.054 6.06276 154.477 6.58977 154.763 7.27116C155.049 7.94723 155.192 8.68984 155.192 9.49899C155.192 10.3667 155.033 11.1492 154.714 11.8466C154.402 12.5386 153.943 13.071 153.339 13.4436C152.74 13.8109 152.109 13.9946 151.445 13.9946C150.96 13.9946 150.523 13.8934 150.134 13.6911C149.751 13.4889 149.436 13.2333 149.188 12.9246V17.0529H147.731ZM149.05 9.61078C149.05 10.7021 149.274 11.5086 149.722 12.0303C150.169 12.5519 150.712 12.8128 151.348 12.8128C151.996 12.8128 152.548 12.544 153.007 12.0063C153.471 11.4633 153.703 10.6249 153.703 9.49101C153.703 8.41036 153.476 7.60121 153.023 7.06355C152.575 6.52589 152.039 6.25706 151.413 6.25706C150.793 6.25706 150.242 6.54452 149.762 7.11944C149.287 7.68905 149.05 8.51949 149.05 9.61078Z" fill="#646C73"/>
<path d="M166.821 13.8029V5.32281H168.131V6.6084C168.466 6.00686 168.773 5.61027 169.054 5.41863C169.34 5.22699 169.653 5.13117 169.993 5.13117C170.484 5.13117 170.983 5.28554 171.49 5.5943L170.988 6.9278C170.632 6.72019 170.276 6.61639 169.92 6.61639C169.601 6.61639 169.316 6.71221 169.062 6.90385C168.808 7.09017 168.628 7.35101 168.52 7.68638C168.358 8.19743 168.277 8.75638 168.277 9.36325V13.8029H166.821Z" fill="#646C73"/>
<path d="M163.495 11.072L165 11.2557C164.762 12.1234 164.323 12.7968 163.681 13.2759C163.039 13.755 162.219 13.9946 161.221 13.9946C159.964 13.9946 158.966 13.614 158.227 12.8527C157.493 12.0862 157.126 11.0135 157.126 9.63474C157.126 8.20807 157.499 7.10081 158.243 6.31295C158.987 5.5251 159.953 5.13117 161.14 5.13117C162.289 5.13117 163.228 5.51711 163.956 6.289C164.684 7.06089 165.048 8.14686 165.048 9.5469C165.048 9.63208 165.046 9.75984 165.04 9.93018H158.631C158.685 10.8618 158.952 11.5751 159.433 12.0702C159.913 12.5653 160.511 12.8128 161.229 12.8128C161.763 12.8128 162.219 12.6744 162.597 12.3976C162.974 12.1208 163.274 11.6789 163.495 11.072ZM158.712 8.7484H163.511C163.446 8.03507 163.263 7.50007 162.961 7.1434C162.497 6.58977 161.895 6.31295 161.156 6.31295C160.487 6.31295 159.923 6.53387 159.465 6.97571C159.012 7.41755 158.761 8.00845 158.712 8.7484Z" fill="#646C73"/>
<path d="M181.559 9.21153V7.8381L186.584 7.83011V12.174C185.813 12.7809 185.017 13.2387 184.197 13.5474C183.377 13.8508 182.535 14.0026 181.672 14.0026C180.507 14.0026 179.447 13.7577 178.492 13.2679C177.542 12.7729 176.825 12.0595 176.339 11.1279C175.854 10.1964 175.611 9.15563 175.611 8.00579C175.611 6.86658 175.851 5.80457 176.331 4.81975C176.817 3.8296 177.513 3.09498 178.419 2.61587C179.325 2.13677 180.369 1.89722 181.551 1.89722C182.408 1.89722 183.183 2.03562 183.873 2.31244C184.569 2.58393 185.114 2.96455 185.508 3.4543C185.902 3.94405 186.201 4.58286 186.406 5.37072L184.99 5.754C184.812 5.15778 184.591 4.68933 184.326 4.34863C184.062 4.00793 183.684 3.73644 183.193 3.53415C182.702 3.32654 182.158 3.22274 181.559 3.22274C180.841 3.22274 180.221 3.33187 179.698 3.55012C179.174 3.76306 178.751 4.0452 178.427 4.39654C178.109 4.74788 177.861 5.13383 177.683 5.55437C177.381 6.27835 177.23 7.06355 177.23 7.90997C177.23 8.95335 177.41 9.82638 177.772 10.5291C178.139 11.2317 178.67 11.7534 179.366 12.0941C180.062 12.4348 180.801 12.6052 181.583 12.6052C182.263 12.6052 182.926 12.4774 183.574 12.2219C184.221 11.9611 184.712 11.6842 185.046 11.3915V9.21153H181.559Z" fill="#646C73"/>
<path d="M189.075 13.8029V5.32281H190.386V6.6084C190.72 6.00686 191.028 5.61027 191.308 5.41863C191.594 5.22699 191.907 5.13117 192.247 5.13117C192.738 5.13117 193.237 5.28554 193.744 5.5943L193.242 6.9278C192.886 6.72019 192.53 6.61639 192.174 6.61639C191.856 6.61639 191.57 6.71221 191.316 6.90385C191.063 7.09017 190.882 7.35101 190.774 7.68638C190.612 8.19743 190.531 8.75638 190.531 9.36325V13.8029H189.075Z" fill="#646C73"/>
<path d="M193.959 9.56287C193.959 7.99248 194.401 6.82932 195.286 6.0734C196.025 5.44524 196.926 5.13117 197.989 5.13117C199.17 5.13117 200.136 5.51445 200.886 6.28101C201.636 7.04226 202.011 8.09628 202.011 9.4431C202.011 10.5344 201.843 11.3941 201.509 12.0223C201.18 12.6451 200.697 13.1295 200.06 13.4756C199.429 13.8216 198.739 13.9946 197.989 13.9946C196.786 13.9946 195.812 13.614 195.068 12.8527C194.329 12.0915 193.959 10.9949 193.959 9.56287ZM195.456 9.56287C195.456 10.6488 195.696 11.4633 196.176 12.0063C196.656 12.544 197.261 12.8128 197.989 12.8128C198.712 12.8128 199.313 12.5413 199.793 11.9983C200.273 11.4553 200.514 10.6275 200.514 9.51496C200.514 8.46626 200.271 7.67308 199.785 7.13541C199.305 6.59243 198.706 6.32094 197.989 6.32094C197.261 6.32094 196.656 6.58977 196.176 7.12743C195.696 7.66509 195.456 8.4769 195.456 9.56287Z" fill="#646C73"/>
<path d="M209.445 13.8029V12.5573C208.776 13.5155 207.867 13.9946 206.718 13.9946C206.21 13.9946 205.736 13.8988 205.293 13.7071C204.856 13.5155 204.53 13.2759 204.314 12.9885C204.104 12.6957 203.955 12.339 203.869 11.9185C203.81 11.6363 203.78 11.1892 203.78 10.577V5.32281H205.237V10.026C205.237 10.7766 205.266 11.2823 205.326 11.5432C205.417 11.9211 205.612 12.2192 205.908 12.4375C206.205 12.6504 206.572 12.7569 207.009 12.7569C207.446 12.7569 207.856 12.6478 208.239 12.4295C208.622 12.2059 208.892 11.9052 209.048 11.5272C209.21 11.1439 209.291 10.5903 209.291 9.8663V5.32281H210.747V13.8029H209.445Z" fill="#646C73"/>
<path d="M212.825 17.0529V5.32281H214.152V6.42474C214.465 5.99355 214.818 5.67149 215.212 5.45855C215.606 5.24029 216.083 5.13117 216.644 5.13117C217.378 5.13117 218.025 5.31748 218.586 5.69012C219.147 6.06276 219.571 6.58977 219.857 7.27116C220.143 7.94723 220.286 8.68984 220.286 9.49899C220.286 10.3667 220.126 11.1492 219.808 11.8466C219.495 12.5386 219.037 13.071 218.433 13.4436C217.834 13.8109 217.203 13.9946 216.539 13.9946C216.054 13.9946 215.617 13.8934 215.228 13.6911C214.845 13.4889 214.53 13.2333 214.281 12.9246V17.0529H212.825ZM214.144 9.61078C214.144 10.7021 214.368 11.5086 214.815 12.0303C215.263 12.5519 215.805 12.8128 216.442 12.8128C217.089 12.8128 217.642 12.544 218.101 12.0063C218.565 11.4633 218.797 10.6249 218.797 9.49101C218.797 8.41036 218.57 7.60121 218.117 7.06355C217.669 6.52589 217.132 6.25706 216.507 6.25706C215.886 6.25706 215.336 6.54452 214.856 7.11944C214.381 7.68905 214.144 8.51949 214.144 9.61078Z" fill="#646C73"/>
<path d="M221.71 11.2717L223.15 11.0481C223.231 11.6177 223.455 12.0542 223.822 12.3576C224.194 12.6611 224.712 12.8128 225.376 12.8128C226.045 12.8128 226.541 12.6797 226.865 12.4135C227.188 12.142 227.35 11.8253 227.35 11.4633C227.35 11.1386 227.207 10.8831 226.921 10.6968C226.722 10.569 226.225 10.4066 225.432 10.2097C224.364 9.94349 223.623 9.71459 223.207 9.52295C222.797 9.32598 222.484 9.05715 222.268 8.71646C222.058 8.37044 221.953 7.98982 221.953 7.57459C221.953 7.19663 222.039 6.84795 222.212 6.52855C222.39 6.20383 222.63 5.93499 222.932 5.72206C223.159 5.55703 223.466 5.41863 223.854 5.30684C224.248 5.18972 224.669 5.13117 225.117 5.13117C225.791 5.13117 226.382 5.22699 226.889 5.41863C227.401 5.61027 227.779 5.87111 228.022 6.20116C228.265 6.52589 228.432 6.96241 228.524 7.51071L227.099 7.70235C227.035 7.26584 226.846 6.92514 226.533 6.68027C226.225 6.43539 225.788 6.31295 225.222 6.31295C224.553 6.31295 224.076 6.42208 223.79 6.64034C223.504 6.8586 223.361 7.11412 223.361 7.40691C223.361 7.59323 223.42 7.76091 223.539 7.90997C223.658 8.06434 223.844 8.1921 224.097 8.29325C224.243 8.34648 224.672 8.46892 225.384 8.66056C226.414 8.93205 227.132 9.15563 227.536 9.33131C227.946 9.50165 228.267 9.75185 228.499 10.0819C228.731 10.412 228.847 10.8219 228.847 11.3116C228.847 11.7907 228.704 12.2432 228.418 12.6691C228.138 13.0896 227.731 13.417 227.196 13.6512C226.662 13.8801 226.058 13.9946 225.384 13.9946C224.267 13.9946 223.415 13.7657 222.827 13.3079C222.244 12.8501 221.872 12.1713 221.71 11.2717Z" fill="#646C73"/>
<path d="M40.3255 26.5868L41.2063 26.4676C41.2298 27.0239 41.3355 27.4047 41.5234 27.6099C41.7113 27.8152 41.9713 27.9179 42.3035 27.9179C42.5485 27.9179 42.7598 27.8632 42.9377 27.754C43.1155 27.6414 43.238 27.4907 43.3051 27.302C43.3722 27.11 43.4058 26.8053 43.4058 26.3881V21.3718H44.3822V26.3335C44.3822 26.9428 44.3067 27.4146 44.1557 27.749C44.0081 28.0834 43.7715 28.3384 43.446 28.5139C43.1239 28.6894 42.7447 28.7771 42.3085 28.7771C41.6609 28.7771 41.1643 28.5933 40.8187 28.2258C40.4765 27.8583 40.312 27.3119 40.3255 26.5868Z" fill="#646C73"/>
<path d="M57.5973 28.6529V27.8781C57.1812 28.4741 56.6158 28.7721 55.9011 28.7721C55.5857 28.7721 55.2904 28.7125 55.0153 28.5933C54.7435 28.4741 54.5405 28.3251 54.4063 28.1463C54.2754 27.9642 54.1831 27.7424 54.1295 27.4808C54.0925 27.3053 54.0741 27.0272 54.0741 26.6464V23.3784H54.9801V26.3037C54.9801 26.7706 54.9985 27.0851 55.0354 27.2474C55.0925 27.4825 55.2133 27.6679 55.3978 27.8036C55.5824 27.9361 55.8105 28.0023 56.0823 28.0023C56.3541 28.0023 56.6091 27.9344 56.8474 27.7987C57.0856 27.6596 57.2534 27.4725 57.3507 27.2374C57.4513 26.999 57.5017 26.6547 57.5017 26.2044V23.3784H58.4077V28.6529H57.5973Z" fill="#646C73"/>
<path d="M51.7941 22.4099V21.3718H52.7V22.4099H51.7941ZM50.6465 30.6992L50.8176 29.9393C50.9988 29.9857 51.1414 30.0088 51.2454 30.0088C51.43 30.0088 51.5676 29.9476 51.6582 29.8251C51.7488 29.7059 51.7941 29.4046 51.7941 28.9211V23.3784H52.7V28.941C52.7 29.59 52.6145 30.0419 52.4433 30.2969C52.2252 30.628 51.8628 30.7936 51.3562 30.7936C51.1112 30.7936 50.8747 30.7621 50.6465 30.6992Z" fill="#646C73"/>
<path d="M49.7204 26.9543L50.6566 27.0686C50.5089 27.6083 50.2355 28.0271 49.8362 28.3251C49.4369 28.6231 48.9268 28.7721 48.3061 28.7721C47.5243 28.7721 46.9035 28.5354 46.4438 28.0619C45.9875 27.5851 45.7593 26.9179 45.7593 26.0603C45.7593 25.173 45.9908 24.4843 46.4539 23.9942C46.9169 23.5042 47.5175 23.2592 48.2557 23.2592C48.9705 23.2592 49.5543 23.4992 50.0073 23.9793C50.4603 24.4594 50.6868 25.1349 50.6868 26.0057C50.6868 26.0587 50.6851 26.1382 50.6817 26.2441H46.6955C46.729 26.8236 46.8951 27.2672 47.1937 27.5752C47.4924 27.8831 47.8648 28.0371 48.3111 28.0371C48.6433 28.0371 48.9268 27.951 49.1617 27.7788C49.3966 27.6066 49.5828 27.3318 49.7204 26.9543ZM46.7458 25.509H49.7305C49.6902 25.0654 49.5761 24.7326 49.3882 24.5107C49.0996 24.1664 48.7255 23.9942 48.2658 23.9942C47.8497 23.9942 47.4991 24.1316 47.2139 24.4064C46.932 24.6813 46.776 25.0488 46.7458 25.509Z" fill="#646C73"/>
<path d="M8.16506 9.02607L13.4756 5.99142C14.7285 5.27491 15.1557 3.70138 14.4296 2.46504C13.7034 1.2287 12.1088 0.807225 10.8559 1.52374L1.68701 6.76413L8.16506 9.02607Z" fill="#DD4335"/>
<path d="M12.1655 16.8095C13.0625 16.8095 13.9452 16.3458 14.4293 15.5169C15.1554 14.2806 14.7283 12.7071 13.4754 11.9906L4.29221 6.76422C3.03931 6.0477 1.44471 6.46918 0.718603 7.70552C-0.00750893 8.94186 0.419616 10.5154 1.67251 11.2319L10.8557 16.4582C11.2686 16.6971 11.7242 16.7954 12.1655 16.7954V16.8095Z" fill="#4779BD"/>
<path d="M21.3061 16.8094C21.7475 16.8094 22.2031 16.697 22.6159 16.4722L31.7991 11.2459L25.3922 8.92773L19.9962 12.0045C18.7433 12.721 18.3162 14.2946 19.0423 15.5309C19.5264 16.3598 20.4091 16.8234 21.3061 16.8234V16.8094Z" fill="#F0B61A"/>
<path d="M30.4893 11.583C31.3863 11.583 32.269 11.1194 32.7531 10.2905C33.4792 9.05417 33.0521 7.48065 31.7992 6.76413L22.6018 1.52374C21.3489 0.807225 19.7543 1.2287 19.0282 2.46504C18.3021 3.70138 18.7292 5.27491 19.9821 5.99142L29.1653 11.2178C29.5781 11.4566 30.0337 11.5549 30.4751 11.5549L30.4893 11.583Z" fill="#1A9756"/>
</g>
<defs>
<clipPath id="clip0_110_2470">
<rect width="229.11" height="31.625" fill="white" transform="translate(0.376953 0.666748)"/>
</clipPath>
</defs>
</svg>
