<?xml version="1.0" encoding="UTF-8"?>
<svg id="Layer_1" xmlns="http://www.w3.org/2000/svg" version="1.1" viewBox="0 0 556.13 112.41">
  <!-- Generator: Adobe Illustrator 29.6.1, SVG Export Plug-In . SVG Version: 2.1.1 Build 9)  -->
  <defs>
    <style>
      .st0 {
        fill: #213e87;
      }

      .st1 {
        fill: #0c3388;
      }
    </style>
  </defs>
  <path class="st1" d="M173.22,36.53c-1.75,2.45-3.86,4.94-6.33,7.46-2.47,2.53-5.02,4.47-7.67,5.83-.97.51-1.67.54-2.1.12-.43-.43-.31-1.03.35-1.81,2.14-2.53,3.95-4.8,5.45-6.82,1.5-2.02,2.92-4.27,4.29-6.76,1.24-2.29,2.34-4.65,3.29-7.08.95-2.43,1.56-4.36,1.84-5.8h-7.46c-.82,0-1.89-.57-3.21-1.72-1.32-1.15-1.98-1.99-1.98-2.54,0-.43.1-.69.29-.79.19-.1.45-.15.76-.15h19.01c.93,0,1.55.33,1.87.99.31.66.41,1.19.29,1.57-.58,1.9-1.42,4.06-2.51,6.47s-2.25,4.68-3.5,6.82c.93,1.05,1.82,1.99,2.65,2.83.84.84,1.47,1.45,1.9,1.84.58.51,1.09.81,1.52.9.43.1.76.46.99,1.08.66,1.63,1.05,3.8,1.17,6.5.12,2.7-.35,4.27-1.4,4.69-1.13.47-2.25-.28-3.35-2.24s-2.22-3.95-3.35-5.98c-.51-.89-.99-1.8-1.46-2.71-.47-.91-.91-1.82-1.34-2.71ZM193.4,13.16v45.82c0,1.48-.29,2.7-.87,3.67-.58.97-1.44,1.46-2.56,1.46h-2.62c-.16,0-.29-.05-.41-.15-.12-.1-.17-.24-.17-.44v-29.03h-3.15c-.66,0-1.6-.5-2.83-1.49-1.22-.99-1.84-1.87-1.84-2.65,0-.54.18-.85.55-.93.37-.08.69-.12.96-.12h6.3v-11.95c0-2.25-.68-3.57-2.04-3.94-1.36-.37-2.04-.96-2.04-1.78,0-.35.09-.6.26-.76s.5-.23.96-.23h18.36c.19,0,.34.05.44.15.1.1.15.24.15.44v47.75c0,1.48-.3,2.7-.9,3.67-.6.97-1.47,1.46-2.59,1.46h-2.86c-.16,0-.29-.05-.41-.15-.12-.1-.17-.24-.17-.44V17.35c0-1.28-.27-2.22-.82-2.83-.54-.6-1.11-1.06-1.69-1.37Z"/>
  <path class="st1" d="M244.57,42.74v17.2c0,1.48-.5,2.56-1.49,3.26-.99.7-1.95,1.07-2.89,1.11h-3.79c-.16,0-.29-.06-.41-.17s-.17-.25-.17-.41v-20.99h-14.81c-1.01,0-2.2-.54-3.56-1.63-1.36-1.09-2.04-1.92-2.04-2.51,0-.47.08-.78.23-.93.16-.16.45-.23.87-.23h45.36c1.9,0,2.86.88,2.86,2.65s-.95,2.65-2.86,2.65h-17.31ZM245.56,24.14c1.59.39,3.56.78,5.89,1.17,1.24.19,2.03.16,2.36-.12.33-.27.83-.17,1.49.29,2.45,1.71,4.14,3.47,5.07,5.28.93,1.81,1.17,3.1.7,3.88-.62,1.09-2.27.95-4.96-.41-2.68-1.36-5.17-2.64-7.46-3.85-1.17-.62-2.31-1.23-3.44-1.84-1.13-.6-2.25-1.18-3.38-1.72-2.95,1.75-6.24,3.41-9.85,4.99-3.62,1.57-7.21,2.63-10.79,3.18-1.9.27-2.93.12-3.09-.47-.16-.58.33-1.13,1.46-1.63,2.02-.89,3.96-1.88,5.8-2.97,1.85-1.09,3.84-2.35,5.98-3.79,1.59-1.05,3.26-2.36,5.01-3.94s3.11-2.96,4.08-4.17h-11.54c-1.4,0-2.86-.62-4.37-1.87-1.52-1.24-2.27-2.08-2.27-2.51,0-.31.08-.54.23-.7.16-.16.45-.23.87-.23h28.68c1.48,0,2.29.44,2.45,1.31.16.87-.08,1.68-.7,2.42-.93,1.09-2.09,2.3-3.47,3.64-1.38,1.34-2.96,2.69-4.75,4.05Z"/>
  <path class="st1" d="M287.08,27.91c.78-1.48,1.94-2.22,3.5-2.22,1.63,0,2.82.75,3.56,2.25.74,1.5,1.11,3.1,1.11,4.81s-.39,3.25-1.17,4.72c-.78,1.48-1.96,2.21-3.56,2.21s-2.81-.76-3.53-2.27c-.72-1.52-1.08-3.11-1.08-4.78s.39-3.25,1.17-4.72ZM295.71,46.97c0-.19-.05-.34-.15-.44-.1-.1-.24-.15-.44-.15h-10.67c-.43,0-.77.05-1.02.15-.25.1-.38.36-.38.79,0,.93.75,1.58,2.24,1.95,1.5.37,2.25,1.35,2.25,2.94v5.48c0,1.55.67,2.75,2.01,3.59,1.34.84,2.79,1.25,4.34,1.25h22.04c1.71,0,2.57-.87,2.57-2.62s-.86-2.62-2.57-2.62h-19.3c-.35,0-.59-.06-.73-.17-.14-.12-.2-.33-.2-.64v-9.5ZM316.52,11.23c0-.19-.05-.34-.15-.44-.1-.1-.24-.15-.44-.15h-10.61c-.51,0-.94.05-1.31.15-.37.1-.55.36-.55.79,0,1.01.82,1.71,2.45,2.1,1.63.39,2.45,1.55,2.45,3.5v32.76c0,.16.06.29.17.41.12.12.25.17.41.17h2.91c1.17,0,2.23-.31,3.21-.93.97-.62,1.46-1.94,1.46-3.96v-14.87h5.31c1.83,0,2.74-.87,2.74-2.62s-.91-2.62-2.74-2.62h-5.31v-14.28ZM294.78,12.4c0-.19-.05-.34-.15-.44-.1-.1-.24-.15-.44-.15h-10.2c-.39,0-.7.06-.93.17-.23.12-.35.35-.35.7,0,.74.66,1.32,1.98,1.75,1.32.43,1.98,1.24,1.98,2.45v1.34h-11.19c-.27,0-.59.04-.96.12s-.55.33-.55.76c0,.93.74,1.9,2.21,2.89,1.48.99,2.62,1.49,3.44,1.49h3.73c-1.67.97-3.01,2.26-4.02,3.88-1.01,1.61-1.52,3.39-1.52,5.33,0,3.19,1.28,5.85,3.85,7.99,2.57,2.14,5.54,3.21,8.92,3.21s6.35-1.12,8.92-3.35c2.56-2.23,3.85-4.95,3.85-8.13,0-1.94-.5-3.67-1.49-5.19-.99-1.52-2.3-2.76-3.93-3.73h5.83c1.67,0,2.51-.87,2.51-2.62s-.84-2.62-2.51-2.62h-8.98v-5.83Z"/>
  <path class="st1" d="M366.65,42.89c-1.52.93-3.08,1.77-4.69,2.51-1.61.74-3.27,1.44-4.98,2.1-2.37.93-4.88,1.73-7.52,2.39-2.64.66-4.59.89-5.83.7-1.09-.19-2.41-.75-3.96-1.66-1.55-.91-2.33-2.17-2.33-3.76v-10.26c0-1.79-.73-2.89-2.19-3.32-1.46-.43-2.19-1.05-2.19-1.87,0-.43.18-.69.55-.79.37-.1.69-.15.96-.15h16.56v-7h-11.72c-1.01,0-2.22-.58-3.62-1.75-1.4-1.17-2.1-2.1-2.1-2.8,0-.43.14-.66.41-.7.27-.04.54-.06.82-.06h23.44c.66,0,1.31.32,1.95.96.64.64.84,1.45.61,2.42l-2.27,8.86c2.21,1.01,3.19,2.15,2.91,3.41-.27,1.26-1.22,1.89-2.86,1.89h-13.12v8.57c0,.27.19.47.58.58,1.71-.08,3.51-.23,5.39-.47,1.88-.23,3.7-.52,5.45-.87,1.83-.35,3.54-.78,5.13-1.28,1.59-.5,3.13-1.07,4.61-1.69v-21.22c0-1.98-.82-3.22-2.45-3.73-1.63-.5-2.45-1.24-2.45-2.22,0-.43.18-.71.55-.84.37-.14.81-.2,1.31-.2h10.61c.19,0,.34.05.44.15.1.1.15.24.15.44v19.59h5.31c1.83,0,2.74.87,2.74,2.62s-.91,2.62-2.74,2.62h-5.31v22.39c0,2.37-.49,3.94-1.46,4.69-.97.76-2.04,1.14-3.21,1.14h-2.91c-.16,0-.29-.06-.41-.17-.12-.12-.17-.25-.17-.41v-20.81Z"/>
  <path class="st1" d="M424.57,12.46c.54.43,1.28.9,2.22,1.43.93.53,1.4,1.68,1.4,3.47v13.41h-3.62V12.46ZM428.19,63.53c0,.19.06.34.17.44.12.1.25.15.41.15h2.86c1.13,0,2.04-.49,2.74-1.46.7-.97,1.05-2.2,1.05-3.67V11.23c0-.19-.05-.34-.15-.44-.1-.1-.24-.15-.44-.15h-20.17c-.47,0-.79.08-.96.23s-.26.41-.26.76c0,.82.68,1.41,2.04,1.78,1.36.37,2.04,1.68,2.04,3.94v18.66c-.74.39-1.49.76-2.25,1.11-.76.35-1.54.68-2.36.99-1.75.62-3.32,1.08-4.72,1.37-1.4.29-2.74.48-4.02.55-.43-.08-.64-.27-.64-.58v-16.44h8.1c1.79,0,2.69-.89,2.71-2.68.02-1.79-.88-2.68-2.71-2.68h-19.53c-.39,0-.69.08-.9.23-.21.16-.32.39-.32.7,0,.86.79,1.56,2.36,2.13,1.57.56,2.36,1.82,2.36,3.76v18.31c.04,1.32.64,2.42,1.81,3.29s2.12,1.39,2.86,1.54c1.2.23,3.1-.07,5.68-.9,2.58-.84,4.87-1.8,6.85-2.89.93-.54,1.79-1.06,2.57-1.54.78-.49,1.5-.98,2.16-1.49v22.74c0,.19.06.34.17.44.12.1.25.15.41.15h2.62c1.13,0,2.05-.49,2.77-1.46.72-.97,1.08-2.2,1.08-3.67v-22.97h3.62v27.52Z"/>
  <path class="st1" d="M462.09,26.33c.74-1.32,1.83-1.98,3.26-1.98,1.52,0,2.62.67,3.32,2.01s1.05,2.75,1.05,4.23-.37,2.82-1.11,4.14c-.74,1.32-1.85,1.98-3.32,1.98s-2.61-.67-3.29-2.01c-.68-1.34-1.02-2.75-1.02-4.23s.37-2.82,1.11-4.14ZM491.01,44c0-.19-.05-.34-.15-.44-.1-.1-.24-.15-.44-.15h-31.83c-.51,0-.82.11-.93.32-.12.21-.17.46-.17.73,0,.82.74,1.75,2.21,2.8,1.48,1.05,2.66,1.57,3.56,1.57h19.59v14.87c0,.16.06.29.17.41.12.12.25.17.41.17h3.09c1.4,0,2.5-.25,3.29-.76.8-.51,1.2-1.71,1.2-3.61v-15.92ZM496.72,28.72c1.83,0,2.74-.87,2.74-2.62s-.91-2.62-2.74-2.62h-5.31v-12.24c0-.19-.05-.34-.15-.44-.1-.1-.24-.15-.44-.15h-10.61c-.51,0-.92.05-1.25.15-.33.1-.5.36-.5.79,0,1.01.8,1.67,2.39,1.98,1.59.31,2.39,1.44,2.39,3.38v23.5c0,.16.06.29.17.41.12.12.25.17.41.17h2.91c1.17,0,2.23-.17,3.21-.52s1.46-1.54,1.46-3.56v-8.22h5.31ZM469.78,11.7c0-.19-.05-.34-.15-.44-.1-.1-.24-.15-.44-.15h-10.03c-.39,0-.7.06-.93.17-.23.12-.35.35-.35.7,0,.74.63,1.32,1.89,1.75,1.26.43,1.89,1.24,1.89,2.45v.87h-11.43c-.27,0-.59.04-.96.12-.37.08-.55.33-.55.76,0,.93.74,1.87,2.21,2.8,1.48.93,2.62,1.4,3.44,1.4h3.44c-1.48.93-2.66,2.12-3.56,3.56-.89,1.44-1.34,3.05-1.34,4.84,0,3.11,1.24,5.65,3.73,7.61,2.49,1.96,5.38,2.94,8.69,2.94s6.2-.97,8.69-2.91c2.49-1.94,3.73-4.45,3.73-7.52,0-1.79-.46-3.41-1.37-4.87-.91-1.46-2.11-2.67-3.58-3.64h5.54c1.67,0,2.51-.84,2.51-2.54s-.84-2.54-2.51-2.54h-8.57v-5.36Z"/>
  <path class="st1" d="M528.18,35.51c.66.27,1.28.67,1.86,1.2.58.53.87,1.18.87,1.95v13.35h-2.74v-16.5ZM538.5,33.41c0-.19-.05-.34-.15-.44-.1-.1-.24-.15-.44-.15h-19.88c-.27,0-.55.04-.85.12-.29.08-.44.33-.44.76,0,.82.64,1.44,1.92,1.87,1.28.43,1.92,1.34,1.92,2.74v13.7h-12.77c-.43,0-.72.08-.87.23-.16.16-.23.47-.23.93,0,.58.68,1.42,2.04,2.51,1.36,1.09,2.55,1.63,3.56,1.63h40.87c1.9,0,2.86-.88,2.86-2.65s-.95-2.65-2.86-2.65h-14.69v-18.6ZM540.31,21c.31,0,.52.06.64.17.12.12.18.33.18.64v19.41c-.08,1.94.49,2.95,1.69,3.03,1.21.08,2.27-.95,3.21-3.09,1.63-3.77,2.88-7.56,3.73-11.37.85-3.81,1.42-7.46,1.69-10.96.08-.85-.14-1.64-.64-2.36-.51-.72-1.5-1.08-2.97-1.08h-35.5c-.27,0-.55.07-.85.2-.29.14-.44.42-.44.85,0,.7.79,1.63,2.36,2.8,1.57,1.17,3.02,1.75,4.34,1.75h22.56Z"/>
  <path class="st1" d="M176.23,100.8l-.69,1.89c-1.28.83-2.43,1.39-3.45,1.7-1.01.31-2.28.46-3.78.46-2.17,0-4.08-.42-5.73-1.25-1.31-.67-2.42-1.57-3.32-2.68-.91-1.11-1.61-2.32-2.09-3.62-.75-1.96-1.12-4.09-1.12-6.39,0-3.93,1.1-7.15,3.3-9.64,2.2-2.49,5.3-3.74,9.31-3.74,1.37,0,2.6.12,3.7.37,1.1.25,2.37.69,3.81,1.32l.07.24c-.17.58-.29,1.31-.38,2.19-.15,1.4-.25,2.69-.31,3.88h-1.25c-.01-1.37-.05-2.46-.12-3.28-.68-.87-1.45-1.52-2.29-1.95-.84-.43-1.93-.64-3.26-.64-2.39,0-4.3.93-5.73,2.79-1.44,1.86-2.15,4.45-2.15,7.78,0,2.02.24,3.77.73,5.28.49,1.5,1.13,2.75,1.94,3.73.8.98,1.62,1.7,2.44,2.15,1.11.6,2.46.9,4.04.9,1.03,0,2.02-.14,2.94-.43.93-.29,1.94-.78,3.04-1.48l.37.43Z"/>
  <path class="st1" d="M176.5,104.22v-1.62c.96-.02,1.55-.06,1.77-.11.22-.05.38-.12.48-.22.1-.09.17-.23.21-.4.11-.38.17-1.24.17-2.61l.06-3.73v-8.78l-.06-3.7c0-1.39-.06-2.27-.17-2.64-.04-.17-.1-.31-.2-.4s-.25-.17-.47-.22c-.22-.06-.82-.1-1.79-.12v-1.62c1.68.08,3.45.12,5.32.12,1.67,0,3.14-.04,4.43-.12v1.62c-1.13.05-1.79.1-1.99.16-.2.06-.35.15-.44.27-.09.12-.16.56-.19,1.31-.04,1.27-.06,3.1-.06,5.49v2.15c.74.08,2.29.12,4.66.12,2.98,0,4.82-.04,5.53-.12v-2.15c0-1.93,0-3.17-.02-3.72-.03-1.66-.07-2.59-.12-2.8-.03-.15-.08-.26-.15-.35-.07-.08-.2-.15-.38-.2-.18-.06-.86-.11-2.02-.16v-1.62c1.29.08,2.77.12,4.44.12,1.86,0,3.63-.04,5.31-.12v1.62c-.98.03-1.57.06-1.78.11-.21.05-.37.12-.47.22-.1.09-.18.23-.22.4-.1.39-.16,1.26-.17,2.61l-.05,3.75v8.78l.05,3.68c0,1.4.06,2.28.15,2.64.06.18.14.31.23.41.09.1.25.17.46.22.21.05.81.09,1.8.11v1.62c-1.68-.08-3.44-.12-5.31-.12-1.67,0-3.16.04-4.44.12v-1.62c1.14-.05,1.81-.1,2.01-.16.2-.06.34-.15.43-.27.08-.12.15-.56.19-1.31.04-1.28.06-3.12.06-5.52v-3.92c-.52-.08-2.01-.12-4.49-.12s-3.96.01-4.75.04c-.33.01-.64.04-.94.09v3.92c0,1.95.02,3.2.06,3.74.09,1.66.15,2.61.19,2.83.04.14.09.25.15.33.06.08.18.15.37.21.18.06.82.11,1.92.16v1.62c-1.29-.08-2.77-.12-4.43-.12-1.87,0-3.64.04-5.32.12Z"/>
  <path class="st1" d="M201.99,104.24v-1.01c.61-.35,1.11-.71,1.5-1.08.05-.52.11-1.37.15-2.54.07-2.14.1-3.7.1-4.67v-8.41c0-.32-.02-1.54-.06-3.65-.04-1.41-.11-2.27-.22-2.58-.05-.12-.12-.22-.22-.28-.27-.15-1-.26-2.18-.34v-1.44l3.54-.05c.69,0,1.36,0,2.01,0,1.39,0,2.94-.02,4.65-.06l3.09-.09c.36,0,1.1.03,2.21.07.1,0,.27.05.5.14l.11.24-.29,2.69c-.01.19-.06,1.08-.14,2.69h-1.19c-.01-1.43-.06-2.32-.13-2.64-.04-.17-.1-.29-.18-.36-.13-.11-.53-.21-1.2-.29-1-.13-1.97-.2-2.93-.2-.9,0-1.81.04-2.75.12-.17,1.41-.25,3.19-.25,5.36v3.83c.69.08,1.41.12,2.16.12.23,0,1.07-.02,2.51-.08.54-.01.86-.06.95-.13.09-.08.16-.21.21-.4.12-.48.2-1.28.22-2.4h1.25l-.06,4.13.06,4.12h-1.25c.01-1.46-.07-2.36-.24-2.7-.11-.25-.33-.41-.66-.47-.7-.14-1.6-.21-2.71-.21-.99,0-1.8.04-2.45.12v7.81c0,.87.02,1.62.06,2.25.81.08,1.78.12,2.9.12s2.08-.04,3.01-.13c.92-.09,1.49-.21,1.7-.38.07-.05.14-.16.2-.34.18-.6.37-1.73.57-3.41h1.25c-.21,2.48-.32,4.53-.32,6.13l-.18.24c-.66.08-1.58.12-2.77.12l-2.46-.06c-2.42-.04-4.09-.06-5-.06-.24,0-1.93.04-5.08.12Z"/>
  <path class="st1" d="M217.76,108.74l.34-.24c.51.54.92.89,1.24,1.08.32.18.65.27.99.27.41,0,.72-.11.94-.32.22-.21.38-.52.48-.92.09-.4.15-1.27.17-2.61.03-2.64.04-4.1.04-4.39v-14.69c0-1.61-.02-3.07-.06-4.36-.04-1.29-.1-2.06-.19-2.3-.04-.12-.1-.22-.19-.3-.14-.11-.34-.18-.6-.21l-2.09-.09v-1.62c1.96.08,3.96.12,5.98.12,1.69,0,3.13-.04,4.33-.12v1.62c-1.06.04-1.69.08-1.91.11-.27.06-.46.18-.59.36-.13.17-.21.49-.25.96-.04,1.02-.06,2.45-.06,4.29v6.82l.04,8c0,2.02-.15,3.63-.45,4.83-.3,1.2-.79,2.33-1.49,3.39-.47.72-1.05,1.41-1.72,2.05-.68.64-1.34,1.13-1.98,1.46-.65.33-1.24.5-1.79.5-.4,0-.81-.09-1.23-.28.08-.85.1-1.98.06-3.39Z"/>
  <path class="st1" d="M229.08,79.6v-1.56l5,.12,2.09-.04,2.07-.06.58-.02v1.56c-1.15,0-1.87.12-2.17.35-.17.11-.28.33-.33.65-.12.77-.19,2.47-.19,5.1v4.33l.02,2.18c0,2.28.02,3.68.05,4.22.09,1.17.32,2.11.71,2.83.39.72.99,1.29,1.79,1.74.81.44,1.83.66,3.07.66,1.43,0,2.56-.29,3.4-.89.84-.59,1.44-1.36,1.8-2.3.36-.95.54-2.74.54-5.39v-3.81c0-3.29-.02-5.29-.06-6.01-.03-1.57-.09-2.51-.2-2.84-.07-.2-.19-.35-.35-.45-.33-.21-1.07-.34-2.19-.37v-1.56c1.85.08,2.95.12,3.3.12.09,0,.23,0,.41-.02l3.41-.11v1.56c-.94,0-1.53.09-1.78.28-.12.1-.22.29-.3.57-.07.28-.15,1.54-.24,3.78-.08,2.24-.12,4.01-.12,5.31v4.39c0,1.12-.07,2.28-.2,3.48-.13,1.2-.39,2.22-.79,3.07-.4.85-.96,1.61-1.7,2.3-.73.69-1.61,1.2-2.61,1.55-1.01.35-2.18.52-3.51.52-1.54,0-2.99-.26-4.33-.77-.98-.37-1.79-.87-2.41-1.5-.62-.63-1.1-1.33-1.42-2.11-.32-.78-.52-1.53-.6-2.25-.05-.45-.08-1.66-.08-3.63l.02-3.59v-4.75c0-1.74-.02-3.31-.06-4.71-.03-.55-.09-.95-.19-1.2-.05-.14-.18-.3-.39-.49l-2.05-.26Z"/>
  <path class="st1" d="M258.36,104.22v-1.62c.96-.02,1.55-.06,1.77-.11.22-.05.38-.12.48-.22.1-.09.17-.23.21-.4.11-.38.17-1.24.17-2.61l.06-3.73v-8.78l-.06-3.7c0-1.39-.06-2.27-.17-2.64-.04-.17-.1-.31-.2-.4-.09-.09-.25-.17-.47-.22-.22-.06-.82-.1-1.79-.12v-1.62c1.68.08,3.45.12,5.32.12,1.67,0,3.14-.04,4.43-.12v1.62c-1.13.05-1.79.1-1.99.16-.2.06-.35.15-.44.27-.09.12-.16.56-.19,1.31-.04,1.27-.06,3.1-.06,5.49v2.15c.74.08,2.29.12,4.66.12,2.98,0,4.82-.04,5.53-.12v-2.15c0-1.93,0-3.17-.02-3.72-.03-1.66-.07-2.59-.12-2.8-.03-.15-.08-.26-.15-.35-.07-.08-.2-.15-.38-.2-.18-.06-.86-.11-2.02-.16v-1.62c1.29.08,2.77.12,4.44.12,1.86,0,3.63-.04,5.31-.12v1.62c-.98.03-1.57.06-1.78.11-.21.05-.37.12-.47.22-.1.09-.18.23-.22.4-.1.39-.16,1.26-.17,2.61l-.05,3.75v8.78l.05,3.68c0,1.4.06,2.28.15,2.64.06.18.14.31.23.41.09.1.25.17.46.22.21.05.81.09,1.8.11v1.62c-1.68-.08-3.44-.12-5.31-.12-1.67,0-3.16.04-4.44.12v-1.62c1.14-.05,1.81-.1,2.01-.16.2-.06.34-.15.43-.27s.15-.56.19-1.31c.04-1.28.06-3.12.06-5.52v-3.92c-.52-.08-2.01-.12-4.49-.12s-3.96.01-4.75.04c-.33.01-.64.04-.94.09v3.92c0,1.95.02,3.2.06,3.74.09,1.66.15,2.61.19,2.83.04.14.09.25.15.33.06.08.18.15.37.21.18.06.82.11,1.92.16v1.62c-1.29-.08-2.77-.12-4.43-.12-1.87,0-3.64.04-5.32.12Z"/>
  <path class="st1" d="M292.55,84.43l3.26,9.67c-.93.04-1.98.06-3.16.06s-2.33-.02-3.29-.06l3.19-9.67ZM286.14,104.1l3.52.12v-1.56c-1.22-.05-1.95-.16-2.18-.33-.16-.12-.24-.33-.24-.63,0-.42.25-1.48.76-3.19l.67-2.22h7.92l1.32,4.08c.22.71.34,1.21.34,1.52,0,.25-.08.42-.23.53-.16.11-.85.19-2.08.25v1.56l5.36-.12,4.26.12v-1.56c-.3-.04-.52-.07-.67-.09-.49-.04-.78-.08-.9-.13-.11-.05-.21-.12-.31-.22-.09-.1-.19-.26-.29-.49l-.62-1.72-.95-2.56-6.83-19.53h-2.19l-1.34,4.25-3.98,12.05c-.76,2.28-1.27,3.81-1.53,4.58-.59,1.65-.94,2.6-1.06,2.85-.12.26-.23.44-.35.56-.11.12-.25.21-.4.26-.16.06-.64.12-1.47.2v1.56l3.48-.12Z"/>
  <path class="st1" d="M306.8,104.22v-.96c.27-.14.65-.38,1.15-.73.23-.15.37-.27.43-.37.05-.06.08-.13.1-.21.05-.31.09-1.43.11-3.34.02-1.92.03-4.22.03-6.9,0-3.95,0-6.38-.01-7.3-.03-2.35-.09-3.69-.18-4.03-.04-.15-.11-.26-.23-.34-.24-.19-1.04-.31-2.39-.38v-1.62c1.3.08,2.79.12,4.46.12,1.86,0,3.62-.04,5.29-.12v1.62c-1.18.06-1.9.17-2.17.34-.12.08-.2.2-.25.37-.05.17-.09.94-.11,2.31-.02,1.37-.03,3.11-.03,5.2v5.41c.01,1.79.02,3.55.03,5.31,0,1.75.02,2.82.03,3.19,1.39.08,2.34.12,2.85.12,1.53,0,2.87-.1,4.01-.31.41-.07.65-.16.73-.24.08-.09.17-.32.27-.69.2-.95.39-2.03.57-3.25h1.37c-.03.35-.04.55-.04.61l-.39,3.76c-.08,1.18-.12,1.89-.13,2.12-.3.1-.59.18-.88.21-.63.07-1.6.1-2.91.1-.19,0-1.39-.02-3.6-.07-1.69-.04-2.87-.06-3.55-.06-1,0-2.52.04-4.56.12Z"/>
  <path class="st1" d="M324.39,104.22v-.96c.27-.14.65-.38,1.15-.73.23-.15.37-.27.43-.37.05-.06.08-.13.1-.21.05-.31.09-1.43.11-3.34.02-1.92.03-4.22.03-6.9,0-3.95,0-6.38-.01-7.3-.03-2.35-.09-3.69-.18-4.03-.04-.15-.11-.26-.23-.34-.24-.19-1.04-.31-2.39-.38v-1.62c1.3.08,2.79.12,4.46.12,1.86,0,3.62-.04,5.29-.12v1.62c-1.18.06-1.9.17-2.17.34-.12.08-.2.2-.25.37-.05.17-.09.94-.11,2.31-.02,1.37-.03,3.11-.03,5.2v5.41c.01,1.79.02,3.55.03,5.31,0,1.75.02,2.82.03,3.19,1.39.08,2.34.12,2.85.12,1.53,0,2.87-.1,4.01-.31.41-.07.65-.16.73-.24.08-.09.17-.32.27-.69.2-.95.39-2.03.57-3.25h1.37c-.03.35-.04.55-.04.61l-.39,3.76c-.08,1.18-.12,1.89-.13,2.12-.3.1-.59.18-.88.21-.63.07-1.6.1-2.91.1-.19,0-1.39-.02-3.6-.07-1.69-.04-2.87-.06-3.55-.06-1,0-2.52.04-4.56.12Z"/>
  <path class="st1" d="M350.54,84.43l3.26,9.67c-.93.04-1.98.06-3.16.06s-2.33-.02-3.29-.06l3.19-9.67ZM344.14,104.1l3.52.12v-1.56c-1.22-.05-1.95-.16-2.18-.33-.16-.12-.24-.33-.24-.63,0-.42.25-1.48.76-3.19l.67-2.22h7.92l1.32,4.08c.22.71.34,1.21.34,1.52,0,.25-.08.42-.23.53-.16.11-.85.19-2.08.25v1.56l5.36-.12,4.26.12v-1.56c-.3-.04-.52-.07-.67-.09-.49-.04-.78-.08-.9-.13-.11-.05-.21-.12-.31-.22-.09-.1-.19-.26-.29-.49l-.62-1.72-.95-2.56-6.83-19.53h-2.19l-1.34,4.25-3.98,12.05c-.76,2.28-1.27,3.81-1.53,4.58-.59,1.65-.94,2.6-1.06,2.85-.12.26-.23.44-.35.56-.11.12-.25.21-.4.26-.16.06-.64.12-1.47.2v1.56l3.48-.12Z"/>
  <path class="st1" d="M369.26,79.6v-1.56l5,.12,2.09-.04,2.07-.06.58-.02v1.56c-1.15,0-1.87.12-2.17.35-.17.11-.28.33-.33.65-.12.77-.19,2.47-.19,5.1v4.33l.02,2.18c0,2.28.02,3.68.05,4.22.09,1.17.32,2.11.71,2.83.39.72.99,1.29,1.79,1.74.81.44,1.83.66,3.07.66,1.43,0,2.56-.29,3.4-.89.84-.59,1.44-1.36,1.8-2.3s.54-2.74.54-5.39v-3.81c0-3.29-.02-5.29-.06-6.01-.03-1.57-.09-2.51-.2-2.84-.07-.2-.19-.35-.35-.45-.33-.21-1.07-.34-2.19-.37v-1.56c1.85.08,2.95.12,3.3.12.09,0,.23,0,.41-.02l3.41-.11v1.56c-.94,0-1.53.09-1.78.28-.12.1-.22.29-.3.57-.07.28-.15,1.54-.24,3.78-.08,2.24-.12,4.01-.12,5.31v4.39c0,1.12-.07,2.28-.2,3.48-.13,1.2-.39,2.22-.79,3.07-.4.85-.96,1.61-1.7,2.3-.73.69-1.61,1.2-2.61,1.55-1.01.35-2.18.52-3.51.52-1.54,0-2.99-.26-4.33-.77-.98-.37-1.79-.87-2.41-1.5-.62-.63-1.1-1.33-1.42-2.11-.32-.78-.52-1.53-.6-2.25-.05-.45-.08-1.66-.08-3.63l.02-3.59v-4.75c0-1.74-.02-3.31-.06-4.71-.03-.55-.09-.95-.19-1.2-.05-.14-.18-.3-.39-.49l-2.05-.26Z"/>
  <path class="st1" d="M392.46,102.6c1.22-.07,1.92-.14,2.09-.21.11-.05.21-.13.28-.24.08-.11.14-.34.19-.69.05-.47.12-1.62.18-3.43.04-1.03.07-2.37.07-4.03v-5.99l-.06-5.43c0-.91-.03-1.5-.08-1.77-.06-.27-.13-.47-.22-.61-.09-.13-.25-.23-.48-.31-.22-.07-.88-.16-1.96-.24v-1.62c1.29.08,2.24.12,2.85.12l2.22-.06,1.4-.06c2.11,3.36,4.66,7.23,7.65,11.61,2.16,3.16,3.96,5.63,5.38,7.41l.06-4.31c0-6.7-.06-10.63-.19-11.82-.04-.46-.13-.76-.28-.9-.22-.22-1.02-.35-2.37-.37v-1.62c1.25.08,2.38.12,3.41.12s2.25-.04,3.81-.12v1.62c-1.25.04-1.99.15-2.23.34-.09.06-.14.16-.17.28-.15.62-.24,2.05-.26,4.27-.02,2.22-.03,3.87-.03,4.92,0,8.29.06,13.31.19,15.08l-.21.17c-.85-.18-1.73-.35-2.63-.5-3.3-4.51-7.98-11.27-14.04-20.29v9.31c0,1.93.04,3.94.12,6.04.04,1.45.1,2.32.19,2.63.04.15.1.27.2.37s.26.16.51.2c.66.1,1.15.15,1.46.15.06,0,.16,0,.3-.02v1.56c-1.93-.04-3.04-.06-3.31-.06-.99,0-2.33.04-4.03.12v-1.62Z"/>
  <path class="st1" d="M427.01,78.03v1.62c-1.05.04-1.68.08-1.87.14-.2.06-.34.12-.42.21-.08.08-.14.18-.18.31-.08.21-.13.62-.15,1.22-.01.33-.02.94-.02,1.84-.03,3.08-.04,4.73-.04,4.97v7.56l.06,3.43c0,1.29.05,2.13.15,2.51.04.18.1.31.2.4.1.09.25.17.46.23.21.06.81.1,1.82.12v1.62c-1.68-.08-3.46-.12-5.34-.12-1.65,0-3.12.04-4.41.12v-1.62c1.09-.05,1.72-.09,1.89-.13.22-.05.37-.12.45-.21s.13-.19.15-.3c.04-.15.08-.74.13-1.76.04-1.5.06-2.89.06-4.16v-7.84c0-2.49-.02-4.09-.06-4.8-.05-1.59-.11-2.58-.19-2.98-.04-.16-.09-.29-.15-.37-.06-.09-.18-.16-.36-.22-.18-.06-.82-.11-1.93-.16v-1.62c1.29.08,2.76.12,4.42.12,1.87,0,3.65-.04,5.33-.12Z"/>
  <path class="st1" d="M437.83,104.35c-.87-2.62-1.71-5.11-2.51-7.47l-2.17-6.35c-1.71-4.98-2.76-7.94-3.15-8.9-.39-.95-.69-1.5-.89-1.64-.31-.2-.95-.31-1.91-.34v-1.62c2.46.08,3.95.12,4.47.12l5.5-.12v1.62c-.86.01-1.48.08-1.87.19-.22.06-.38.15-.47.27-.09.12-.13.27-.13.46,0,.38.34,1.56,1.01,3.56.4,1.15.61,1.77.63,1.86.03.09.06.21.09.35l3.87,11.54,3.41-10.28c.07-.24.44-1.42,1.09-3.53.46-1.5.74-2.5.84-3.01.01-.15.02-.3.02-.45,0-.21-.03-.37-.08-.48-.06-.11-.13-.18-.21-.23-.08-.04-.26-.07-.56-.09-.66-.07-1.22-.12-1.68-.13v-1.62l3.89.12,3.31-.12v1.62c-.99.11-1.56.24-1.72.39-.28.26-.86,1.68-1.74,4.25l-1.09,3.11-2.06,6.03c-1.76,5.14-2.95,8.78-3.58,10.91h-2.31Z"/>
  <path class="st1" d="M451.22,104.24v-1.01c.61-.35,1.11-.71,1.5-1.08.05-.52.11-1.37.15-2.54.07-2.14.1-3.7.1-4.67v-8.41c0-.32-.02-1.54-.06-3.65-.04-1.41-.11-2.27-.22-2.58-.05-.12-.12-.22-.22-.28-.27-.15-1-.26-2.18-.34v-1.44l3.54-.05c.69,0,1.36,0,2.01,0,1.39,0,2.94-.02,4.65-.06l3.09-.09c.36,0,1.1.03,2.21.07.1,0,.27.05.5.14l.11.24-.29,2.69c-.01.19-.06,1.08-.14,2.69h-1.19c-.01-1.43-.06-2.32-.13-2.64-.04-.17-.1-.29-.18-.36-.13-.11-.53-.21-1.2-.29-1-.13-1.97-.2-2.93-.2-.9,0-1.81.04-2.75.12-.17,1.41-.25,3.19-.25,5.36v3.83c.69.08,1.41.12,2.16.12.23,0,1.07-.02,2.51-.08.54-.01.86-.06.95-.13.09-.08.16-.21.21-.4.12-.48.2-1.28.22-2.4h1.25l-.06,4.13.06,4.12h-1.25c.01-1.46-.07-2.36-.24-2.7-.11-.25-.33-.41-.66-.47-.7-.14-1.6-.21-2.71-.21-.99,0-1.8.04-2.45.12v7.81c0,.87.02,1.62.06,2.25.81.08,1.78.12,2.9.12s2.08-.04,3.01-.13c.92-.09,1.49-.21,1.7-.38.07-.05.14-.16.2-.34.18-.6.37-1.73.57-3.41h1.25c-.21,2.48-.32,4.53-.32,6.13l-.18.24c-.66.08-1.58.12-2.77.12l-2.46-.06c-2.42-.04-4.09-.06-5-.06-.24,0-1.93.04-5.08.12Z"/>
  <path class="st1" d="M468.18,79.6v-1.56c.22,0,1.04.03,2.45.08.67.03,1.64.04,2.9.04,1.07,0,1.99-.03,2.75-.08,1.27-.07,2.32-.1,3.14-.1,1.61,0,2.8.14,3.59.42.79.28,1.47.87,2.03,1.75.56.89.84,1.97.84,3.25,0,1.51-.38,2.89-1.15,4.13-.77,1.24-1.95,2.22-3.53,2.94.25.56.54,1.13.87,1.71.33.58.52.94.58,1.06.06.12.11.24.18.35l2.35,4.34c.63,1.15.98,1.77,1.03,1.86.77,1.24,1.24,1.97,1.41,2.2.17.22.34.38.5.47.17.09.49.14.96.15v1.62c-1.57-.08-2.71-.12-3.4-.12-.82,0-1.64.04-2.45.12-.05-.27-.17-.63-.35-1.07l-3.26-6.61c-.95-1.9-1.74-3.39-2.39-4.47-.32-.55-.64-.96-.95-1.24l.17-.62c1.24.05,2.17-.1,2.79-.46.62-.36,1.15-.99,1.58-1.91.43-.92.65-1.94.65-3.08s-.23-2.1-.68-2.87c-.45-.76-1.01-1.29-1.67-1.59-.43-.19-1.2-.28-2.31-.28-.49,0-.98.05-1.47.15-.03.45-.06,1.46-.1,3.04-.06,3.54-.08,5.9-.08,7.08,0,1.87,0,3.86.02,5.96.02,2.57.03,4.03.04,4.38.02.7.08,1.16.17,1.37.04.1.1.19.2.27.09.08.24.15.45.2.21.05.8.09,1.77.11v1.62c-1.75-.08-3.49-.12-5.25-.12-1.57,0-3.01.04-4.34.12v-1.62c1.16-.05,1.85-.12,2.06-.21.12-.04.21-.1.27-.19.06-.09.1-.26.12-.52.07-.49.13-1.22.17-2.21l.06-5.47v-6.95l-.06-3.95c-.03-1.56-.09-2.5-.18-2.81-.05-.14-.12-.24-.22-.32-.24-.15-.98-.28-2.22-.37Z"/>
  <path class="st1" d="M503.82,84.85h-1.37c-.01-1.45-.06-2.48-.15-3.08-.31-.55-.86-1.04-1.64-1.47s-1.66-.64-2.64-.64c-1.39,0-2.47.43-3.23,1.28-.76.86-1.15,1.86-1.15,3.01.01.83.12,1.49.34,2.01.21.51.52.92.92,1.22.4.3.99.58,1.77.83.59.15,1.42.34,2.48.56,1.07.23,1.76.38,2.07.47.83.26,1.5.58,2.01.95.51.37.92.79,1.23,1.27.31.48.56,1.09.75,1.82.19.73.29,1.55.29,2.46,0,1.6-.28,3-.83,4.22-.4.91-.97,1.75-1.7,2.5-.73.76-1.48,1.32-2.24,1.7-1.23.6-2.7.9-4.43.9-1.25,0-2.37-.14-3.35-.43-.98-.29-2.07-.78-3.26-1.47.32-1.42.49-3.58.5-6.47h1.37c-.01.9.04,2.01.17,3.34.39.77,1.05,1.45,1.99,2.03.94.58,1.96.88,3.07.88.97,0,1.84-.21,2.6-.63.76-.42,1.31-1,1.65-1.73.34-.74.51-1.58.51-2.51,0-.79-.12-1.46-.37-2.02-.25-.56-.62-1.01-1.14-1.35-.52-.34-1.42-.69-2.71-1.05-1.86-.47-3.08-.82-3.66-1.03-.89-.32-1.61-.79-2.15-1.41-.54-.61-.94-1.35-1.21-2.22-.26-.87-.4-1.8-.4-2.8,0-1.4.24-2.69.72-3.87.48-1.18,1.12-2.09,1.91-2.74.79-.65,1.68-1.11,2.67-1.4.99-.28,2.01-.42,3.07-.42s2.14.12,3.16.36c1.02.24,1.9.58,2.65,1.03l.13.45c-.14.81-.24,1.61-.3,2.39-.06.78-.1,1.81-.14,3.08Z"/>
  <path class="st1" d="M516.72,78.03v1.62c-1.05.04-1.68.08-1.87.14-.2.06-.34.12-.42.21-.08.08-.14.18-.18.31-.08.21-.13.62-.15,1.22-.01.33-.02.94-.02,1.84-.03,3.08-.04,4.73-.04,4.97v7.56l.06,3.43c0,1.29.05,2.13.15,2.51.04.18.1.31.2.4.1.09.25.17.46.23.2.06.81.1,1.82.12v1.62c-1.68-.08-3.46-.12-5.34-.12-1.65,0-3.12.04-4.41.12v-1.62c1.09-.05,1.72-.09,1.89-.13.22-.05.37-.12.45-.21s.13-.19.15-.3c.04-.15.08-.74.13-1.76.04-1.5.06-2.89.06-4.16v-7.84c0-2.49-.02-4.09-.06-4.8-.05-1.59-.11-2.58-.19-2.98-.04-.16-.09-.29-.15-.37-.06-.09-.18-.16-.36-.22-.18-.06-.82-.11-1.93-.16v-1.62c1.29.08,2.76.12,4.42.12,1.87,0,3.65-.04,5.33-.12Z"/>
  <path class="st1" d="M521.66,104.22v-1.56c1.24-.05,1.98-.15,2.22-.3s.4-.4.49-.75c.11-.54.15-2.15.11-4.84v-11.19c0-3.05-.02-4.76-.06-5.12h-2.16c-1.08,0-2.04.04-2.86.13-.33.04-.52.09-.57.15-.07.08-.14.29-.18.65-.14.87-.21,1.85-.22,2.94h-1.37c-.05-2.57-.08-4.01-.08-4.34-.04-.55-.1-1.15-.17-1.79l.15-.19c.47.04.99.07,1.54.09.87.03,2.56.04,5.06.04h6.2c2.57,0,4.29-.01,5.17-.04.46-.02.94-.05,1.42-.09l.15.19c-.07.76-.12,1.43-.14,2.01-.01.1-.03,1.47-.05,4.11h-1.37c-.03-.97-.09-1.9-.2-2.79-.06-.45-.12-.72-.18-.8-.06-.06-.23-.11-.5-.13-.83-.1-1.82-.15-2.98-.15h-2.16c-.03.44-.04,2.14-.04,5.12v11.19c0,2.69.06,4.31.19,4.86.06.32.21.56.45.72.24.16.96.26,2.18.31v1.56c-1.97-.08-3.63-.12-4.99-.12-1.46,0-3.13.04-5.01.12Z"/>
  <path class="st1" d="M547.83,90.4l1.91-3.8c.32-.68,1.28-2.76,2.87-6.24.55-1.19.91-1.97,1.05-2.33h2.48v.84c-1.24,2.04-2.58,4.42-4.01,7.17-1.44,2.75-2.32,4.51-2.66,5.3-.23.54-.38,1.01-.45,1.4-.04.29-.06.76-.06,1.41v3.17c.04,1.59.1,2.75.16,3.47.07.73.15,1.16.24,1.31.09.15.24.26.45.34.21.08.86.12,1.97.15v1.62c-1.93-.08-3.68-.12-5.24-.12s-3.07.04-4.63.12v-1.62c1.16-.05,1.84-.11,2.04-.17.2-.06.34-.16.41-.28.07-.12.13-.5.17-1.13.04-1.43.06-2.64.06-3.64v-3.57c0-.29-.19-.88-.58-1.79-.96-2.16-1.99-4.28-3.08-6.37-.88-1.7-1.71-3.07-2.47-4.1-.51-.68-.87-1.08-1.08-1.22-.14-.08-.59-.11-1.35-.11v-1.37l3.23-.8c.55-.15,1.11-.32,1.7-.51.62.43,1.08.81,1.36,1.14.29.33.68.96,1.17,1.87.73,1.35,1.47,2.91,2.2,4.68,1.19,2.81,1.91,4.53,2.16,5.17Z"/>
  <path class="st0" d="M67.15,0C30.12,0,0,24.41,0,54.42s30.12,54.42,67.15,54.42,67.15-24.41,67.15-54.42S104.17,0,67.15,0ZM67.15,108.71C30.4,108.71.62,84.4.62,54.42S30.4.14,67.15.14s66.53,24.31,66.53,54.28-29.78,54.29-66.53,54.29Z"/>
  <path class="st0" d="M67.15.14C30.4.14.62,24.44.62,54.42s29.78,54.29,66.53,54.29,66.53-24.31,66.53-54.29S103.89.14,67.15.14ZM67.15,108.2C30.47,108.2.64,84.08.64,54.42S30.47.64,67.15.64s66.51,24.13,66.51,53.78-29.83,53.78-66.51,53.78Z"/>
  <path class="st0" d="M67.18,72.16s-.12-.01-.12-.01c0,0-12.28,2.95-22.77,15.16,6.82,2.73,14.59,4.29,22.84,4.29s16.1-1.57,22.95-4.33c-10.19-11.78-22.14-14.92-22.9-15.11ZM60.2,87.89h-.68v-3.19h-1.19v-.44c.46-.04.78-.11.96-.2.18-.09.32-.31.41-.66h.51v4.49ZM66.08,86.95c-.31.71-.83,1.06-1.57,1.06-.5,0-.87-.12-1.13-.35-.26-.24-.38-.53-.38-.87h.64c.02.31.15.53.41.65.13.07.28.1.44.1.31,0,.57-.11.78-.34.22-.23.37-.68.46-1.37-.14.2-.32.34-.53.42-.21.08-.43.12-.67.12-.49,0-.88-.13-1.16-.41-.29-.26-.43-.61-.43-1.03s.14-.77.42-1.08c.28-.31.7-.46,1.24-.46.74,0,1.25.29,1.53.88.16.32.24.73.24,1.21,0,.55-.09,1.04-.28,1.46ZM71.03,87.53c-.3.32-.73.47-1.29.47-.48,0-.89-.16-1.24-.48-.35-.32-.52-.86-.52-1.61,0-.56.07-1.03.23-1.43.3-.75.85-1.12,1.64-1.12.57,0,.97.13,1.2.39.22.26.34.53.34.8h-.64c-.04-.18-.1-.31-.18-.42-.15-.19-.38-.28-.7-.28-.36,0-.65.15-.86.44-.21.3-.33.71-.35,1.26.15-.19.33-.33.56-.43.2-.08.43-.12.68-.12.43,0,.8.12,1.12.36.32.24.48.6.48,1.08,0,.41-.15.77-.45,1.09ZM76.16,86.95c-.31.71-.83,1.06-1.57,1.06-.5,0-.87-.12-1.13-.35-.26-.24-.38-.53-.38-.87h.64c.01.31.16.53.41.65.13.07.28.1.44.1.31,0,.57-.11.78-.34.21-.23.37-.68.46-1.37-.14.2-.32.34-.53.42-.21.08-.43.12-.67.12-.49,0-.88-.13-1.16-.41-.28-.26-.42-.61-.42-1.03s.14-.77.42-1.08c.28-.31.7-.46,1.24-.46.74,0,1.25.29,1.53.88.16.32.23.73.23,1.21,0,.55-.09,1.04-.28,1.46Z"/>
  <path class="st0" d="M74.69,83.91c-.31,0-.56.09-.74.27-.18.18-.28.43-.28.74,0,.29.08.52.24.7.16.17.42.25.77.25.25,0,.49-.07.69-.22.21-.15.32-.4.32-.77,0-.33-.1-.57-.28-.74-.19-.16-.43-.23-.72-.23Z"/>
  <path class="st0" d="M64.61,83.91c-.32,0-.56.09-.74.27-.19.18-.28.43-.28.74,0,.29.08.52.24.7.16.17.42.25.77.25.25,0,.48-.07.69-.22.21-.15.32-.4.32-.77,0-.33-.09-.57-.28-.74-.19-.16-.43-.23-.72-.23Z"/>
  <path class="st0" d="M69.77,85.52c-.28,0-.52.08-.73.24-.21.16-.31.4-.31.72,0,.28.09.52.28.71.19.19.45.29.79.29s.59-.1.76-.3c.17-.2.25-.43.25-.7,0-.23-.07-.45-.22-.65-.15-.21-.42-.31-.82-.31Z"/>
  <path class="st0" d="M52.1,37.8c.68,0,1.23-.87,1.23-1.96s-.55-1.96-1.23-1.96-1.23.88-1.23,1.96.55,1.96,1.23,1.96Z"/>
  <path class="st0" d="M95.73,84.6c12.34-6.75,20.39-17.75,20.39-30.18,0-1.22-.08-2.42-.23-3.61-14.87,13.31-34.23,19.12-34.23,19.12,6.51,5.75,11.11,10.92,14.08,14.67Z"/>
  <path class="st0" d="M52.47,69.93s-19.14-4.82-34.11-18.8c-.13,1.09-.2,2.18-.2,3.29,0,12.43,8.04,23.42,20.38,30.17,2.91-3.75,7.43-8.92,13.94-14.66Z"/>
  <path class="st0" d="M61.24,59.61v-7.58s-.17-1.63,1.64-1.71h8.52s1.68,0,1.66,1.71c0,.72,0,5.33,0,7.59,15.35-1.29,25.05-5.8,25.05-5.8,6.88-2.67,12.32-5.7,16.51-8.53-5.36-16.12-24.59-28.05-47.49-28.05s-42.07,11.89-47.47,27.98c4.2,2.85,9.68,5.91,16.62,8.6,0,0,9.66,4.48,24.95,5.79ZM71.95,36.07c.02-.35.52-.33.52-.33h5.29v-2.4h-4.18c-.46-.02-.55-.15-.55-.15l-.72-.94c-.22-.38.09-.67.09-.67.22-.22.76.17.76.17.04.11,6.62.05,6.62.05.67.02.63.35.63.35v4.26c-.09.7-.63.78-.63.78h-4.14l-.02,2.24c.04.41.39.43.39.43l4.42-.09c.72.07,1.68-.74,1.68-.74l-.02-7.44c.02-.33-1.26-.85-1.26-.85-.26-.09-.22-.37-.22-.37.02-.31.48-.28.48-.28l3.09.26c.52.05.5.37.5.37l-.02,4.83h1.87c.48.04.48.67.48.67.09.93-.44.96-.44.96l-1.87-.02v7.21c-.33,1.24-1.92,1.09-1.92,1.09-.59.09-.72-.33-.72-.33v-4.76c-.57.87-3.24.96-3.24.96l-4.53-.03c-1.02,0-1.33-1-1.33-1l-.02-3.11c.02-.41-.44-.57-.44-.57-.74-.24-.57-.56-.57-.56ZM60.12,45.01l-8.25.02c-1.05-.11-1.24-1.02-1.24-1.02v-2.65c-.02-.37-.89-.56-.89-.56-.57-.13-.39-.44-.39-.44.09-.44.56-.31.56-.31l2.89.07c.52.04.59.39.59.39l.02,2.46c-.04.61.52.57.52.57h6.01c.61.02.67.68.67.68-.02.82-.5.8-.5.8ZM56.33,30.47c.13-.37.63-.24.63-.24l2.79.2c.68.07.65.52.65.52v3.31h1.76c.52,0,.59.54.59.54.05,1.11-.41,1.11-.41,1.11h-1.91v4.07c0,.87-.74,1.15-.74,1.15-1.48.52-1.87-.11-1.87-.11v-9.31c-.04-.32-1.09-.65-1.09-.65-.56-.17-.39-.59-.39-.59ZM46.82,32.24s.07-.24.46-.13c0,0,.61.32.68.32h2.81s.02-.95-.17-1.04c0,0-.61-.37-.59-.74,0,0-.09-.48.72-.33l2.15.17s.65.02.63.5l-.09,1.41h2.96s.7.04.65.76c0,0,.05.67-.52.65h-1.29s.89,1.17.72,2.28c0,0-.28,2.94-3.89,3.18,0,0-3.66-.27-3.85-3.24,0,0-.17-1.13.81-2.15h-1.07s-.33-.02-.5-.3c0,0-.98-.89-.61-1.35Z"/>
  <path class="st0" d="M124.61,48.06c-1.3,0-2.36,1.01-2.36,2.26s1.06,2.26,2.36,2.26,2.36-1.01,2.36-2.26-1.06-2.26-2.36-2.26Z"/>
  <path class="st0" d="M10.29,48.06c-1.3,0-2.36,1.01-2.36,2.26s1.06,2.26,2.36,2.26,2.36-1.01,2.36-2.26-1.06-2.26-2.36-2.26Z"/>
  <path class="st0" d="M10.08,64.88s1.45-4.86-1.86-9.51c0,0-1.66,6.28,1.86,9.51Z"/>
  <path class="st0" d="M11.82,69.3s-1.82-4.75-7.36-6.65c0,0,2.52,6.02,7.36,6.65Z"/>
  <path class="st0" d="M11.85,69.16c3.22-2.85,1.84-8.53,1.84-8.53-3.06,4.13-1.84,8.53-1.84,8.53Z"/>
  <path class="st0" d="M6.32,68.55s3.32,5.65,8.19,5.68c0,0-2.45-4.48-8.19-5.68Z"/>
  <path class="st0" d="M15.2,65.4c-2.48,4.48-.68,8.69-.68,8.69,2.82-3.23.68-8.69.68-8.69Z"/>
  <path class="st0" d="M17.95,79.05s-3.03-4.14-8.89-4.62c0,0,4.05,5.2,8.89,4.62Z"/>
  <path class="st0" d="M17.44,70.21c-1.85,4.74.5,8.7.5,8.7,2.35-3.55-.5-8.7-.5-8.7Z"/>
  <path class="st0" d="M22.11,83.14s-3.65-3.66-9.52-3.29c0,0,4.82,4.55,9.52,3.29Z"/>
  <path class="st0" d="M20.22,74.48c-1.09,4.95,1.86,8.52,1.86,8.52,1.77-3.84-1.86-8.52-1.86-8.52Z"/>
  <path class="st0" d="M26.67,86.97s-4.07-3.22-9.85-2.2c0,0,5.34,3.98,9.85,2.2Z"/>
  <path class="st0" d="M23.74,78.58c-.48,5.04,2.89,8.26,2.89,8.26,1.3-4.01-2.89-8.26-2.89-8.26Z"/>
  <path class="st0" d="M31.73,90.37s-4.39-2.81-10.04-1.22c0,0,5.74,3.44,10.04,1.22Z"/>
  <path class="st0" d="M27.91,82.31c.07,5.06,3.77,7.93,3.77,7.93.85-4.12-3.77-7.93-3.77-7.93Z"/>
  <path class="st0" d="M36.81,93.01s-4.69-2.33-10.11-.16c0,0,6.1,2.81,10.11.16Z"/>
  <path class="st0" d="M32.16,96.04s6.36,2.21,10.08-.81c0,0-4.91-1.87-10.08.81Z"/>
  <path class="st0" d="M38.18,98.75s6.55,1.64,9.96-1.7c0,0-5.07-1.43-9.96,1.7Z"/>
  <path class="st0" d="M44.51,100.92s6.67,1.11,9.78-2.49c0,0-5.18-1.02-9.78,2.49Z"/>
  <path class="st0" d="M47.58,92.35c2.06,4.66,6.61,5.99,6.61,5.99-.83-4.12-6.61-5.99-6.61-5.99Z"/>
  <path class="st0" d="M60.75,99.29s-5.27-.43-9.4,3.57c0,0,6.76.35,9.4-3.57Z"/>
  <path class="st0" d="M53.34,94c2.62,4.4,7.3,5.21,7.3,5.21-1.34-4.01-7.3-5.21-7.3-5.21Z"/>
  <path class="st0" d="M57.85,103.55s6.77-.16,9.07-4.28c0,0-5.29-.03-9.07,4.28Z"/>
  <path class="st0" d="M59.09,94.57c2.98,4.18,7.71,4.64,7.71,4.64-1.66-3.89-7.71-4.64-7.71-4.64Z"/>
  <path class="st0" d="M124.21,65.07c3.52-3.24,1.85-9.52,1.85-9.52-3.31,4.66-1.85,9.52-1.85,9.52Z"/>
  <path class="st0" d="M129.82,62.83c-5.54,1.9-7.36,6.64-7.36,6.64,4.84-.63,7.36-6.64,7.36-6.64Z"/>
  <path class="st0" d="M120.59,60.81s-1.38,5.68,1.85,8.53c0,0,1.22-4.4-1.85-8.53Z"/>
  <path class="st0" d="M119.78,74.41c4.88-.02,8.19-5.67,8.19-5.67-5.75,1.19-8.19,5.67-8.19,5.67Z"/>
  <path class="st0" d="M119.76,74.27s1.8-4.21-.68-8.69c0,0-2.14,5.46.68,8.69Z"/>
  <path class="st0" d="M116.34,79.23c4.84.57,8.89-4.62,8.89-4.62-5.86.47-8.89,4.62-8.89,4.62Z"/>
  <path class="st0" d="M116.35,79.09s2.35-3.95.51-8.7c0,0-2.86,5.15-.51,8.7Z"/>
  <path class="st0" d="M112.18,83.31c4.69,1.27,9.51-3.29,9.51-3.29-5.87-.37-9.51,3.29-9.51,3.29Z"/>
  <path class="st0" d="M112.21,83.19s2.95-3.57,1.86-8.53c0,0-3.63,4.68-1.86,8.53Z"/>
  <path class="st0" d="M107.62,87.15c4.51,1.78,9.85-2.21,9.85-2.21-5.79-1.02-9.85,2.21-9.85,2.21Z"/>
  <path class="st0" d="M107.66,87.02s3.36-3.22,2.89-8.26c0,0-4.18,4.25-2.89,8.26Z"/>
  <path class="st0" d="M102.55,90.55c4.29,2.21,10.04-1.22,10.04-1.22-5.65-1.59-10.04,1.22-10.04,1.22Z"/>
  <path class="st0" d="M102.61,90.43s3.7-2.87,3.77-7.93c0,0-4.62,3.81-3.77,7.93Z"/>
  <path class="st0" d="M97.48,93.19c4.02,2.65,10.12-.16,10.12-.16-5.43-2.17-10.12.16-10.12.16Z"/>
  <path class="st0" d="M92.05,95.42c3.71,3.02,10.08.81,10.08.81-5.17-2.68-10.08-.81-10.08-.81Z"/>
  <path class="st0" d="M86.14,97.23c3.41,3.34,9.97,1.7,9.97,1.7-4.89-3.12-9.97-1.7-9.97-1.7Z"/>
  <path class="st0" d="M79.99,98.62c3.11,3.6,9.78,2.49,9.78,2.49-4.6-3.51-9.78-2.49-9.78-2.49Z"/>
  <path class="st0" d="M86.7,92.53s-5.78,1.87-6.61,5.99c0,0,4.55-1.33,6.61-5.99Z"/>
  <path class="st0" d="M73.53,99.47c2.64,3.93,9.4,3.57,9.4,3.57-4.14-4-9.4-3.57-9.4-3.57Z"/>
  <path class="st0" d="M80.95,94.19s-5.97,1.2-7.31,5.2c0,0,4.68-.8,7.31-5.2Z"/>
  <path class="st0" d="M67.36,99.46c2.31,4.11,9.08,4.27,9.08,4.27-3.79-4.3-9.08-4.27-9.08-4.27Z"/>
  <path class="st0" d="M67.48,99.38s4.73-.45,7.71-4.63c0,0-6.05.75-7.71,4.63Z"/>
  <path class="st0" d="M12.77,31.94c.06-.05.1-.07.15-.08.04,0,.09,0,.14.02.11.04.34.19.69.44l.94.65,2.21,1.59.92.7c.34.25.55.42.62.52.04.04.06.09.06.13,0,.04,0,.1-.03.16-.03.06-.13.23-.31.49l.42.3c.3-.46.62-.94.98-1.44.32-.44.62-.83.89-1.15l-.42-.3c-.22.28-.36.44-.41.48-.05.04-.09.06-.12.06-.03,0-.07,0-.11-.02-.06-.03-.31-.19-.74-.47-.15-.08-.47-.3-.96-.65l-.98-.71c.04-.09.1-.18.15-.27.15-.22.45-.64.9-1.27.48-.66.78-1.05.9-1.17l.98.71c.6.44,1.06.78,1.37,1.03.18.15.28.25.29.29.02.05.01.1-.01.16-.02.06-.14.25-.34.55l.42.3c.22-.36.49-.76.81-1.2.36-.5.71-.96,1.06-1.39l-.42-.3c-.19.25-.31.4-.37.45-.05.05-.1.07-.15.08-.04,0-.09,0-.15-.02-.11-.04-.34-.19-.7-.44l-.94-.65-2.21-1.59-.93-.7c-.34-.25-.54-.42-.62-.52-.04-.04-.06-.08-.06-.13,0-.05,0-.1.04-.17.03-.06.13-.23.31-.49l-.42-.3c-.3.46-.62.95-.98,1.44-.32.44-.62.83-.89,1.15l.42.3c.23-.29.37-.45.42-.49.05-.04.09-.06.12-.06.03,0,.07,0,.11.03.06.03.31.18.74.46.14.09.46.32.94.67l.54.39c-.11.21-.45.71-1.03,1.5-.45.63-.77,1.03-.94,1.21l-.54-.39c-.6-.43-1.05-.78-1.35-1.04-.18-.15-.28-.24-.29-.28-.02-.04-.01-.1.01-.16.02-.06.13-.24.33-.55l-.42-.3c-.22.36-.49.76-.81,1.21-.36.5-.71.96-1.06,1.38l.42.3c.19-.25.32-.4.37-.45Z"/>
  <path class="st0" d="M18.4,24.72s.08,0,.11,0c.09.04.3.21.62.52.48.45.76.7.83.77l1.86,1.84c.21.21.55.56,1.01,1.05.25.27.42.47.53.59,0,.17-.04.37-.1.58l.22.22c.71-.76,1.09-1.17,1.15-1.23.21-.21.61-.6,1.18-1.16l.58-.56c.28-.28.48-.51.61-.69v-.1c-.36-.35-.78-.82-1.28-1.41l-.29.29c.32.41.53.71.62.88.02.05.04.09.03.12-.01.09-.12.25-.31.48-.2.24-.42.49-.68.74-.26.26-.5.48-.71.65-.15-.12-.33-.28-.52-.47l-1.73-1.71c.13-.17.31-.38.54-.61.26-.26.48-.46.68-.6.09-.06.17-.08.26-.05.11.03.33.21.64.53l.29-.29-.93-.87-.89-.92-.29.29c.24.25.4.44.48.57.03.05.04.1.04.14,0,.04-.07.13-.2.26-.33.35-.52.56-.57.61-.17.18-.35.33-.53.47l-.85-.84c-.48-.47-.86-.88-1.15-1.22.2-.25.4-.47.61-.69.23-.23.47-.45.74-.65.18-.14.29-.21.35-.22.04,0,.08.01.12.04.09.06.3.24.63.56l.28-.28c-.33-.37-.52-.58-.56-.62l-.53-.65-.08-.03c-.07.04-.12.07-.15.09-.27.25-.45.42-.53.5l-.7.75c-.39.41-.74.78-1.07,1.11-.15.15-.31.31-.47.48l-.81.84.31.31c.29-.26.48-.4.57-.43Z"/>
  <path class="st0" d="M23.05,20.17c.07-.05.14-.08.19-.08.04,0,.07,0,.11.03.07.04.24.21.5.51.27.3.56.64.88,1.03l2.92,3.5c.06.07.34.42.86,1.06.26.32.42.54.47.66.05.12.08.22.06.32-.01.1-.07.19-.17.27-.09.07-.19.12-.31.15-.12.02-.29.02-.52,0l-.04.13c.28.34.5.61.67.82.14-.04.27-.11.37-.19.14-.12.26-.28.35-.5.1-.21.17-.47.21-.76.04-.3.05-.58.03-.85-.04-.4-.14-.77-.3-1.12-.16-.35-.45-.76-.85-1.25l-1.6-1.9-1.36-1.62c-.37-.44-.64-.78-.83-1.04-.08-.12-.13-.21-.13-.28,0-.07.02-.14.08-.21.05-.05.2-.2.45-.43l-.33-.4c-.28.28-.63.59-1.06.95-.51.42-1.02.83-1.54,1.22l.33.4.55-.42Z"/>
  <path class="st0" d="M26.22,17.55c.09.01.15.03.19.05.07.05.15.14.26.28.26.35.54.75.84,1.2l.82,1.23.62.93c.34.51.56.82.65.92.14.17.33.33.55.48.22.14.48.24.75.29.28.05.59.03.92-.05.46-.11.9-.31,1.32-.6.36-.24.65-.5.87-.78.21-.27.36-.57.45-.88.08-.31.11-.62.07-.91-.04-.29-.14-.61-.31-.94-.17-.33-.36-.65-.55-.94l-.76-1.14c-.23-.34-.52-.8-.89-1.4-.37-.6-.57-.94-.59-1.02-.03-.09-.03-.15-.02-.2.03-.09.18-.23.44-.4l-.27-.41-.9.65s-.08.07-.11.08c-.1.06-.4.25-.92.56l.27.41c.3-.19.52-.29.65-.29.06,0,.12.01.17.05.08.06.27.3.55.7.14.18.5.69,1.07,1.54l.66.99c.46.69.72,1.19.79,1.5.07.31.03.62-.1.93-.13.31-.39.59-.78.86-.34.23-.66.36-.96.39-.3.03-.56,0-.79-.12-.23-.11-.46-.31-.69-.6-.11-.13-.36-.49-.75-1.08l-.38-.56-.75-1.12c-.46-.68-.73-1.13-.83-1.36-.04-.09-.05-.17-.03-.23.04-.12.21-.28.52-.48l-.27-.41-.15.11-.55.4-.55.39-1.38.87.27.41.6-.3Z"/>
  <path class="st0" d="M35.47,11.82c.07-.01.13-.01.17,0,.04.01.08.04.11.09.07.09.2.34.38.73l.49,1.04,1.1,2.49.44,1.07c.17.39.26.64.28.76,0,.06,0,.1-.02.14-.02.04-.06.08-.11.12-.06.04-.23.13-.52.27l.21.47c.49-.25,1.01-.5,1.57-.75.5-.22.95-.4,1.35-.54l-.21-.48c-.34.13-.53.2-.59.21-.06,0-.1,0-.13-.01-.03-.01-.06-.04-.09-.07-.04-.06-.17-.32-.41-.78-.09-.14-.25-.49-.5-1.05l-.49-1.11c.09-.06.18-.11.27-.16.23-.11.71-.33,1.42-.64.75-.33,1.2-.51,1.37-.55l.49,1.11c.3.68.52,1.2.66,1.57.08.22.11.35.1.4-.01.05-.04.09-.09.13-.05.04-.24.14-.57.3l.21.48c.37-.2.81-.41,1.31-.63.52-.23,1.02-.43,1.51-.62l-.13-.45s.03-.01.05-.02l-.02-.05c-.29.12-.48.19-.54.2-.07.01-.12.01-.17,0-.04-.01-.08-.04-.12-.09-.07-.09-.2-.33-.38-.73l-.48-1.03-1.1-2.49-.45-1.07c-.16-.39-.26-.64-.27-.76-.01-.05,0-.1.01-.14.02-.04.06-.08.12-.12.06-.04.23-.13.51-.26l-.21-.47c-.49.25-1.02.5-1.58.75-.5.22-.95.4-1.35.54l.21.47c.34-.13.54-.21.61-.21.06,0,.11,0,.14,0,.03.01.06.04.08.08.04.05.18.31.41.77.08.15.23.5.48,1.05l.27.61c-.2.12-.75.38-1.65.78-.71.31-1.18.51-1.42.58l-.27-.61c-.3-.68-.51-1.21-.64-1.58-.08-.22-.12-.35-.11-.39,0-.05.04-.09.09-.13.05-.04.24-.14.56-.3l-.21-.48c-.37.2-.81.41-1.31.63-.56.25-1.1.47-1.61.66l.21.47c.29-.12.48-.19.55-.2Z"/>
  <path class="st0" d="M45.2,15.83v.02s1.1-.38,1.1-.38l1.13-.29-.14-.47c-.39.1-.63.14-.72.11-.06-.02-.11-.08-.13-.17-.04-.13-.05-.47-.05-1.03l.02-.73,2.49-.74.78,1.1c.14.19.22.33.25.42.02.07.01.13-.03.18-.04.05-.25.14-.64.27l.14.47,1.69-.55,1.36-.35-.14-.47c-.1.02-.17.03-.22.04-.16.03-.25.05-.3.05-.04,0-.08-.02-.12-.04-.04-.02-.08-.06-.13-.12l-.35-.45-.53-.67-3.9-5.18-.68.2-.05,1.39-.2,3.97c-.04.75-.06,1.25-.07,1.51-.04.55-.07.86-.08.95-.02.09-.03.15-.06.2-.02.05-.06.08-.11.12-.04.03-.18.09-.4.18l.19.43s-.07.03-.11.04ZM46.57,9.01l1.89,2.56c-.29.11-.61.22-.99.33-.38.11-.73.21-1.04.28l.14-3.17Z"/>
  <path class="st0" d="M45.2,15.83s.07-.03.11-.04l-.19-.43s-.03.01-.05.02l.13.45Z"/>
  <path class="st0" d="M51.86,6.2s.07.05.09.09c.05.1.15.5.3,1.22.06.28.2,1.02.43,2.23.15.82.28,1.52.38,2.11.1.59.15.93.15,1.03,0,.02,0,.05-.01.07-.01.03-.05.08-.11.14-.14.14-.25.23-.33.29l.06.29c.66-.16,1.15-.26,1.47-.33.21-.04.59-.1,1.14-.19.72-.12,1.11-.18,1.17-.19.42-.08.73-.15.93-.21.09-.03.19-.07.28-.12-.01-.07-.04-.29-.08-.66l-.09-1.18s-.01-.08-.02-.19l-.42.08c0,.39,0,.73,0,1.03,0,.12-.02.2-.05.23-.02.03-.1.07-.23.12-.36.14-.79.26-1.29.36-.17.03-.48.07-.94.13-.03-.11-.1-.44-.2-.97-.1-.53-.21-1.07-.32-1.62-.2-1.03-.3-1.58-.32-1.65-.12-.64-.21-1.17-.28-1.59-.07-.42-.1-.66-.09-.71,0-.05.03-.1.06-.13.08-.07.3-.14.68-.23l-.1-.51c-.54.13-1.1.26-1.7.37-.54.1-1.03.18-1.45.23l.1.51c.44-.06.7-.07.78-.03Z"/>
  <path class="st0" d="M58.2,5.12s.06.05.09.1c.04.1.1.51.19,1.24.04.29.12,1.04.24,2.26.08.83.15,1.54.2,2.14.05.59.07.94.06,1.04,0,.02,0,.04-.02.07-.02.03-.06.08-.12.13-.15.12-.27.21-.35.26l.03.3c.67-.1,1.17-.16,1.49-.2.22-.02.6-.05,1.15-.09.73-.05,1.13-.08,1.18-.09.43-.04.74-.08.95-.12.1-.02.19-.05.29-.09,0-.07-.02-.29-.02-.66v-1.18s0-.08.01-.19l-.42.04c-.03.39-.06.73-.1,1.03-.02.12-.04.19-.07.22-.02.03-.1.06-.23.1-.37.11-.81.19-1.31.24-.17.02-.48.03-.94.05-.02-.11-.06-.44-.11-.99-.06-.54-.12-1.09-.18-1.64-.11-1.05-.17-1.6-.17-1.67-.06-.65-.11-1.18-.14-1.61-.03-.42-.04-.67-.03-.72.01-.05.04-.09.07-.12.08-.06.31-.12.7-.17l-.05-.52c-.55.09-1.12.16-1.73.22-.55.05-1.04.09-1.47.1l.05.52c.44-.02.7-.01.78.04Z"/>
  <path class="st0" d="M66.1,12.06v-.49c-.4-.02-.64-.05-.72-.1-.05-.04-.08-.11-.08-.2,0-.13.08-.46.25-1l.23-.7h2.6s.44,1.27.44,1.27c.08.22.12.38.12.48,0,.08-.03.13-.08.17-.05.03-.28.06-.69.08v.49s1.77-.05,1.77-.05l1.4.04v-.49c-.1-.01-.17-.02-.22-.03-.16-.01-.26-.03-.3-.04-.04-.02-.07-.04-.1-.07-.03-.03-.06-.08-.09-.15l-.21-.54-.32-.8-2.27-6.07h-.71s-.44,1.32-.44,1.32l-1.31,3.75c-.25.71-.41,1.19-.5,1.43-.19.51-.31.81-.35.89-.04.08-.08.14-.11.18-.04.04-.08.06-.13.08-.05.02-.21.04-.48.06v.49l1.16-.05,1.16.04ZM67.02,5.9l1.09,2.99c-.31.02-.65.03-1.04.03-.4,0-.76,0-1.07-.03l1.02-3Z"/>
  <path class="st0" d="M75.21,4.94c.02.08.02.21,0,.38-.04.43-.1.92-.17,1.46l-.2,1.47-.16,1.11c-.08.61-.13.98-.13,1.12,0,.23.02.47.1.72.07.25.2.49.37.72.18.22.42.41.72.57.41.22.88.36,1.38.43.43.06.82.06,1.17,0,.34-.06.65-.18.92-.36.27-.18.49-.39.66-.63.17-.24.3-.55.39-.91.09-.36.17-.72.21-1.06l.19-1.35c.06-.4.14-.94.27-1.63.12-.69.2-1.07.24-1.16.04-.08.08-.14.12-.16.09-.05.29-.05.6,0l.07-.48-1.11-.11c-.06,0-.11,0-.13-.01-.11-.02-.47-.08-1.06-.2l-.07.48c.35.06.58.13.68.21.05.04.08.09.09.15.02.1,0,.4-.06.89-.01.23-.09.85-.23,1.86l-.16,1.18c-.12.82-.25,1.37-.41,1.64-.16.28-.39.49-.69.63-.3.14-.69.18-1.16.12-.41-.06-.73-.17-.98-.35-.24-.17-.41-.38-.51-.62-.1-.24-.13-.54-.11-.91,0-.17.06-.6.16-1.31l.09-.68.19-1.34c.11-.81.21-1.33.28-1.57.03-.1.08-.16.13-.19.11-.06.34-.06.71-.01l.07-.48-.19-.02-.67-.07-.67-.08-1.61-.27-.07.48.64.17c.06.07.09.12.11.17Z"/>
  <path class="st0" d="M81.81,12.79s-.07.04-.11.05c-.06,0-.29-.03-.67-.11l-.13.5c.55.11.98.21,1.29.29.09.02.44.13,1.05.31l.13-.49s-.08-.02-.1-.02c-.1-.03-.25-.08-.45-.17-.08-.03-.13-.07-.15-.1-.02-.04-.04-.08-.04-.13,0-.1.05-.37.15-.81.14-.63.29-1.24.45-1.82l.74-2.8c1.21,3.23,2.17,5.65,2.86,7.29.27.12.53.24.78.37l.08-.03c.1-.54.48-2.07,1.14-4.57.09-.32.22-.81.41-1.48.19-.67.34-1.09.44-1.26.02-.04.05-.06.08-.07.09-.04.34,0,.73.09l.12-.47c-.52-.1-.94-.2-1.26-.28-.33-.09-.69-.2-1.08-.33l-.12.47c.43.12.67.23.73.31.04.05.04.15.02.29-.06.37-.35,1.56-.88,3.58l-.34,1.3c-.31-.66-.68-1.55-1.11-2.68-.6-1.57-1.11-2.95-1.51-4.14l-.46-.1-.72-.16c-.2-.05-.5-.15-.9-.29l-.12.47c.33.12.53.2.6.24.06.04.11.09.13.13.02.05.03.11.02.2,0,.09-.04.27-.11.54l-.4,1.64-.47,1.8c-.13.5-.25.9-.34,1.21-.17.54-.28.88-.34,1.02-.04.1-.08.16-.11.19Z"/>
  <path class="st0" d="M91.28,11.04l-.83,2.28c-.13.37-.29.77-.47,1.2-.13.29-.2.46-.23.5-.02.03-.05.05-.08.07-.03.02-.09.02-.16,0-.06,0-.25-.06-.59-.17l-.18.49c.41.11.87.26,1.37.45.58.21,1.12.43,1.63.64l.18-.49c-.3-.12-.48-.2-.54-.24-.06-.04-.1-.08-.12-.12-.02-.04-.03-.08-.02-.14,0-.12.08-.37.22-.75l.33-1.01.8-2.2c.02-.07.21-.55.54-1.44.1-.26.17-.44.21-.53.07-.17.13-.29.17-.34.02-.03.05-.06.09-.07.03-.01.08-.02.15-.01.07,0,.26.06.59.17l.18-.49c-.53-.16-1.08-.34-1.66-.55-.51-.19-.96-.37-1.35-.54l-.18.49c.33.14.52.22.57.26.05.04.08.07.09.1,0,.03.01.07,0,.12-.02.12-.1.42-.26.89-.06.21-.22.68-.48,1.41Z"/>
  <path class="st0" d="M95.22,15.53c-.08.77-.16,1.59-.25,2.45l.7.33c.47-.51,1.31-1.37,2.51-2.57l1.41-1.4.74-.72c.6-.6.96-.92,1.08-.95.07-.02.26.02.57.13l.22-.47-1-.42-1.14-.59-.22.47c.13.07.3.16.49.28.08.05.13.08.15.1.02.03.03.06.03.1,0,.04-.01.09-.04.15-.02.04-.04.08-.07.12-.1.13-.31.37-.65.73-.48.51-.74.79-.8.84l-2.38,2.42.38-3.8s.01-.08.02-.11c0-.03.02-.23.06-.61.07-.66.12-1.04.17-1.14.03-.05.06-.09.1-.11.04-.02.1-.02.18-.01.13.02.32.09.58.21l.22-.47-1.66-.73c-.16-.07-.6-.3-1.31-.67l-.22.47c.28.14.45.26.52.36.04.07.06.26.05.59-.01.32-.1,1.31-.25,2.94l-.19,2.09Z"/>
  <path class="st0" d="M102.28,15.49l-1.39,2.22c-.16.26-.43.66-.81,1.21-.21.3-.36.52-.46.64-.17.03-.37.04-.59.03l-.17.27c.9.52,1.39.81,1.45.85.26.16.72.46,1.39.9l.67.45c.34.21.61.36.8.45l.09-.03c.26-.42.63-.94,1.1-1.55l-.35-.22c-.33.41-.57.67-.72.8-.05.04-.08.05-.11.05-.09,0-.27-.06-.54-.2-.27-.14-.57-.3-.87-.5-.32-.2-.58-.38-.79-.55.09-.18.2-.38.34-.61l1.29-2.06c.2.09.44.22.72.39.31.2.56.37.73.53.08.07.12.15.11.24,0,.12-.13.37-.37.74l.35.22.65-1.1.7-1.07-.35-.22c-.19.29-.34.49-.45.59-.04.04-.09.06-.13.07-.04,0-.14-.04-.29-.14-.42-.24-.66-.38-.72-.42-.21-.13-.4-.27-.58-.42l.63-1.01c.36-.57.67-1.03.94-1.38.28.14.55.29.8.45.27.17.54.36.8.58.18.14.27.24.29.29,0,.03,0,.08-.01.13-.04.1-.17.35-.41.74l.33.21c.29-.41.45-.63.49-.68l.52-.66v-.08c-.04-.06-.08-.1-.11-.12-.3-.21-.51-.34-.61-.41l-.88-.52c-.49-.29-.92-.56-1.31-.8-.18-.11-.37-.23-.57-.35l-1-.61-.23.37c.31.22.5.38.55.46.02.03.02.07.02.11-.02.1-.14.34-.37.72-.33.57-.52.89-.58.98Z"/>
  <path class="st0" d="M105.16,22.14c-.2.23-.36.4-.47.5-.06.06-.1.09-.13.1-.03,0-.07,0-.1,0-.07-.02-.26-.15-.56-.37l-.33.4c.36.25.75.54,1.15.87.46.37.9.74,1.33,1.13l.33-.4c-.25-.21-.39-.34-.43-.4-.04-.05-.07-.1-.07-.14,0-.04-.01-.08,0-.11.02-.07.1-.19.23-.36.06-.09.34-.45.83-1.08.4-.51.78-1,1.15-1.45.23-.29.7-.85,1.4-1.7.32-.37.52-.61.62-.71.14.07.27.16.4.26.28.23.46.41.53.54.11.21.15.45.11.73-.03.28-.16.56-.39.84-.22.28-.48.48-.77.62-.29.13-.55.18-.78.14-.23-.04-.5-.2-.8-.46l-.17.11c.02.13.02.29,0,.5-.04.4-.13.92-.26,1.58l-.46,2.27c-.04.15-.07.26-.11.33.23.14.44.3.65.47.18.15.46.39.85.74l.33-.4c-.12-.1-.19-.18-.21-.23-.02-.06-.04-.13-.04-.22,0-.09.02-.36.07-.82,0-.03.04-.25.1-.66l.24-1.53s.01-.08.02-.12c0-.04.03-.17.06-.38.03-.21.07-.41.11-.59.55.15,1.04.16,1.48.01.44-.14.8-.4,1.1-.76.25-.31.39-.63.42-.96.03-.33-.03-.61-.18-.84-.15-.23-.43-.51-.84-.84-.21-.17-.48-.38-.82-.62-.21-.14-.45-.32-.72-.54-.32-.26-.56-.46-.73-.61-.34-.3-.54-.48-.6-.53l-.3.37c.29.28.45.46.49.54.01.04,0,.08,0,.12-.04.1-.2.33-.5.72l-.75.98-1.36,1.69-1.09,1.31Z"/>
  <path class="st0" d="M112.34,24.8c-.02.26.04.53.17.81.08.18.28.55.6,1.09.21.39.34.68.38.87.04.19.02.38-.05.56-.07.18-.2.35-.38.52-.21.2-.44.34-.68.42-.24.08-.5.07-.76-.02-.27-.09-.51-.25-.73-.48-.25-.26-.42-.57-.5-.92-.08-.35-.08-.65,0-.91.27-.32.51-.57.72-.76l-.3-.32c-.66.62-1.18,1.05-1.57,1.28.11.43.25.79.4,1.09.16.29.38.59.67.89.39.41.79.7,1.21.86.26.1.56.16.89.17.33.01.65-.03.95-.13.4-.13.77-.37,1.14-.71.2-.2.37-.39.49-.6.12-.2.2-.39.24-.57.04-.18.05-.36.01-.56-.03-.2-.11-.43-.24-.68-.05-.09-.17-.29-.36-.59-.19-.3-.33-.54-.43-.71-.12-.24-.19-.44-.21-.6-.02-.16,0-.32.06-.48.07-.16.19-.33.38-.51.26-.25.57-.37.93-.38.36,0,.7.16,1.01.48.22.23.37.48.45.76.08.27.09.51.04.7-.12.15-.33.38-.66.7l.3.32c.29-.26.54-.47.73-.62.19-.15.39-.3.61-.44l.07-.13c-.07-.27-.19-.56-.37-.85-.18-.29-.39-.57-.64-.83-.23-.25-.5-.46-.79-.63-.29-.18-.6-.29-.92-.34-.32-.05-.67,0-1.05.14-.37.14-.72.36-1.03.66-.22.21-.4.45-.54.7-.13.25-.21.5-.23.76Z"/>
  <path class="st0" d="M115.34,30.47c-.31.24-.66.5-1.04.76-.26.18-.41.28-.46.3-.03.02-.07.02-.11.02-.04,0-.08-.03-.14-.08-.04-.04-.18-.19-.41-.46l-.41.32c.28.31.59.68.92,1.11.38.49.72.96,1.03,1.41l.41-.32c-.19-.26-.3-.42-.33-.48-.03-.06-.04-.12-.04-.16,0-.04.02-.09.06-.13.08-.1.27-.27.59-.52l.82-.68,1.85-1.43c.06-.05.47-.35,1.23-.93.22-.17.38-.28.46-.34.15-.11.26-.17.33-.19.04-.01.08-.02.11-.01.04,0,.08.03.13.07.05.04.19.19.41.45l.41-.32c-.36-.42-.73-.87-1.1-1.35-.33-.43-.62-.82-.85-1.18l-.41.32c.21.29.32.47.34.52.02.06.03.1.02.14-.01.03-.03.07-.07.1-.08.1-.31.3-.69.62-.16.15-.55.46-1.16.94l-1.92,1.49Z"/>
  <path class="st0" d="M120.38,31.03c.29-.17.56-.3.82-.4.1-.04.17-.06.2-.05.02,0,.07.05.14.14.16.22.34.48.52.79l.37.61c-.09.08-.54.36-1.35.85l-2.99,1.8c-.72.43-1.16.68-1.32.73-.11.03-.2.03-.28-.01-.08-.04-.23-.23-.45-.57l-.4.24c.35.51.64.98.89,1.39.23.38.5.86.8,1.43l.4-.24c-.2-.36-.29-.58-.29-.67,0-.09.04-.17.11-.25.13-.12.56-.39,1.28-.82l2.99-1.8c.8-.48,1.25-.75,1.37-.81l.37.62c.2.33.36.62.47.87.04.08.06.13.05.16-.01.03-.07.09-.18.18-.21.17-.45.34-.71.5l.22.36c.71-.41,1.08-.62,1.1-.63.16-.08.34-.18.56-.27l.03-.07c-.1-.13-.19-.26-.27-.39-.16-.24-.45-.72-.89-1.45l-1.05-1.75c-.42-.7-.7-1.18-.85-1.44-.09-.16-.16-.31-.23-.45h-.07c-.16.12-.31.23-.45.32-.08.06-.46.29-1.13.72l.22.36Z"/>
  <path class="st0" d="M125.31,36.1l-.41.16c.04.09.06.16.08.22.12-.14.23-.26.33-.38h0Z"/>
  <path class="st0" d="M127.78,42.3l.24-.1-.3-.76c-.12,0-.39-.02-.8-.06-.14-.01-.25-.02-.38-.03-.19.21-.38.43-.57.64.65.1,1.27.2,1.8.3Z"/>
  <path class="st0" d="M119.96,41.25c-.19.06-.3.09-.34.08-.05,0-.09-.04-.13-.09-.04-.05-.14-.25-.29-.6l-.48.19c.17.36.32.73.47,1.09.29-.24.57-.47.84-.69-.02,0-.04.01-.06.02Z"/>
  <path class="st0" d="M119.9,43.85l.48-.19c-.13-.35-.2-.56-.2-.64,0-.07,0-.13.04-.18.03-.05.15-.12.35-.22.2-.1.53-.25.99-.43l.91-.36c.19-.07.33-.12.42-.13.12-.02.28-.03.46-.02.27.02.89.09,1.86.21.27.04.51.07.76.11.18-.2.38-.42.57-.64-.96-.07-1.57-.12-1.78-.14l-1.33-.15c.15-.15.56-.56,1.23-1.25.42-.43.78-.83,1.08-1.22.2-.26.34-.45.4-.57.06-.13.11-.31.16-.55-.13-.16-.25-.31-.36-.46l-.63-.9c-.1.12-.21.24-.33.38.03.1.06.18.05.21-.01.08-.08.24-.22.48-.2.35-.49.76-.87,1.24-.47.57-.95,1.13-1.45,1.67-.21.22-.36.35-.44.38l-1.03.41c-.27.11-.61.23-1,.36-.27.23-.55.46-.84.69.04.1.09.2.13.31.19.48.39,1.02.59,1.62Z"/>
  <path class="st0" d="M15.36,41.4c.44-.12.85-.33,1.22-.63.47-.38.85-.89,1.16-1.53.21-.45.35-.85.41-1.19.06-.34.06-.76,0-1.25l-.43-.46-.18.06c.04.42.04.78-.01,1.09-.05.31-.15.62-.29.93-.22.47-.5.83-.82,1.08-.24.19-.56.33-.95.44s-.83.13-1.32.08c-.49-.06-1.02-.22-1.58-.49-.12-.06-.23-.12-.34-.19.72.68,1.55,1.41,2.49,2.18.21-.02.43-.06.64-.12Z"/>
  <path class="st0" d="M10.71,35.76c.19-.4.4-.69.64-.89.24-.2.53-.34.87-.43.24.09.55.23.94.41l.17-.36c-.33-.17-.68-.37-1.05-.6-.23-.14-.42-.28-.56-.4h-.08c-.38.34-.68.66-.91.95-.22.29-.43.64-.63,1.05-.21.44-.33.87-.41,1.28.28.31.61.66.98,1.04-.31-.67-.3-1.35.03-2.06Z"/>
  <path class="st0" d="M9.84,38.76c.39.98,1.14,1.74,2.25,2.26.65.31,1.3.48,1.96.51.22.02.45,0,.67-.02-.94-.78-1.77-1.51-2.49-2.18-.74-.41-1.27-.9-1.55-1.49,0,0,0-.02,0-.02-.37-.38-.7-.73-.98-1.04-.13.7-.09,1.36.15,1.98Z"/>
  <path class="st0" d="M36.73,92.89c.03-.38.01-.74-.04-1.1-.74-.33-1.54-.69-2.29-1.06,1.17,1.44,2.33,2.16,2.33,2.16Z"/>
  <path class="st0" d="M32.08,85.4c.3,2.27,1.28,4.02,2.26,5.25.06-.1.43-.75,1.16-1.85-1.39-2.05-3.42-3.4-3.42-3.4Z"/>
  <path class="st0" d="M34.34,90.65s.04.05.07.08c.76.36,1.55.72,2.29,1.06-.14-1.09-.61-2.11-1.2-2.99-.73,1.1-1.1,1.75-1.16,1.85Z"/>
  <path class="st0" d="M39.37,92.95c1.4,1.5,2.78,2.17,2.78,2.17-.02-1.29-.54-2.44-1.24-3.42-.33.48-.67.97-.99,1.48,0,0-.2-.08-.55-.23Z"/>
  <path class="st0" d="M36.74,88.12c.51,2.12,1.58,3.71,2.63,4.83.34.15.55.23.55.23.33-.51.66-1,.99-1.48-1.6-2.23-4.17-3.58-4.17-3.58Z"/>
  <path class="st0" d="M41.98,90.45c1.65,4.81,6.07,6.5,6.07,6.5-.47-4.18-6.07-6.5-6.07-6.5Z"/>
  <path class="st0" d="M97.55,93.07s1.27-.78,2.5-2.37c-.81.39-1.66.78-2.45,1.13-.06.4-.09.82-.05,1.24Z"/>
  <path class="st0" d="M102.21,85.59s-1.95,1.28-3.33,3.26c.78,1.15,1.17,1.8,1.19,1.84.94-1.22,1.86-2.92,2.14-5.09Z"/>
  <path class="st0" d="M100.05,90.7s.01-.02.02-.02c-.02-.03-.41-.69-1.19-1.84-.61.88-1.1,1.89-1.27,2.99.79-.35,1.64-.74,2.45-1.13Z"/>
  <path class="st0" d="M93.51,91.7c-.78,1.02-1.36,2.24-1.38,3.61,0,0,1.5-.74,2.96-2.37-.36.16-.58.25-.58.25-.33-.51-.66-1-.99-1.48Z"/>
  <path class="st0" d="M93.51,91.7c.34.48.67.98.99,1.48,0,0,.22-.09.58-.25,1-1.11,1.98-2.63,2.46-4.63,0,0-2.43,1.28-4.03,3.4Z"/>
  <path class="st0" d="M92.3,90.64s-5.59,2.32-6.06,6.5c0,0,4.42-1.69,6.06-6.5Z"/>
</svg>