<svg width="280" height="32" viewBox="0 0 280 32" fill="none" xmlns="http://www.w3.org/2000/svg">
<path d="M29.3828 0H27.6544H25.926H24.1976H22.4692H20.7408H19.0125V1.6V3.2H17.2841V4.8V6.4V8H19.0125V9.6H17.2841V11.2V12.8V14.4V16V17.6H15.5557V19.2V20.8H17.2841H19.0125V22.4H17.2841V24V25.6V27.2V28.8H19.0125V30.4V32H20.7408H22.4692H24.1976H25.926H27.6544H29.3828V30.4H31.1112V28.8V27.2V25.6H29.3828V27.2H27.6544V28.8V30.4H25.926H24.1976V28.8V27.2H22.4692V25.6V24V22.4H24.1976V20.8H22.4692H20.7408V19.2V17.6H22.4692H24.1976H25.926H27.6544V16H29.3828V14.4H27.6544H25.926H24.1976H22.4692V12.8V11.2V9.6H24.1976V8H22.4692V6.4V4.8H24.1976V3.2V1.6H25.926H27.6544V3.2V4.8H29.3828V6.4H31.1112V4.8V3.2V1.6H29.3828V0Z" fill="#6DF2CC"/>
<path d="M44.9381 0H43.2097H41.4813H39.7529H38.0245H36.2961H34.5678V1.6H36.2961H38.0245H39.7529H41.4813V3.2V4.8V6.4V8H43.2097V9.6H41.4813V11.2V12.8V14.4V16V17.6H39.7529V19.2V20.8H41.4813H43.2097V22.4H41.4813V24V25.6V27.2V28.8V30.4H39.7529H38.0245V28.8V27.2H36.2961V25.6V24V22.4H34.5678H32.8394V24V25.6V27.2H34.5678V28.8V30.4H36.2961V32H38.0245H39.7529H41.4813H43.2097V30.4H44.9381V28.8H46.6665V27.2V25.6V24V22.4H48.3949V20.8H46.6665H44.9381V19.2V17.6H46.6665V16V14.4V12.8V11.2V9.6H48.3949V8H46.6665V6.4V4.8V3.2V1.6H48.3949V0H46.6665H44.9381Z" fill="#6DF2CC"/>
<path d="M65.6788 0H63.9504H62.222H60.4937V1.6H62.222V3.2V4.8V6.4V8H63.9504V9.6H62.222V11.2V12.8V14.4V16V17.6H60.4937V19.2V20.8H62.222H63.9504V22.4H62.222V24V25.6V27.2V28.8V30.4H63.9504H65.6788V28.8H67.4072V27.2V25.6V24V22.4H69.1356V20.8H67.4072H65.6788V19.2V17.6H67.4072V16V14.4V12.8V11.2V9.6H69.1356V8H67.4072V6.4V4.8V3.2V1.6H69.1356V0H67.4072H65.6788Z" fill="#6DF2CC"/>
<path d="M100.247 0H98.5183H96.7899H95.0615V1.6H96.7899V3.2V4.8V6.4V8H98.5183V9.6H96.7899V11.2V12.8V14.4V16V17.6H95.0615V19.2V20.8H96.7899H98.5183V22.4H96.7899V24V25.6V27.2V28.8V30.4H95.0615V32H96.7899H98.5183H100.247H101.975H103.703V30.4H101.975V28.8V27.2V25.6V24V22.4H103.703V20.8H101.975H100.247V19.2V17.6H101.975V16V14.4V12.8V11.2V9.6H103.703V8H101.975V6.4V4.8V3.2V1.6H103.703V0H101.975H100.247Z" fill="#6DF2CC"/>
<path d="M136.543 1.6H138.272V0H136.543H134.815H133.086V1.6H134.815H136.543Z" fill="#6DF2CC"/>
<path d="M191.852 0H190.124H188.395H186.667H184.938H183.21H181.482V1.6V3.2H179.753V4.8V6.4V8H181.482V9.6H179.753V11.2V12.8V14.4V16V17.6H178.025V19.2V20.8H179.753H181.482V22.4H179.753V24V25.6V27.2V28.8H181.482V30.4V32H183.21H184.938H186.667H188.395H190.124H191.852V30.4H193.58V28.8V27.2V25.6H191.852V27.2H190.124V28.8V30.4H188.395H186.667V28.8V27.2H184.938V25.6V24V22.4H186.667V20.8H184.938H183.21V19.2V17.6H184.938H186.667H188.395H190.124V16H191.852V14.4H190.124H188.395H186.667H184.938V12.8V11.2V9.6H186.667V8H184.938V6.4V4.8H186.667V3.2V1.6H188.395H190.124V3.2V4.8H191.852V6.4H193.58V4.8V3.2V1.6H191.852V0Z" fill="#6DF2CC"/>
<path d="M278.271 1.6V0H276.543H274.815H273.086H271.358H269.63H267.901V1.6V3.2H266.173V4.8V6.4V8H267.901V9.6H266.173V11.2V12.8V14.4V16V17.6H264.444V19.2V20.8H266.173H267.901V22.4H266.173V24V25.6V27.2V28.8H267.901V30.4V32H269.63H271.358H273.086H274.815H276.543H278.271V30.4H280V28.8V27.2V25.6H278.271V27.2H276.543V28.8V30.4H274.815H273.086V28.8V27.2H271.358V25.6V24V22.4H273.086V20.8H271.358H269.63V19.2V17.6H271.358H273.086H274.815H276.543V16H278.271V14.4H276.543H274.815H273.086H271.358V12.8V11.2V9.6H273.086V8H271.358V6.4V4.8H273.086V3.2V1.6H274.815H276.543V3.2V4.8H278.271V6.4H280V4.8V3.2V1.6H278.271Z" fill="#6DF2CC"/>
<path d="M178.025 6.4V4.8V3.2V1.6H176.296V0H174.568H172.84H171.111H169.383H167.654H165.926V1.6V3.2H164.198V4.8V6.4V8H165.926V9.6H164.198V11.2V12.8V14.4H162.469V16V17.6V19.2V20.8H164.198H165.926V22.4H164.198V24V25.6V27.2V28.8V30.4H162.469V32H164.198H165.926H167.654H169.383H171.111H172.84V30.4H171.111H169.383V28.8V27.2V25.6V24V22.4H171.111V20.8H169.383H167.654V19.2V17.6H169.383H171.111H172.84H174.568V16H176.296V14.4H174.568H172.84H171.111H169.383V12.8V11.2V9.6H171.111V8H169.383V6.4V4.8H171.111V3.2V1.6H172.84H174.568V3.2V4.8H176.296V6.4H178.025Z" fill="#6DF2CC"/>
<path d="M126.173 8V6.4V4.8H124.444V3.2V1.6H122.716V0H120.987H119.259H117.531H115.802V1.6H114.074V3.2H112.345V4.8V6.4H110.617V8H112.345V9.6H110.617V11.2V12.8V14.4V16V17.6H108.889V19.2V20.8H110.617H112.345V22.4H110.617V24V25.6H112.345V27.2V28.8H114.074V30.4H115.802V32H117.531H119.259H120.987H122.716V30.4H124.444V28.8V27.2H126.173V25.6V24V22.4H124.444H122.716V24V25.6V27.2H120.987V28.8V30.4H119.259H117.531V28.8V27.2H115.802V25.6V24V22.4H117.531V20.8H115.802H114.074V19.2V17.6H115.802V16V14.4V12.8V11.2V9.6H117.531V8H115.802V6.4V4.8H117.531V3.2V1.6H119.259H120.987V3.2V4.8H122.716V6.4V8H124.444V9.6H126.173H127.901V8H126.173Z" fill="#6DF2CC"/>
<path d="M264.444 8V6.4V4.8H262.716V3.2V1.6H260.988V0H259.259H257.531H255.803H254.074V1.6H252.346V3.2H250.617V4.8V6.4H248.889V8H250.617V9.6H248.889V11.2V12.8V14.4V16V17.6H247.161V19.2V20.8H245.432V19.2V17.6H247.161V16V14.4V12.8V11.2V9.6H248.889V8H247.161V6.4V4.8V3.2V1.6H245.432V0H243.704V1.6H241.975V3.2V4.8V6.4V8H243.704V9.6H241.975V11.2V12.8V14.4V16V17.6H240.247V19.2H238.519V20.8H240.247H241.975V22.4H240.247V24V25.6H241.975V27.2V28.8V30.4H243.704V32H245.432V30.4H247.161V28.8V27.2V25.6V24V22.4H248.889V20.8H250.617V22.4H248.889V24V25.6H250.617V27.2V28.8H252.346V30.4H254.074V32H255.803H257.531H259.259H260.988V30.4H262.716V28.8V27.2H264.444V25.6V24V22.4H262.716H260.988V24V25.6V27.2H259.259V28.8V30.4H257.531H255.803V28.8V27.2H254.074V25.6V24V22.4H255.803V20.8H254.074H252.346V19.2V17.6H254.074V16V14.4V12.8V11.2V9.6H255.803V8H254.074V6.4V4.8H255.803V3.2V1.6H257.531H259.259V3.2V4.8H260.988V6.4V8H262.716V9.6H264.444H266.173V8H264.444Z" fill="#6DF2CC"/>
<path d="M152.099 16V17.6H153.827V16V14.4V12.8H152.099V14.4V16Z" fill="#6DF2CC"/>
<path d="M238.519 16V17.6H240.247V16V14.4V12.8H238.519V14.4V16Z" fill="#6DF2CC"/>
<path d="M152.099 17.6H150.371V19.2H152.099V17.6Z" fill="#6DF2CC"/>
<path d="M238.518 17.6H236.79V19.2H238.518V17.6Z" fill="#6DF2CC"/>
<path d="M12.0988 20.8V19.2V17.6H13.8272V16V14.4V12.8V11.2V9.6H15.5556V8H13.8272V6.4V4.8V3.2V1.6H15.5556V0H13.8272H12.0988H10.3704H8.64198H6.91358H5.18518H3.45679H1.72839V1.6H3.45679H5.18518H6.91358H8.64198V3.2V4.8V6.4V8H10.3704V9.6H8.64198V11.2V12.8V14.4V16V17.6H6.91358V19.2V20.8H8.64198H10.3704V22.4H8.64198V24V25.6V27.2V28.8V30.4H6.91358H5.18518V28.8V27.2H3.45679V25.6V24V22.4H1.72839H0V24V25.6V27.2H1.72839V28.8V30.4H3.45679V32H5.18518H6.91358H8.64198H10.3704V30.4H12.0988V28.8H13.8272V27.2V25.6V24V22.4H15.5556V20.8H13.8272H12.0988Z" fill="#6DF2CC"/>
<path d="M89.8764 20.8V17.6H91.6048V8H89.8764V4.8H88.148V1.6H86.4196V0H81.2344V1.6H79.506V4.8H77.7776V8H79.506V9.6H76.0492V17.6H74.3208V20.8H77.7776V22.4H76.0492V30.4H74.3208V32H82.9628V30.4H81.2344V22.4H82.9628V20.8H79.506V17.6H81.2344V16H86.4196V17.6H84.6912V20.8H88.148V22.4H86.4196V30.4H84.6912V32H93.3331V30.4H91.6048V22.4H93.3331V20.8H89.8764ZM84.6912 14.4H81.2344V9.6H82.9628V8H81.2344V4.8H82.9628V1.6H84.6912V4.8H86.4196V8H88.148V9.6H86.4196V14.4H84.6912Z" fill="#6DF2CC"/>
<path d="M148.642 20.8V19.2V17.6H150.37V16V14.4V12.8H152.099V11.2V9.6H153.827V8H152.099V6.4H150.37V4.8V3.2V1.6H148.642V0H146.913V1.6H145.185V3.2V4.8V6.4V8H146.913V9.6H145.185V11.2V12.8V14.4V16V17.6H143.457V19.2V20.8H141.728V19.2V17.6H143.457V16V14.4V12.8V11.2V9.6H145.185V8H143.457V6.4V4.8H141.728V3.2V1.6H140H138.271V3.2V4.8V6.4V8H140V9.6H138.271V11.2V12.8V14.4V16V17.6H136.543V19.2V20.8H138.271H140V22.4H138.271V24V25.6V27.2V28.8V30.4H140H141.728V28.8H143.457V27.2V25.6V24V22.4H145.185V20.8H146.913V22.4H145.185V24V25.6V27.2V28.8V30.4H146.913V32H148.642V30.4H150.37V28.8V27.2V25.6V24V22.4H152.099V20.8H150.37H148.642Z" fill="#6DF2CC"/>
<path d="M159.012 20.8V19.2V17.6H160.741V16V14.4V12.8V11.2V9.6H162.469V8H160.741V6.4V4.8V3.2V1.6H159.012V0H157.284V1.6H155.555V3.2V4.8V6.4V8H157.284V9.6H155.555V11.2V12.8V14.4V16V17.6H153.827V19.2H152.099V20.8H153.827H155.555V22.4H153.827V24V25.6H155.555V27.2V28.8V30.4H157.284V32H159.012V30.4H160.741V28.8V27.2V25.6V24V22.4H162.469V20.8H160.741H159.012Z" fill="#6DF2CC"/>
<path d="M210.864 20.8V19.2H209.136V14.4H210.864V12.8H212.593V9.6H214.321V8H212.593V3.2H210.864V1.6H209.136V0H198.765V1.6H197.037V8H198.765V9.6H197.037V17.6H195.309V20.8H198.765V22.4H197.037V30.4H195.309V32H203.951V30.4H202.222V22.4H203.951V20.8H200.494V17.6H203.951V19.2H205.679V20.8H209.136V22.4H207.407V30.4H205.679V32H214.321V30.4H212.593V22.4H214.321V20.8H210.864ZM205.679 1.6V3.2H207.407V4.8H209.136V8H210.864V9.6H209.136V11.2H207.407V12.8H205.679V14.4H202.222V9.6H203.951V8H202.222V3.2H203.951V1.6H205.679Z" fill="#6DF2CC"/>
<path d="M235.062 20.8V19.2V17.6H236.79V16V14.4V12.8H238.518V11.2V9.6H240.247V8H238.518V6.4H236.79V4.8V3.2V1.6H235.062V0H233.333V1.6H231.605V3.2V4.8V6.4V8H233.333V9.6H231.605V11.2V12.8V14.4V16V17.6H229.876V19.2V20.8H231.605H233.333V22.4H231.605V24V25.6V27.2V28.8V30.4H233.333V32H235.062V30.4H236.79V28.8V27.2V25.6V24V22.4H238.518V20.8H236.79H235.062Z" fill="#6DF2CC"/>
<path d="M228.148 27.2H226.42V28.8V30.4H224.691H222.963V28.8V27.2H221.234V25.6V24V22.4H222.963V20.8H221.234H219.506V19.2V17.6H221.234H222.963H224.691H226.42V16H228.148V14.4H226.42H224.691H222.963H221.234V12.8V11.2V9.6H222.963V8H221.234V6.4V4.8H222.963V3.2V1.6H224.691H226.42V3.2V4.8H228.148V6.4H229.876V4.8V3.2V1.6H228.148V0H226.42H224.691H222.963H221.234H219.506H217.778V1.6V3.2H216.049V4.8V6.4V8H217.778V9.6H216.049V11.2V12.8V14.4V16V17.6H214.321V19.2V20.8H216.049H217.778V22.4H216.049V24V25.6V27.2V28.8H217.778V30.4V32H219.506H221.234H222.963H224.691H226.42H228.148V30.4H229.876V28.8V27.2V25.6H228.148V27.2Z" fill="#6DF2CC"/>
<path d="M57.0371 27.2V25.6V24V22.4H58.7655V20.8H57.0371H55.3087V19.2V17.6H57.0371V16V14.4V12.8V11.2V9.6H58.7655V8H57.0371V6.4V4.8V3.2V1.6H58.7655V0H57.0371H55.3087H53.5803H51.8519H50.1235V1.6H51.8519V3.2V4.8V6.4V8H53.5803V9.6H51.8519V11.2V12.8V14.4V16V17.6H50.1235V19.2V20.8H51.8519H53.5803V22.4H51.8519V24V25.6V27.2V28.8H53.5803V30.4H55.3087H57.0371V28.8V27.2Z" fill="#6DF2CC"/>
<path d="M133.086 27.2V25.6V24V22.4H134.815V20.8H133.086H131.358V19.2V17.6H133.086V16V14.4V12.8V11.2V9.6H134.815V8H133.086V6.4V4.8V3.2V1.6H131.358H129.63V3.2V4.8H127.901V6.4V8H129.63V9.6H127.901V11.2V12.8V14.4V16V17.6H126.173V19.2V20.8H127.901H129.63V22.4H127.901V24V25.6V27.2V28.8H129.63V30.4H131.358H133.086V28.8V27.2Z" fill="#6DF2CC"/>
<path d="M58.7655 30.4H57.0371V32H58.7655H60.4939H62.2223V30.4H60.4939H58.7655Z" fill="#6DF2CC"/>
<path d="M134.815 30.4H133.086V32H134.815H136.543H138.272V30.4H136.543H134.815Z" fill="#6DF2CC"/>
</svg>
