<svg xmlns="http://www.w3.org/2000/svg" width="8rem" height="100%" viewBox="0 0 105 24" fill="none">
  <path fill-rule="evenodd" clip-rule="evenodd" d="M8.91748 3.81543L8.39999 5.60317H3.425L3.92986 3.81543H8.91748ZM0 9.36492H5.27514L5.27342 9.37124H5.19813L3.7214 14.5702C3.0777 16.7875 4.0685 18.4363 5.96173 18.4363C7.38797 18.4363 8.66905 17.5266 10.638 15.1387L10.5875 15.3346C10.0448 17.3055 10.7832 18.4363 12.607 18.4363C13.4983 18.4363 14.5587 18.0868 16.6556 16.9496L14.8984 23.0734H17.1892L19.2592 15.8656C19.4556 16.6901 19.8825 17.4416 20.4898 18.0323L20.698 18.2155L20.7485 18.2598L20.8684 18.3482C21.5736 18.8438 22.4177 19.1025 23.2791 19.0873C26.3714 19.0873 28.7127 16.4783 28.7127 13.0292C28.7127 10.0854 27.0151 8.00712 24.4277 8.00712C23.7822 8.01957 23.1468 8.17035 22.5644 8.44931C21.982 8.72827 21.4661 9.12893 21.0514 9.62429L21.1776 9.19473L21.6509 7.57124H16.8674L16.3499 9.37161H18.83L17.3203 14.6329C14.8936 16.0122 13.8713 16.4653 13.3327 16.4653C12.8152 16.4653 12.6385 16.1684 12.8152 15.5809L15.0871 7.57087H12.8152L11.0798 13.5847C9.13605 15.6757 8.15157 16.4653 7.1166 16.4653C6.08164 16.4653 5.71561 15.6568 6.08163 14.3491L7.95462 7.64337L7.97502 7.57087H7.97487H5.76566H0.504862L0 9.36492ZM20.3446 14.1284C20.3446 16.0551 21.4932 17.1795 23.0835 17.1795C25.0714 17.1795 26.5481 15.3665 26.5481 13.0039C26.5481 11.1214 25.4879 9.90856 23.8787 9.90856C21.8655 9.90856 20.3446 11.8984 20.3446 14.1284ZM42.3427 10.1806H45.4602V8.36757H42.3427V4.72261H42.2985L40.1339 6.40295V8.36757H38.3417V10.1806H40.1339V15.7902C40.1339 16.4977 40.1339 19.1066 43.0053 19.1066C43.8176 19.1365 44.6194 18.916 45.3025 18.4749V16.8198H45.2583C44.7841 17.0844 44.2545 17.2337 43.7122 17.2557C42.6078 17.2557 42.3427 16.4661 42.3427 14.9374V10.1806ZM29.7795 16.093V17.9882C30.9493 18.7272 32.3026 19.1233 33.6859 19.1316C35.8757 19.1316 37.5985 18.0008 37.5985 15.9035C37.5985 13.7723 35.6849 13.1627 34.0916 12.6551C32.9553 12.2931 31.982 11.9831 31.982 11.2099C31.982 10.4582 32.714 9.9465 33.9257 9.9465C35.0235 9.94811 36.0927 10.2975 36.9801 10.9446H37.0243V9.04948C36.0645 8.44957 34.9562 8.13013 33.8247 8.12718C31.4897 8.12718 29.9436 9.3906 29.9436 11.3552C29.9436 13.37 31.7295 13.9484 33.2816 14.4512C34.4741 14.8374 35.5286 15.179 35.5286 16.093C35.5286 16.889 34.7145 17.3944 33.4524 17.3944C32.1477 17.3435 30.8909 16.8888 29.8552 16.093H29.7795ZM55.887 11.6839V18.8727H54.1831L53.9875 17.2619C53.6108 17.8669 53.0806 18.361 52.4509 18.6939C51.8212 19.0269 51.1145 19.1867 50.403 19.157C48.4151 19.157 46.5597 18.0073 46.5597 15.8847C46.5597 13.4274 48.7685 12.6567 51.1981 12.6567C52.8137 12.6567 53.7224 12.5683 53.7224 11.5259C53.7224 10.4836 52.7884 10.0288 51.3117 10.0288C49.8309 10.0215 48.4019 10.5743 47.3107 11.5765H47.2665L47.3359 9.58659C48.5183 8.66136 49.9633 8.13501 51.4632 8.08312C53.653 8.05785 55.887 8.96751 55.887 11.6839ZM53.836 14.6529V13.5474C53.3438 14.1791 52.353 14.3181 51.0467 14.3181C49.7403 14.3181 48.7306 14.8045 48.7306 15.8658C48.7306 16.9271 49.8098 17.4135 50.87 17.4135C51.2482 17.4375 51.6274 17.3842 51.9844 17.2566C52.3413 17.1291 52.6686 16.9301 52.9462 16.6718C53.2237 16.4134 53.4458 16.1012 53.5988 15.7541C53.7518 15.407 53.8325 15.0323 53.836 14.6529ZM68.0532 8.36788H66.3556L66.1095 10.1619C65.7436 9.50583 65.203 8.9642 64.5479 8.59728C63.8927 8.23037 63.1488 8.05255 62.3988 8.08361C59.7041 8.08361 57.4259 10.1809 57.4259 13.39C57.4259 16.7064 59.6346 18.6963 62.241 18.6963C62.9402 18.7184 63.6342 18.5687 64.2624 18.2603C64.8905 17.952 65.4337 17.4944 65.8444 16.9275V17.7677C65.8444 19.9597 64.5192 21.1537 62.5755 21.1537C60.9696 21.158 59.4106 20.6118 58.1579 19.606H58.1137V21.6148C59.4516 22.6101 61.086 23.1243 62.7522 23.0741C65.8886 23.0741 68.0532 21.1726 68.0532 17.3508V8.36788ZM62.8594 9.98505C64.8473 9.98505 65.958 11.6401 65.958 13.3647C65.958 15.1588 64.8473 16.7949 62.8594 16.7949C60.7201 16.7949 59.7041 15.1335 59.7041 13.3647C59.7041 11.5959 60.6507 9.98505 62.8594 9.98505ZM73.1218 14.2732C72.4827 14.2732 71.9843 14.3675 71.9843 15.0027C71.9843 16.0844 73.3007 17.2039 75.3393 17.2039C76.0836 17.2417 76.828 17.1308 77.5276 16.8778C78.2272 16.6249 78.8676 16.2352 79.41 15.7322H79.4548V17.619C78.2862 18.6226 76.7814 19.1648 75.2306 19.1409C71.9203 19.1409 69.6134 16.9146 69.6134 13.5876C69.5849 12.8656 69.7052 12.1454 69.9668 11.4704C70.2285 10.7953 70.6262 10.1792 71.136 9.65929C71.6458 9.13935 72.2572 8.72625 72.9334 8.44484C73.6096 8.16343 74.3367 8.01952 75.0709 8.02176C76.2469 7.97637 77.3968 8.37073 78.2895 9.12558C79.1822 9.88042 79.7515 10.9398 79.8829 12.0908V14.2732H73.1218ZM73.4349 12.6694H77.6654C77.6793 12.306 77.616 11.9438 77.4797 11.6058C77.3433 11.2678 77.1368 10.9616 76.8735 10.7065C76.6101 10.4514 76.2956 10.2532 75.95 10.1245C75.6044 9.99575 75.2354 9.93932 74.8664 9.95881C72.9492 9.95881 71.9395 11.2795 71.8053 13.1537C72.2729 12.8071 72.8505 12.6354 73.4349 12.6694Z" fill="currentColor"></path>
  <path fill-rule="evenodd" clip-rule="evenodd" d="M102.244 0.875977L101.901 2.07851H104.287L104.626 0.875977H102.244Z" fill="currentColor"></path>
  <path fill-rule="evenodd" clip-rule="evenodd" d="M98.9621 2.98047L98.6162 4.183H103.691L104.031 2.98047H98.9621Z" fill="currentColor"></path>
  <path fill-rule="evenodd" clip-rule="evenodd" d="M95.9328 5.08496L95.5869 6.2875H103.094L103.434 5.08496H95.9328Z" fill="currentColor"></path>
  <path fill-rule="evenodd" clip-rule="evenodd" d="M86.6955 7.18945L86.3496 8.39199H102.497L102.837 7.18945H86.6955Z" fill="currentColor"></path>
  <path fill-rule="evenodd" clip-rule="evenodd" d="M87.6476 9.29395L87.3018 10.4965H101.902L102.242 9.29395H87.6476Z" fill="currentColor"></path>
  <path fill-rule="evenodd" clip-rule="evenodd" d="M88.1332 23.1234L88.479 21.9209H86.0908L85.7539 23.1234H88.1332Z" fill="currentColor"></path>
  <path fill-rule="evenodd" clip-rule="evenodd" d="M91.4182 21.0189L91.764 19.8164H86.6865L86.3496 21.0189H91.4182Z" fill="currentColor"></path>
  <path fill-rule="evenodd" clip-rule="evenodd" d="M94.4478 18.9145L94.7936 17.7119H87.2832L86.9463 18.9145H94.4478Z" fill="currentColor"></path>
  <path fill-rule="evenodd" clip-rule="evenodd" d="M103.685 16.81L104.031 15.6074H87.8799L87.543 16.81H103.685Z" fill="currentColor"></path>
  <path fill-rule="evenodd" clip-rule="evenodd" d="M102.73 14.7055L103.076 13.5029H88.4756L88.1387 14.7055H102.73Z" fill="currentColor"></path>
  <path fill-rule="evenodd" clip-rule="evenodd" d="M101.347 12.601L101.693 11.3984H87.9932L87.6562 12.601H101.347Z" fill="currentColor"></path>
</svg>