
<svg width="145" height="32" viewBox="0 0 145 32" fill="none" xmlns="http://www.w3.org/2000/svg">
<path d="M95.44 26.6616C94.4074 26.6616 93.5713 25.8423 93.5713 24.8303C93.5713 20.3447 89.8457 16.6938 85.2683 16.6938C80.691 16.6938 76.9653 20.3447 76.9653 24.8303C76.9653 25.8423 76.1294 26.6616 75.0968 26.6616C74.0639 26.6616 73.228 25.8423 73.228 24.8303C73.228 18.3245 78.6294 13.0312 85.2683 13.0312C91.9071 13.0312 97.3088 18.3245 97.3088 24.8303C97.3088 25.8423 96.4726 26.6616 95.44 26.6616Z" fill="#15BF70"/>
<path d="M124.179 26.6616C123.695 26.6616 123.211 26.4824 122.841 26.1258L112.546 16.1583C111.807 15.4431 111.807 14.2827 112.546 13.5676C113.284 12.8525 114.481 12.8525 115.222 13.5676L124.179 22.2398L133.136 13.5676C133.875 12.8525 135.072 12.8525 135.812 13.5676C136.551 14.2827 136.551 15.4431 135.812 16.1583L125.517 26.1258C125.147 26.4824 124.663 26.6616 124.179 26.6616Z" fill="#2E6FF2"/>
<path d="M104.797 26.6618C103.742 26.6618 102.888 25.8427 102.888 24.831V14.5723C102.888 13.5605 103.742 12.7415 104.797 12.7415C105.852 12.7415 106.706 13.5605 106.706 14.5723V24.831C106.706 25.8427 105.852 26.6618 104.797 26.6618Z" fill="#FFC533"/>
<path d="M104.945 10.0258C106.335 10.0258 107.461 8.91038 107.461 7.5344C107.461 6.15842 106.335 5.04297 104.945 5.04297C103.556 5.04297 102.43 6.15842 102.43 7.5344C102.43 8.91038 103.556 10.0258 104.945 10.0258Z" fill="#FFC533"/>
<path d="M138.966 26.6355C140.356 26.6355 141.482 25.52 141.482 24.144C141.482 22.768 140.356 21.6526 138.966 21.6526C137.577 21.6526 136.451 22.768 136.451 24.144C136.451 25.52 137.577 26.6355 138.966 26.6355Z" fill="#FFC533"/>
<path d="M61.4317 27.2427C60.43 27.2427 59.428 27.0498 58.4716 26.6642C56.5233 25.8793 54.9989 24.3859 54.179 22.4596C53.3594 20.5333 53.3436 18.4084 54.1356 16.4704C54.9236 14.5343 56.4263 13.0193 58.3628 12.2047C60.2991 11.3902 62.4396 11.3744 64.3898 12.1614C66.3381 12.9465 67.8625 14.4399 68.6824 16.3661C69.0664 17.2672 68.6407 18.3061 67.7358 18.6858L58.5073 22.5639C58.8835 22.9081 59.3231 23.1857 59.8102 23.3824C60.8773 23.8133 62.0495 23.8033 63.1087 23.3587C64.0889 22.9475 64.8788 22.194 65.3302 21.2377C65.748 20.3524 66.8093 19.9726 67.7003 20.3878C68.5914 20.8029 68.9735 21.8575 68.5557 22.7429C67.7301 24.49 66.2866 25.8674 64.4966 26.621C63.5108 27.036 62.4712 27.2427 61.4317 27.2427ZM59.7507 15.4669C58.6915 15.9135 57.8679 16.7419 57.4342 17.8024C57.2361 18.2864 57.1311 18.794 57.1172 19.3017L64.3522 16.2618C63.976 15.9175 63.5345 15.6479 63.0493 15.4433C62.4592 15.1954 61.1861 14.8609 59.7507 15.4669Z" fill="#2E6FF2"/>
<path d="M47.8409 13.0051C46.7963 13.0051 45.9508 13.8244 45.9508 14.8364C45.9508 19.322 42.1827 22.9728 37.5532 22.9728C32.9235 22.9728 29.1553 19.322 29.1553 14.8364C29.1553 13.8244 28.3098 13.0051 27.2653 13.0051C26.2209 13.0051 25.3752 13.8244 25.3752 14.8364C25.3752 19.322 21.6072 22.9728 16.9776 22.9728C12.348 22.9728 8.57987 19.322 8.57987 14.8364C8.57987 13.8244 7.73434 13.0051 6.68983 13.0051C5.64534 13.0051 4.7998 13.8244 4.7998 14.8364C4.7998 21.3422 10.263 26.6355 16.9776 26.6355C21.3028 26.6355 25.1047 24.438 27.2653 21.1378C29.4261 24.438 33.2299 26.6355 37.5532 26.6355C44.2677 26.6355 49.731 21.3422 49.731 14.8364C49.731 13.8244 48.8852 13.0051 47.8409 13.0051Z" fill="#FFC533"/>
</svg>
