<svg width="230" height="40" viewBox="0 0 230 40" fill="none" xmlns="http://www.w3.org/2000/svg">
<g clip-path="url(#clip0_1_165)">
<path d="M46.1678 12.5447V11.1713L51.193 11.1633V15.5072C50.4215 16.114 49.6258 16.5718 48.8058 16.8806C47.9858 17.184 47.1443 17.3357 46.2811 17.3357C45.1159 17.3357 44.0558 17.0909 43.101 16.6011C42.1515 16.106 41.434 15.3927 40.9485 14.4611C40.463 13.5295 40.2202 12.4888 40.2202 11.339C40.2202 10.1998 40.4603 9.13776 40.9404 8.15293C41.4259 7.16278 42.1218 6.42816 43.0281 5.94906C43.9344 5.46995 44.9783 5.2304 46.1597 5.2304C47.0175 5.2304 47.7916 5.36881 48.4821 5.64562C49.1781 5.91712 49.7229 6.29774 50.1167 6.78749C50.5105 7.27724 50.8099 7.91604 51.0149 8.7039L49.5988 9.08718C49.4208 8.49097 49.1996 8.02251 48.9353 7.68181C48.671 7.34112 48.2933 7.06963 47.8024 6.86734C47.3115 6.65973 46.7666 6.55592 46.1678 6.55592C45.4503 6.55592 44.8299 6.66505 44.3067 6.88331C43.7834 7.09624 43.3599 7.37838 43.0362 7.72972C42.7179 8.08107 42.4698 8.46701 42.2918 8.88756C41.9897 9.61154 41.8386 10.3967 41.8386 11.2431C41.8386 12.2865 42.0193 13.1596 42.3808 13.8622C42.7476 14.5649 43.279 15.0866 43.9749 15.4273C44.6708 15.768 45.4099 15.9384 46.1921 15.9384C46.8718 15.9384 47.5354 15.8106 48.1827 15.5551C48.8301 15.2942 49.321 15.0174 49.6555 14.7246V12.5447H46.1678Z" fill="#646C73"/>
<path d="M62.3115 12.8961C62.3115 11.3257 62.7538 10.1625 63.6386 9.40659C64.3776 8.77843 65.2785 8.46435 66.3413 8.46435C67.5227 8.46435 68.4884 8.84763 69.2382 9.6142C69.9881 10.3754 70.363 11.4295 70.363 12.7763C70.363 13.8676 70.1958 14.7273 69.8613 15.3555C69.5322 15.9783 69.0494 16.4627 68.4128 16.8087C67.7817 17.1548 67.0911 17.3278 66.3413 17.3278C65.1383 17.3278 64.1645 16.9471 63.4201 16.1859C62.681 15.4247 62.3115 14.328 62.3115 12.8961ZM63.8085 12.8961C63.8085 13.982 64.0485 14.7965 64.5287 15.3395C65.0088 15.8771 65.613 16.146 66.3413 16.146C67.0642 16.146 67.6657 15.8745 68.1458 15.3315C68.6259 14.7885 68.866 13.9607 68.866 12.8481C68.866 11.7994 68.6232 11.0063 68.1377 10.4686C67.6576 9.92561 67.0588 9.65412 66.3413 9.65412C65.613 9.65412 65.0088 9.92295 64.5287 10.4606C64.0485 10.9983 63.8085 11.8101 63.8085 12.8961Z" fill="#646C73"/>
<path d="M53.0866 12.8961C53.0866 11.3257 53.5289 10.1625 54.4137 9.40659C55.1527 8.77843 56.0536 8.46435 57.1164 8.46435C58.2978 8.46435 59.2635 8.84763 60.0133 9.6142C60.7632 10.3754 61.1381 11.4295 61.1381 12.7763C61.1381 13.8676 60.9709 14.7273 60.6364 15.3555C60.3073 15.9783 59.8245 16.4627 59.1879 16.8087C58.5568 17.1548 57.8663 17.3278 57.1164 17.3278C55.9134 17.3278 54.9396 16.9471 54.1952 16.1859C53.4561 15.4247 53.0866 14.328 53.0866 12.8961ZM54.5836 12.8961C54.5836 13.982 54.8237 14.7965 55.3038 15.3395C55.7839 15.8771 56.3881 16.146 57.1164 16.146C57.8393 16.146 58.4408 15.8745 58.9209 15.3315C59.401 14.7885 59.6411 13.9607 59.6411 12.8481C59.6411 11.7994 59.3983 11.0063 58.9128 10.4686C58.4327 9.92561 57.8339 9.65412 57.1164 9.65412C56.3881 9.65412 55.7839 9.92295 55.3038 10.4606C54.8237 10.9983 54.5836 11.8101 54.5836 12.8961Z" fill="#646C73"/>
<path d="M72.1409 17.8388L73.557 18.0464C73.6164 18.4776 73.7809 18.7917 74.0507 18.9887C74.4121 19.2548 74.9057 19.3879 75.5315 19.3879C76.2058 19.3879 76.7264 19.2548 77.0932 18.9887C77.4601 18.7225 77.7082 18.3499 77.8377 17.8707C77.9132 17.578 77.9483 16.9631 77.9429 16.0262C77.3063 16.7661 76.5133 17.1361 75.5639 17.1361C74.3824 17.1361 73.468 16.7156 72.8207 15.8745C72.1733 15.0334 71.8496 14.0246 71.8496 12.8481C71.8496 12.039 71.998 11.2937 72.2947 10.6123C72.5914 9.92561 73.0203 9.39594 73.5813 9.0233C74.1478 8.65067 74.8113 8.46435 75.5719 8.46435C76.5861 8.46435 77.4223 8.86892 78.0805 9.67808V8.65599H79.4237V15.9863C79.4237 17.3065 79.2862 18.2407 79.0111 18.789C78.7413 19.3427 78.3097 19.7792 77.7163 20.0986C77.1283 20.418 76.4027 20.5777 75.5396 20.5777C74.5146 20.5777 73.6865 20.3488 73.0553 19.891C72.4242 19.4385 72.1194 18.7544 72.1409 17.8388ZM73.3466 12.7443C73.3466 13.8569 73.5705 14.6687 74.0183 15.1798C74.466 15.6908 75.0271 15.9463 75.7014 15.9463C76.3704 15.9463 76.9314 15.6935 77.3846 15.1878C77.8377 14.6767 78.0643 13.8782 78.0643 12.7922C78.0643 11.7542 77.8296 10.9717 77.3603 10.4446C76.8963 9.91763 76.3353 9.65412 75.6771 9.65412C75.0298 9.65412 74.4795 9.91497 74.0264 10.4367C73.5732 10.953 73.3466 11.7223 73.3466 12.7443Z" fill="#646C73"/>
<path d="M81.7439 17.1361V5.43003H83.2004V17.1361H81.7439Z" fill="#646C73"/>
<path d="M90.8768 14.4052L92.3819 14.5889C92.1445 15.4566 91.7049 16.13 91.0629 16.6091C90.4209 17.0882 89.601 17.3278 88.6029 17.3278C87.346 17.3278 86.348 16.9471 85.6089 16.1859C84.8752 15.4193 84.5084 14.3467 84.5084 12.9679C84.5084 11.5413 84.8806 10.434 85.6251 9.64614C86.3695 8.85828 87.3352 8.46435 88.522 8.46435C89.6711 8.46435 90.6098 8.85029 91.338 9.62218C92.0663 10.3941 92.4305 11.48 92.4305 12.8801C92.4305 12.9653 92.4278 13.093 92.4224 13.2634H86.0135C86.0674 14.195 86.3345 14.9083 86.8146 15.4034C87.2947 15.8984 87.8935 16.146 88.611 16.146C89.1451 16.146 89.601 16.0076 89.9786 15.7308C90.3562 15.4539 90.6556 15.0121 90.8768 14.4052ZM86.0944 12.0816H90.893C90.8282 11.3682 90.6448 10.8332 90.3427 10.4766C89.8788 9.92295 89.2773 9.64614 88.5382 9.64614C87.8693 9.64614 87.3055 9.86706 86.847 10.3089C86.3938 10.7507 86.143 11.3416 86.0944 12.0816Z" fill="#646C73"/>
<path d="M97.8087 17.1361V5.43003H101.895C102.818 5.43003 103.522 5.48592 104.007 5.59771C104.687 5.75209 105.267 6.03157 105.747 6.43614C106.373 6.95783 106.839 7.62592 107.147 8.44039C107.46 9.24955 107.616 10.1758 107.616 11.2192C107.616 12.1082 107.511 12.8961 107.301 13.5828C107.09 14.2695 106.82 14.8391 106.491 15.2916C106.162 15.7387 105.801 16.0927 105.407 16.3536C105.019 16.6091 104.547 16.8034 103.991 16.9365C103.441 17.0696 102.807 17.1361 102.089 17.1361H97.8087ZM99.3785 15.7547H101.911C102.694 15.7547 103.306 15.6828 103.748 15.5391C104.196 15.3954 104.552 15.1931 104.816 14.9322C105.189 14.5649 105.477 14.0725 105.682 13.455C105.893 12.8322 105.998 12.0789 105.998 11.1952C105.998 9.97086 105.793 9.03129 105.383 8.37651C104.978 7.71642 104.485 7.27458 103.902 7.05099C103.481 6.89129 102.804 6.81144 101.871 6.81144H99.3785V15.7547Z" fill="#646C73"/>
<path d="M114.739 14.4052L116.244 14.5889C116.007 15.4566 115.567 16.13 114.925 16.6091C114.283 17.0882 113.463 17.3278 112.465 17.3278C111.208 17.3278 110.21 16.9471 109.471 16.1859C108.737 15.4193 108.37 14.3467 108.37 12.9679C108.37 11.5413 108.743 10.434 109.487 9.64614C110.232 8.85828 111.197 8.46435 112.384 8.46435C113.533 8.46435 114.472 8.85029 115.2 9.62218C115.928 10.3941 116.292 11.48 116.292 12.8801C116.292 12.9653 116.29 13.093 116.284 13.2634H109.876C109.929 14.195 110.197 14.9083 110.677 15.4034C111.157 15.8984 111.756 16.146 112.473 16.146C113.007 16.146 113.463 16.0076 113.841 15.7308C114.218 15.4539 114.518 15.0121 114.739 14.4052ZM109.956 12.0816H114.755C114.69 11.3682 114.507 10.8332 114.205 10.4766C113.741 9.92295 113.139 9.64614 112.4 9.64614C111.731 9.64614 111.168 9.86706 110.709 10.3089C110.256 10.7507 110.005 11.3416 109.956 12.0816Z" fill="#646C73"/>
<path d="M120.028 17.1361L116.758 8.65599H118.296L120.141 13.7345C120.34 14.2828 120.524 14.8524 120.691 15.4433C120.821 14.9961 121.001 14.4585 121.233 13.8303L123.143 8.65599H124.64L121.387 17.1361H120.028Z" fill="#646C73"/>
<path d="M131.767 14.4052L133.272 14.5889C133.035 15.4566 132.595 16.13 131.953 16.6091C131.311 17.0882 130.491 17.3278 129.493 17.3278C128.236 17.3278 127.238 16.9471 126.499 16.1859C125.765 15.4193 125.398 14.3467 125.398 12.9679C125.398 11.5413 125.771 10.434 126.515 9.64614C127.26 8.85828 128.225 8.46435 129.412 8.46435C130.561 8.46435 131.5 8.85029 132.228 9.62218C132.956 10.3941 133.321 11.48 133.321 12.8801C133.321 12.9653 133.318 13.093 133.312 13.2634H126.904C126.958 14.195 127.225 14.9083 127.705 15.4034C128.185 15.8984 128.784 16.146 129.501 16.146C130.035 16.146 130.491 16.0076 130.869 15.7308C131.246 15.4539 131.546 15.0121 131.767 14.4052ZM126.984 12.0816H131.783C131.718 11.3682 131.535 10.8332 131.233 10.4766C130.769 9.92295 130.167 9.64614 129.428 9.64614C128.759 9.64614 128.196 9.86706 127.737 10.3089C127.284 10.7507 127.033 11.3416 126.984 12.0816Z" fill="#646C73"/>
<path d="M137.973 12.8961C137.973 11.3257 138.415 10.1625 139.3 9.40659C140.039 8.77843 140.94 8.46435 142.003 8.46435C143.184 8.46435 144.15 8.84763 144.9 9.6142C145.65 10.3754 146.024 11.4295 146.024 12.7763C146.024 13.8676 145.857 14.7273 145.523 15.3555C145.194 15.9783 144.711 16.4627 144.074 16.8087C143.443 17.1548 142.753 17.3278 142.003 17.3278C140.8 17.3278 139.826 16.9471 139.081 16.1859C138.342 15.4247 137.973 14.328 137.973 12.8961ZM139.47 12.8961C139.47 13.982 139.71 14.7965 140.19 15.3395C140.67 15.8771 141.274 16.146 142.003 16.146C142.726 16.146 143.327 15.8745 143.807 15.3315C144.287 14.7885 144.527 13.9607 144.527 12.8481C144.527 11.7994 144.285 11.0063 143.799 10.4686C143.319 9.92561 142.72 9.65412 142.003 9.65412C141.274 9.65412 140.67 9.92295 140.19 10.4606C139.71 10.9983 139.47 11.8101 139.47 12.8961Z" fill="#646C73"/>
<path d="M134.793 17.1361V5.43003H136.249V17.1361H134.793Z" fill="#646C73"/>
<path d="M147.354 20.386V8.65599H148.681V9.75793C148.994 9.32674 149.347 9.00467 149.741 8.79174C150.135 8.57348 150.612 8.46435 151.174 8.46435C151.907 8.46435 152.555 8.65067 153.116 9.0233C153.677 9.39594 154.1 9.92295 154.386 10.6043C154.672 11.2804 154.815 12.023 154.815 12.8322C154.815 13.6999 154.656 14.4824 154.337 15.1798C154.025 15.8718 153.566 16.4042 152.962 16.7768C152.363 17.1441 151.732 17.3278 151.068 17.3278C150.583 17.3278 150.146 17.2266 149.757 17.0243C149.374 16.822 149.059 16.5665 148.811 16.2578V20.386H147.354ZM148.673 12.944C148.673 14.0353 148.897 14.8417 149.345 15.3634C149.792 15.8851 150.335 16.146 150.971 16.146C151.619 16.146 152.172 15.8771 152.63 15.3395C153.094 14.7965 153.326 13.9581 153.326 12.8242C153.326 11.7435 153.099 10.9344 152.646 10.3967C152.198 9.85907 151.662 9.59024 151.036 9.59024C150.416 9.59024 149.865 9.8777 149.385 10.4526C148.91 11.0222 148.673 11.8527 148.673 12.944Z" fill="#646C73"/>
<path d="M166.444 17.1361V8.65599H167.754V9.94158C168.089 9.34004 168.396 8.94345 168.677 8.75181C168.963 8.56017 169.276 8.46435 169.616 8.46435C170.107 8.46435 170.606 8.61873 171.113 8.92748L170.611 10.261C170.255 10.0534 169.899 9.94957 169.543 9.94957C169.225 9.94957 168.939 10.0454 168.685 10.237C168.432 10.4234 168.251 10.6842 168.143 11.0196C167.981 11.5306 167.9 12.0896 167.9 12.6964V17.1361H166.444Z" fill="#646C73"/>
<path d="M163.118 14.4052L164.623 14.5889C164.386 15.4566 163.946 16.13 163.304 16.6091C162.662 17.0882 161.842 17.3278 160.844 17.3278C159.587 17.3278 158.589 16.9471 157.85 16.1859C157.116 15.4193 156.749 14.3467 156.749 12.9679C156.749 11.5413 157.122 10.434 157.866 9.64614C158.611 8.85828 159.576 8.46435 160.763 8.46435C161.912 8.46435 162.851 8.85029 163.579 9.62218C164.307 10.3941 164.671 11.48 164.671 12.8801C164.671 12.9653 164.669 13.093 164.663 13.2634H158.254C158.308 14.195 158.575 14.9083 159.056 15.4034C159.536 15.8984 160.135 16.146 160.852 16.146C161.386 16.146 161.842 16.0076 162.22 15.7308C162.597 15.4539 162.897 15.0121 163.118 14.4052ZM158.335 12.0816H163.134C163.069 11.3682 162.886 10.8332 162.584 10.4766C162.12 9.92295 161.518 9.64614 160.779 9.64614C160.11 9.64614 159.546 9.86706 159.088 10.3089C158.635 10.7507 158.384 11.3416 158.335 12.0816Z" fill="#646C73"/>
<path d="M181.182 12.5447V11.1713L186.207 11.1633V15.5072C185.436 16.114 184.64 16.5718 183.82 16.8806C183 17.184 182.158 17.3357 181.295 17.3357C180.13 17.3357 179.07 17.0909 178.115 16.6011C177.166 16.106 176.448 15.3927 175.963 14.4611C175.477 13.5295 175.234 12.4888 175.234 11.339C175.234 10.1998 175.474 9.13776 175.954 8.15293C176.44 7.16278 177.136 6.42816 178.042 5.94906C178.948 5.46995 179.992 5.2304 181.174 5.2304C182.032 5.2304 182.806 5.36881 183.496 5.64562C184.192 5.91712 184.737 6.29774 185.131 6.78749C185.525 7.27724 185.824 7.91604 186.029 8.7039L184.613 9.08718C184.435 8.49097 184.214 8.02251 183.949 7.68181C183.685 7.34112 183.307 7.06963 182.816 6.86734C182.326 6.65973 181.781 6.55592 181.182 6.55592C180.464 6.55592 179.844 6.66505 179.321 6.88331C178.797 7.09624 178.374 7.37838 178.05 7.72972C177.732 8.08107 177.484 8.46701 177.306 8.88756C177.004 9.61154 176.853 10.3967 176.853 11.2431C176.853 12.2865 177.033 13.1596 177.395 13.8622C177.762 14.5649 178.293 15.0866 178.989 15.4273C179.685 15.768 180.424 15.9384 181.206 15.9384C181.886 15.9384 182.549 15.8106 183.197 15.5551C183.844 15.2942 184.335 15.0174 184.67 14.7246V12.5447H181.182Z" fill="#646C73"/>
<path d="M188.698 17.1361V8.65599H190.009V9.94158C190.343 9.34004 190.651 8.94345 190.931 8.75181C191.217 8.56017 191.53 8.46435 191.87 8.46435C192.361 8.46435 192.86 8.61873 193.367 8.92748L192.865 10.261C192.509 10.0534 192.153 9.94957 191.797 9.94957C191.479 9.94957 191.193 10.0454 190.939 10.237C190.686 10.4234 190.505 10.6842 190.397 11.0196C190.235 11.5306 190.154 12.0896 190.154 12.6964V17.1361H188.698Z" fill="#646C73"/>
<path d="M193.582 12.8961C193.582 11.3257 194.024 10.1625 194.909 9.40659C195.648 8.77843 196.549 8.46435 197.612 8.46435C198.793 8.46435 199.759 8.84763 200.509 9.6142C201.259 10.3754 201.634 11.4295 201.634 12.7763C201.634 13.8676 201.466 14.7273 201.132 15.3555C200.803 15.9783 200.32 16.4627 199.683 16.8087C199.052 17.1548 198.362 17.3278 197.612 17.3278C196.409 17.3278 195.435 16.9471 194.691 16.1859C193.952 15.4247 193.582 14.328 193.582 12.8961ZM195.079 12.8961C195.079 13.982 195.319 14.7965 195.799 15.3395C196.279 15.8771 196.884 16.146 197.612 16.146C198.335 16.146 198.936 15.8745 199.416 15.3315C199.896 14.7885 200.137 13.9607 200.137 12.8481C200.137 11.7994 199.894 11.0063 199.408 10.4686C198.928 9.92561 198.329 9.65412 197.612 9.65412C196.884 9.65412 196.279 9.92295 195.799 10.4606C195.319 10.9983 195.079 11.8101 195.079 12.8961Z" fill="#646C73"/>
<path d="M209.068 17.1361V15.8905C208.399 16.8487 207.49 17.3278 206.341 17.3278C205.833 17.3278 205.359 17.2319 204.916 17.0403C204.479 16.8487 204.153 16.6091 203.937 16.3216C203.727 16.0289 203.578 15.6722 203.492 15.2516C203.433 14.9695 203.403 14.5223 203.403 13.9102V8.65599H204.86V13.3592C204.86 14.1098 204.889 14.6155 204.949 14.8764C205.04 15.2543 205.235 15.5524 205.531 15.7707C205.828 15.9836 206.195 16.0901 206.632 16.0901C207.069 16.0901 207.479 15.9809 207.862 15.7627C208.245 15.5391 208.515 15.2383 208.671 14.8604C208.833 14.4771 208.914 13.9235 208.914 13.1995V8.65599H210.37V17.1361H209.068Z" fill="#646C73"/>
<path d="M212.448 20.386V8.65599H213.775V9.75793C214.088 9.32674 214.441 9.00467 214.835 8.79174C215.229 8.57348 215.706 8.46435 216.267 8.46435C217.001 8.46435 217.648 8.65067 218.209 9.0233C218.77 9.39594 219.194 9.92295 219.48 10.6043C219.766 11.2804 219.909 12.023 219.909 12.8322C219.909 13.6999 219.75 14.4824 219.431 15.1798C219.118 15.8718 218.66 16.4042 218.056 16.7768C217.457 17.1441 216.826 17.3278 216.162 17.3278C215.677 17.3278 215.24 17.2266 214.851 17.0243C214.468 16.822 214.153 16.5665 213.904 16.2578V20.386H212.448ZM213.767 12.944C213.767 14.0353 213.991 14.8417 214.438 15.3634C214.886 15.8851 215.428 16.146 216.065 16.146C216.712 16.146 217.265 15.8771 217.724 15.3395C218.188 14.7965 218.42 13.9581 218.42 12.8242C218.42 11.7435 218.193 10.9344 217.74 10.3967C217.292 9.85907 216.755 9.59024 216.13 9.59024C215.509 9.59024 214.959 9.8777 214.479 10.4526C214.004 11.0222 213.767 11.8527 213.767 12.944Z" fill="#646C73"/>
<path d="M221.333 14.6049L222.774 14.3813C222.854 14.9509 223.078 15.3874 223.445 15.6908C223.817 15.9943 224.335 16.146 224.999 16.146C225.668 16.146 226.164 16.0129 226.488 15.7467C226.811 15.4752 226.973 15.1585 226.973 14.7965C226.973 14.4718 226.83 14.2163 226.544 14.0299C226.345 13.9022 225.848 13.7398 225.055 13.5428C223.987 13.2767 223.246 13.0478 222.83 12.8561C222.42 12.6592 222.107 12.3903 221.891 12.0496C221.681 11.7036 221.576 11.323 221.576 10.9078C221.576 10.5298 221.662 10.1811 221.835 9.86173C222.013 9.53701 222.253 9.26818 222.555 9.05524C222.782 8.89022 223.089 8.75181 223.478 8.64002C223.871 8.52291 224.292 8.46435 224.74 8.46435C225.414 8.46435 226.005 8.56017 226.512 8.75181C227.025 8.94345 227.402 9.2043 227.645 9.53435C227.888 9.85907 228.055 10.2956 228.147 10.8439L226.722 11.0355C226.658 10.599 226.469 10.2583 226.156 10.0135C225.848 9.76858 225.412 9.64614 224.845 9.64614C224.176 9.64614 223.699 9.75527 223.413 9.97352C223.127 10.1918 222.984 10.4473 222.984 10.7401C222.984 10.9264 223.043 11.0941 223.162 11.2431C223.281 11.3975 223.467 11.5253 223.72 11.6264C223.866 11.6797 224.295 11.8021 225.007 11.9937C226.037 12.2652 226.755 12.4888 227.159 12.6645C227.569 12.8348 227.89 13.085 228.122 13.4151C228.354 13.7451 228.47 14.155 228.47 14.6448C228.47 15.1239 228.327 15.5764 228.041 16.0022C227.761 16.4228 227.354 16.7502 226.82 16.9844C226.285 17.2133 225.681 17.3278 225.007 17.3278C223.89 17.3278 223.038 17.0989 222.45 16.641C221.867 16.1832 221.495 15.5045 221.333 14.6049Z" fill="#646C73"/>
<path d="M39.9484 29.9201L40.8292 29.8009C40.8526 30.3572 40.9583 30.738 41.1462 30.9432C41.3342 31.1485 41.5942 31.2512 41.9264 31.2512C42.1713 31.2512 42.3827 31.1965 42.5606 31.0873C42.7384 30.9747 42.8609 30.824 42.928 30.6353C42.9951 30.4433 43.0287 30.1386 43.0287 29.7215V24.7051H44.0051V29.6668C44.0051 30.2761 43.9296 30.7479 43.7786 31.0823C43.631 31.4167 43.3944 31.6717 43.0689 31.8472C42.7468 32.0227 42.3676 32.1104 41.9314 32.1104C41.2838 32.1104 40.7872 31.9266 40.4416 31.5591C40.0993 31.1916 39.9349 30.6452 39.9484 29.9201Z" fill="#646C73"/>
<path d="M57.2202 31.9862V31.2114C56.8041 31.8074 56.2387 32.1054 55.524 32.1054C55.2086 32.1054 54.9133 32.0458 54.6382 31.9266C54.3664 31.8074 54.1634 31.6584 54.0292 31.4796C53.8983 31.2975 53.806 31.0757 53.7523 30.8141C53.7154 30.6386 53.697 30.3605 53.697 29.9797V26.7117H54.6029V29.637C54.6029 30.1039 54.6214 30.4184 54.6583 30.5807C54.7154 30.8158 54.8362 31.0012 55.0207 31.1369C55.2053 31.2694 55.4334 31.3356 55.7052 31.3356C55.977 31.3356 56.232 31.2677 56.4703 31.132C56.7085 30.9929 56.8763 30.8058 56.9736 30.5707C57.0742 30.3323 57.1246 29.988 57.1246 29.5377V26.7117H58.0305V31.9862H57.2202Z" fill="#646C73"/>
<path d="M51.4169 25.7432V24.7051H52.3229V25.7432H51.4169ZM50.2694 34.0325L50.4405 33.2726C50.6217 33.319 50.7643 33.3421 50.8683 33.3421C51.0529 33.3421 51.1905 33.2809 51.2811 33.1584C51.3716 33.0392 51.4169 32.7379 51.4169 32.2544V26.7117H52.3229V32.2743C52.3229 32.9233 52.2374 33.3752 52.0662 33.6302C51.8481 33.9613 51.4857 34.1269 50.9791 34.1269C50.7341 34.1269 50.4976 34.0954 50.2694 34.0325Z" fill="#646C73"/>
<path d="M49.3433 30.2876L50.2795 30.4019C50.1318 30.9416 49.8583 31.3604 49.459 31.6584C49.0597 31.9564 48.5497 32.1054 47.929 32.1054C47.1471 32.1054 46.5264 31.8687 46.0667 31.3952C45.6103 30.9184 45.3822 30.2512 45.3822 29.3936C45.3822 28.5063 45.6137 27.8176 46.0768 27.3275C46.5398 26.8375 47.1404 26.5925 47.8786 26.5925C48.5933 26.5925 49.1772 26.8325 49.6302 27.3126C50.0832 27.7927 50.3097 28.4682 50.3097 29.339C50.3097 29.392 50.308 29.4715 50.3046 29.5774H46.3183C46.3519 30.1569 46.518 30.6005 46.8166 30.9085C47.1153 31.2164 47.4877 31.3704 47.934 31.3704C48.2662 31.3704 48.5497 31.2843 48.7846 31.1121C49.0195 30.9399 49.2057 30.6651 49.3433 30.2876ZM46.3687 28.8424H49.3534C49.3131 28.3987 49.199 28.0659 49.0111 27.8441C48.7225 27.4997 48.3484 27.3275 47.8887 27.3275C47.4726 27.3275 47.122 27.4649 46.8368 27.7398C46.5549 28.0146 46.3989 28.3821 46.3687 28.8424Z" fill="#646C73"/>
<path d="M7.7879 12.3593L13.0985 9.32469C14.3514 8.60817 14.7785 7.03465 14.0524 5.79831C13.3263 4.56197 11.7317 4.14049 10.4788 4.85701L1.30985 10.0974L7.7879 12.3593Z" fill="#DD4335"/>
<path d="M11.7886 20.1427C12.6855 20.1427 13.5683 19.679 14.0523 18.8501C14.7784 17.6138 14.3513 16.0403 13.0984 15.3237L3.91524 10.0974C2.66234 9.38089 1.06774 9.80237 0.341632 11.0387C-0.384479 12.275 0.0426453 13.8486 1.29554 14.5651L10.4787 19.7914C10.8916 20.0303 11.3472 20.1286 11.7886 20.1286V20.1427Z" fill="#4779BD"/>
<path d="M20.9291 20.1427C21.3705 20.1427 21.8261 20.0303 22.2389 19.8055L31.4221 14.5791L25.0153 12.261L19.6192 15.3378C18.3663 16.0543 17.9392 17.6278 18.6653 18.8642C19.1494 19.6931 20.0321 20.1567 20.9291 20.1567V20.1427Z" fill="#F0B61A"/>
<path d="M30.1123 14.9163C31.0092 14.9163 31.892 14.4527 32.376 13.6238C33.1021 12.3874 32.675 10.8139 31.4221 10.0974L22.2247 4.85701C20.9718 4.14049 19.3772 4.56197 18.6511 5.79831C17.925 7.03465 18.3521 8.60817 19.605 9.32469L28.7882 14.551C29.2011 14.7899 29.6567 14.8882 30.098 14.8882L30.1123 14.9163Z" fill="#1A9756"/>
</g>
<defs>
<clipPath id="clip0_1_165">
<rect width="230" height="40" fill="white"/>
</clipPath>
</defs>
</svg>
