<svg width="90" height="40" viewBox="0 0 90 40" fill="none" xmlns="http://www.w3.org/2000/svg">
<path d="M52.995 2C52.4098 2 51.8252 2.45625 51.6892 3.01898L50.929 6.16411H49.8488C49.2637 6.16411 48.6791 6.62036 48.5431 7.18309C48.4071 7.74581 48.7712 8.20206 49.3563 8.20206H50.4365L49.5198 11.9952C49.3837 12.558 49.7479 13.0142 50.333 13.0142C50.9181 13.0142 51.5028 12.558 51.6388 11.9952L53.8082 3.01898C53.9442 2.45625 53.5801 2 52.995 2Z" fill="#4C4C4C"/>
<path d="M55.7073 2C55.1222 2 54.5375 2.45625 54.4015 3.01898L52.2321 11.9952C52.0961 12.558 52.4602 13.0142 53.0453 13.0142C53.6304 13.0142 54.2151 12.558 54.3511 11.9952L56.5205 3.01898C56.6565 2.45625 56.2924 2 55.7073 2Z" fill="#4C4C4C"/>
<path d="M47.2708 8.21522L48.1708 4.4916H49.394C49.9791 4.4916 50.5638 4.03535 50.6998 3.47262C50.8358 2.90989 50.4717 2.45364 49.8866 2.45364H45.3208C44.7357 2.45364 44.151 2.90989 44.015 3.47262C43.879 4.03535 44.2431 4.4916 44.8283 4.4916H46.0518L45.1518 8.21519L42.4065 10.9863C41.9542 11.443 41.9079 12.0798 42.3033 12.4087C42.4592 12.5384 42.6606 12.601 42.8753 12.601C43.2043 12.601 43.5642 12.454 43.8383 12.1775L45.7104 10.2877L46.6689 12.1775C46.8092 12.454 47.0981 12.601 47.4271 12.601C47.6418 12.601 47.8734 12.5386 48.0921 12.4087C48.6462 12.0798 48.908 11.443 48.6764 10.9863L47.2708 8.21522Z" fill="#4C4C4C"/>
<path d="M58.2268 6.23725C57.6329 6.44671 57.2257 7.03992 57.3173 7.56222C57.3872 7.96026 57.7262 8.20231 58.1463 8.20231C58.2777 8.20231 58.4169 8.17868 58.558 8.12893L62.4337 6.76191L65.6486 8.12893C65.7659 8.17868 65.8934 8.20231 66.0248 8.20231C66.4449 8.20231 66.901 7.96026 67.1633 7.56222C67.5073 7.03992 67.3868 6.44671 66.8942 6.23725L63.9251 4.97476L64.1516 4.03796H66.9542C67.5393 4.03796 68.124 3.58171 68.26 3.01898C68.396 2.45625 68.0319 2 67.4468 2H59.7224C59.1373 2 58.5526 2.45625 58.4166 3.01898C58.2806 3.58171 58.6448 4.03796 59.2299 4.03796H62.0325L61.8061 4.97476L58.2268 6.23725Z" fill="#4C4C4C"/>
<path d="M66.6467 8.84838H57.2121C56.627 8.84838 56.0423 9.30463 55.9063 9.86736C55.7703 10.4301 56.1344 10.8863 56.7195 10.8863H60.3774L59.989 12.4934C59.853 13.0561 60.2171 13.5124 60.8022 13.5124C61.3873 13.5124 61.972 13.0561 62.108 12.4934L62.4964 10.8863H66.1542C66.7393 10.8863 67.324 10.4301 67.46 9.86736C67.596 9.30463 67.2319 8.84838 66.6467 8.84838Z" fill="#4C4C4C"/>
<path d="M23.5671 18.7159C23.1122 18.2784 22.1519 18.0678 21.9834 16.9012C21.815 15.7346 21.9161 14.9568 20.1302 13.7902C20.0704 13.7512 20.0087 13.7151 19.9456 13.6812C18.3582 12.8304 16.0744 13.3789 14.4022 13.72C13.4674 13.9107 12.4486 14.1317 11.5247 14.343C10.2366 14.6375 8.9298 14.7829 7.52846 14.8758C6.33681 14.9548 4.78549 14.9452 3.70046 14.377C3.24433 14.1381 2.78437 13.652 2.23842 13.6282C1.53998 13.5976 0.915535 14.2807 0.590033 14.8042C0.243304 15.3618 0.0739893 16.0079 0.0217705 16.6516C0.0200083 16.6732 0.0184402 16.6948 0.0170337 16.7164C-0.0145239 17.1999 -0.00849371 17.7127 0.0890729 18.1892C0.201012 18.7359 0.47187 19.2447 1.03043 19.4639C1.47253 19.6374 1.97082 19.6591 2.44204 19.6319C3.15546 19.5906 3.86618 19.4223 4.52965 19.1696C6.23122 18.5214 8.03389 18.3432 11.8414 17.3548C15.6486 16.3665 17.8022 16.6364 17.8025 16.6365C17.7999 16.6359 17.5511 16.8532 17.5493 16.8549C16.4443 17.8705 15.3381 18.885 14.2309 19.8984C13.4435 20.619 12.6556 21.3391 11.8659 22.0574C11.2414 22.6253 10.5677 23.1655 9.98174 23.7696C8.69512 25.096 7.1494 27.4816 8.84257 29.4422C9.23288 29.8941 9.73906 30.1599 10.3386 30.2627C11.8922 30.5291 13.502 30.0269 14.9149 29.4391C17.2432 28.4706 19.4039 26.987 21.1844 25.2555C21.9053 24.5546 24.5105 22.3453 24.6285 21.0329C24.7464 19.7204 24.022 19.1534 23.5671 18.7159ZM18.9216 23.3688C18.1651 24.0459 17.3327 24.646 16.493 25.2232C16.1054 25.4897 12.4976 28.0844 12.3617 26.7753C12.319 26.3635 12.8101 25.9237 13.0803 25.6819C13.3925 25.4024 13.7435 25.1486 14.0296 24.8948C14.6046 24.3848 15.1785 23.8736 15.7529 23.363C16.2087 22.9579 16.6651 22.5528 17.1338 22.1617C17.6394 21.7396 18.1252 21.2823 18.8006 21.1353C19.4087 21.0029 19.9261 21.2374 20.0067 21.87C20.0588 22.4379 19.2967 23.033 18.9216 23.3688Z" fill="#4C4C4C"/>
<path d="M21.0328 5.55084C21.1767 5.03082 21.4121 4.47864 21.8711 4.39249C22.3316 4.30607 22.9606 4.74895 23.4211 5.25664C23.8816 5.76433 24.5811 6.56367 24.6413 8.00032C24.7015 9.43697 22.837 13.078 22.1407 13.2288C21.4443 13.3797 20.6918 12.7208 20.456 11.8242C20.2168 10.915 20.2785 9.95379 20.3947 9.03195C20.5107 8.11261 20.6409 7.17988 20.8608 6.27794C20.9056 6.09452 20.9563 5.82722 21.0328 5.55084Z" fill="#4C4C4C"/>
<path d="M30.2049 16.9335C30.2049 16.9335 28.1664 20.2551 27.6778 21.2759C27.1892 22.2966 25.6898 25.9261 27.6778 25.9423C29.6658 25.9585 29.969 23.8845 32.0244 22.5721C32.8485 22.0459 33.72 21.5855 34.5862 21.1276C35.5682 20.6086 36.5624 20.1112 37.5651 19.6305C38.0788 19.3843 38.5447 19.2417 39.0624 19.0034C39.3427 18.8744 40.0143 18.6596 40.1336 18.3486C40.3496 17.7851 39.2549 17.9465 38.9727 17.9543C38.2096 17.9754 37.4502 18.0455 36.6892 18.0886C35.9155 18.1324 35.3461 18.1885 34.6216 18.2254C34.4079 18.2362 34.0421 18.2607 33.8327 18.2621C33.8328 18.262 34.779 16.0288 35.6971 14.5787C36.6153 13.1285 38.2495 11.0114 36.9775 10.3876C35.8294 9.82447 34.5094 10.4524 32.9342 12.899C31.3589 15.3456 30.2049 16.9335 30.2049 16.9335Z" fill="#4C4C4C"/>
<path d="M25.3529 26.6228C25.7404 26.747 26.375 27.2115 25.9594 28.2593C25.5438 29.3071 23.6569 31.6673 23.5896 32.472C23.55 32.9448 23.9981 33.0945 24.5695 33.0175C25.3301 32.9151 28.349 32.1489 29.8231 31.6997C31.1339 31.3002 33.1392 30.2495 33.4986 30.5115C33.858 30.7735 31.9739 32.6017 28.0035 34.0977C24.9796 35.2372 20.9614 36.4309 19.0633 33.4496C17.1651 30.4683 22.7247 27.1629 23.2638 26.9469C23.803 26.7308 24.7134 26.4179 25.3529 26.6228Z" fill="#4C4C4C"/>
<path d="M39.1227 20.0769C39.1227 20.0769 38.5892 20.7899 38.7857 21.5892C38.937 22.2044 39.5607 22.6046 40.6951 22.2589C41.8295 21.9133 45.4797 20.239 46.2547 20.7197C46.8884 21.1127 46.337 21.8885 45.5022 22.4966C44.6659 23.1058 40.3334 26.1269 38.943 27.487C37.6289 28.7725 37.6747 29.5842 37.9322 30.0795C38.2691 30.7276 39.271 30.7288 40.8018 30.2901C42.4416 29.8203 48.6821 27.1292 48.362 26.5054C48.0824 25.9604 45.2375 27.0852 44.6037 27.379C43.8241 27.7404 40.5603 29.1829 40.5154 28.6753C40.4705 28.1676 44.3004 25.964 45.345 25.4563C46.3895 24.9486 50.3542 22.7234 50.2419 20.3362C50.1296 17.949 47.4994 17.3138 44.5812 17.5709C42.436 17.7599 39.9201 18.8455 39.1227 20.0769Z" fill="#4C4C4C"/>
<path d="M52.5106 21.2596C52.7689 20.7819 53.1298 20.1983 53.4372 19.2991C53.5884 18.8569 53.9068 18.3722 54.4356 18.328C54.8445 18.2938 55.3788 18.6074 55.6847 18.8685C56.0081 19.1445 56.1608 19.5239 56.1268 19.9382C56.088 20.4104 55.86 20.8595 55.6105 21.2596C54.4048 23.1937 53.6726 24.3559 53.8079 24.3868C54.1175 24.4575 56.0578 24.2058 56.6214 24.1769C57.3634 24.1389 59.4573 23.8967 59.7381 24.4732C60.0189 25.0497 56.627 25.629 55.0433 26.2339C53.6269 26.7749 52.2215 27.1737 51.1755 28.6535C50.1296 30.1334 49.6241 30.1874 48.9166 29.8849C48.209 29.5825 48.209 28.4699 48.9166 27.1845C49.6241 25.8991 50.8259 24.376 52.5106 21.2596Z" fill="#4C4C4C"/>
<path d="M63.8994 16.1396C63.8994 16.1396 63.2929 16.7553 63.4783 17.4034C63.6636 18.0516 64.4386 18.6187 66.1738 18.8131C67.9091 19.0075 69.1979 18.8617 69.5433 19.4936C69.8887 20.1255 68.5324 21.4785 68.3134 21.7782C68.0944 22.078 64.4386 25.5859 61.9676 27.2926C59.497 28.999 57.397 29.4339 57.5873 30.0319C57.9785 31.2617 59.4844 31.1723 60.5766 31.096C61.9136 31.0026 63.2398 30.6238 64.401 29.9764C65.5375 29.3427 66.4089 28.3601 67.295 27.4475C68.4532 26.2547 69.5828 25.0324 70.6334 23.7501C71.3075 22.9273 71.96 22.0783 72.5043 21.1694C72.8804 20.5415 73.299 19.8061 73.3115 19.0615C73.3479 16.8881 71.1928 15.5429 69.2091 15.1478C67.5122 14.8098 65.2046 14.8844 63.8994 16.1396Z" fill="#4C4C4C"/>
<path d="M78.8633 8.0381C78.0681 7.87243 77.1646 8.15815 76.5864 8.68516C75.9107 9.30098 75.5603 10.1927 75.353 11.0467C74.8295 13.2039 74.8624 15.4397 74.5214 17.63C74.1433 20.0578 73.6169 22.4755 72.7821 24.7988C72.0166 26.929 71.0655 28.6435 69.774 30.8931C69.0532 32.1488 67.4367 35.3381 65.4437 34.3677C64.9777 34.1409 63.9164 32.7312 63.4278 33.2984C62.9115 33.8976 63.3959 35.1161 63.807 35.6532C64.5121 36.5744 65.5626 37.1374 66.7706 36.9709C69.2493 36.6295 71.1078 34.6487 72.2534 32.6439C72.2768 32.6029 72.3 32.5618 72.3232 32.5206C72.7612 31.7429 75.3725 27.3033 75.8948 25.0349C75.8948 25.0349 77.2763 29.5555 79.5338 31.3216C81.7913 33.0877 85.0564 33.4074 86.2357 32.9861C87.415 32.5648 86.9803 31.6565 86.0874 31.1347C85.5883 30.8431 83.5098 30.1388 81.9935 27.3357C80.4772 24.5326 78.624 22.1184 78.624 22.1184C78.624 22.1184 82.9538 21.6161 85.5314 20.3199C88.1091 19.0236 90.4614 16.806 89.9223 15.1188C89.3832 13.4315 83.8104 16.4647 82.4484 17.3304C81.2283 18.106 78.1186 20.1092 78.1186 20.1092C78.1186 20.1092 79.5254 15.1026 79.9297 13.2716C80.2658 11.7498 80.7973 8.95357 79.2762 8.17107C79.1472 8.10474 79.0052 8.06765 78.8633 8.0381Z" fill="#4C4C4C"/>
</svg>
