<svg width="100" height="100" viewBox="0 0 100 100" fill="none" xmlns="http://www.w3.org/2000/svg">
<rect width="100" height="100" fill="#6DF2CC"/>
<path d="M66.7058 23H64.0588H61.4117H58.7646V25.7H61.4117V28.4V31.1V33.8V36.5H64.0588V39.2H61.4117V41.9V44.6V47.3V50V52.7H58.7646V55.4V58.1H61.4117H64.0588V60.8H61.4117V63.5V66.2V68.9V71.6V74.3H58.7646V77H61.4117H64.0588H66.7058H69.3529H71.9999V74.3H69.3529V71.6V68.9V66.2V63.5V60.8H71.9999V58.1H69.3529H66.7058V55.4V52.7H69.3529V50V47.3V44.6V41.9V39.2H71.9999V36.5H69.3529V33.8V31.1V28.4V25.7H71.9999V23H69.3529H66.7058Z" fill="#160E26"/>
<path d="M50.8235 58.1V52.7H53.4706V36.5H50.8235V31.1H48.1765V25.7H45.5294V23H37.5882V25.7H34.9412V31.1H32.2941V36.5H34.9412V39.2H29.6471V52.7H27V58.1H32.2941V60.8H29.6471V74.3H27V77H40.2353V74.3H37.5882V60.8H40.2353V58.1H34.9412V52.7H37.5882V50H45.5294V52.7H42.8823V58.1H48.1765V60.8H45.5294V74.3H42.8823V77H56.1176V74.3H53.4706V60.8H56.1176V58.1H50.8235ZM42.8823 47.3H37.5882V39.2H40.2353V36.5H37.5882V31.1H40.2353V25.7H42.8823V31.1H45.5294V36.5H48.1765V39.2H45.5294V47.3H42.8823Z" fill="#160E26"/>
</svg>
