<svg width="172" height="44" viewBox="0 0 172 44" fill="none" xmlns="http://www.w3.org/2000/svg">
<g clip-path="url(#clip0_157_3545)">
<path d="M28.0609 25.7344C28.0609 26.2615 27.9109 26.751 27.6672 27.1888L28.0609 27.4006V25.7344Z" fill="#008842"/>
<path d="M34.8606 16.3214L34.8653 8.96484L28.0562 12.6361L34.8606 16.3214Z" fill="#004EA2"/>
<path d="M31.8192 8.96484C29.94 8.96484 28.0562 10.2639 28.0562 12.0242V12.6361L34.8653 8.96484H31.8239H31.8192Z" fill="#1D2088"/>
<path d="M28.0562 20.0265L34.8559 23.693L34.8606 16.3223L28.0562 20.0265Z" fill="#00A0E9"/>
<path d="M34.8606 16.3221L28.0562 12.6367V20.0263L34.8606 16.3221Z" fill="#007BC7"/>
<path d="M33.5813 30.3477C34.392 28.9827 34.8559 27.4154 34.8559 25.7492V23.6924L28.0562 27.406L33.5813 30.3524V30.3477Z" fill="#009D85"/>
<path d="M28.0562 20.0264V27.4065L34.8559 23.6929L28.0562 20.0264Z" fill="#009FB9"/>
<path d="M21.1908 31.0911C21.1908 27.7462 21.1908 25.9968 21.1908 25.8431C21.1908 25.2077 20.9846 24.7935 20.6378 24.2852L14.5457 27.3398L21.1861 31.0911H21.1908Z" fill="#45B035"/>
<path d="M20.6423 24.2858C20.0331 23.3915 18.9787 22.7891 17.779 22.7891H14.3909V25.9943C14.3909 26.5309 14.4565 26.8274 14.5502 27.3405L20.6423 24.2858Z" fill="#8FC31F"/>
<path d="M28.0514 34.6733V27.4014L27.0719 27.9332C26.6314 28.3568 26.0644 28.6628 25.4317 28.8134L21.1907 31.0867L28.0514 34.6685V34.6733Z" fill="#005E3C"/>
<path d="M21.1956 25.834V31.0914L25.4319 28.818C25.1695 28.8792 24.8977 28.9216 24.6165 28.9216C22.7842 28.9216 21.308 27.5237 21.1956 25.834Z" fill="#009944"/>
<path d="M27.6672 27.1943C27.5125 27.4673 27.3016 27.7168 27.072 27.938L28.0561 27.4061L27.6625 27.1943H27.6672Z" fill="#009D85"/>
<path d="M28.0562 27.4062V34.6781C29.4995 34.1557 30.3149 33.7133 31.1631 33.059C32.1379 32.3107 32.958 31.3928 33.5813 30.3527L28.0562 27.4062Z" fill="#008842"/>
<path d="M17.8777 32.8758C18.8384 33.6666 19.9584 34.2878 21.1909 34.6926V31.0967L17.8777 32.8805V32.8758Z" fill="#0095A2"/>
<path d="M14.555 27.3398C14.9908 29.472 16.2045 31.5053 17.8775 32.8749L21.1907 31.0911L14.5503 27.3398H14.555Z" fill="#009360"/>
<path d="M21.1907 31.0918V34.6877C22.4044 34.9984 23.5432 35.2008 24.7288 35.2008C25.9144 35.2008 27.0063 35.0125 28.0514 34.6736L21.1907 31.0918Z" fill="#007580"/>
<path d="M20.9002 14.4484C20.7268 15.2109 20.9658 16.1287 21.6031 16.8535C22.0951 17.4136 22.7278 17.7525 23.3464 17.8372H23.3839C23.665 17.8796 23.9322 18.0161 24.1337 18.2514C24.5882 18.7692 24.5414 19.5599 24.0306 20.0212C23.5198 20.4824 22.7325 20.4354 22.2779 19.9176C22.0811 19.687 21.9733 19.4093 21.9686 19.1222V19.0751C21.9592 18.4444 21.7015 17.7666 21.2094 17.2065C20.5721 16.477 19.6911 16.1287 18.9225 16.2181H18.8804C18.1587 16.2981 17.4136 16.0346 16.8934 15.4462C16.0405 14.4719 16.1248 12.9846 17.0855 12.1233C18.0462 11.2572 19.5177 11.3467 20.3706 12.3163C20.8908 12.9093 21.0642 13.6953 20.9002 14.4155L20.8908 14.4484H20.9002Z" fill="url(#paint0_linear_157_3545)"/>
<path d="M24.3867 22.9113C25.0334 22.8595 25.6988 23.0901 26.1909 23.5938C27.0719 24.5022 27.0578 25.9612 26.1628 26.8508C25.2677 27.7451 23.8243 27.731 22.9433 26.8226C22.4466 26.3095 22.2357 25.6271 22.3013 24.9681L22.3107 24.9022C22.4091 24.1445 22.0857 23.2313 21.3828 22.5112C20.708 21.8146 19.8504 21.471 19.1193 21.5228H19.0912C18.5288 21.551 17.9571 21.3487 17.5307 20.9156C17.1323 20.5062 16.9402 19.9743 16.9449 19.4471V19.4236C16.9402 18.5152 16.5137 17.4891 15.7077 16.6608C14.7517 15.6771 13.5145 15.2252 12.5023 15.3899H12.4695C11.4338 15.5923 10.3232 15.277 9.52653 14.458C8.25655 13.1495 8.27061 11.0409 9.5687 9.756C10.8621 8.46636 12.9428 8.48989 14.2175 9.79836C15.0141 10.6173 15.3047 11.7469 15.0938 12.7918L15.0844 12.8295C14.9017 13.8461 15.3234 15.1075 16.2841 16.096C17.0902 16.9243 18.093 17.3762 18.9928 17.3997H19.0396C19.5551 17.4091 20.0659 17.6162 20.4549 18.0163C20.8813 18.4587 21.0688 19.0377 21.0313 19.6072V19.6354C20.9657 20.3744 21.2937 21.2498 21.9686 21.9464C22.6668 22.6665 23.5619 23.0101 24.3117 22.9254L24.4007 22.916L24.3867 22.9113Z" fill="url(#paint1_linear_157_3545)"/>
<path d="M46.7076 24.7416L46.8342 24.9204C47.4762 25.8241 48.1323 26.5207 48.7836 26.9914C49.3929 27.4338 49.9552 27.7445 50.4473 27.9092L51.6798 26.709C51.2627 26.5395 50.8456 26.3324 50.4379 26.0924C49.9505 25.8006 49.5147 25.4287 49.1351 24.9957C48.7555 24.5533 48.4462 24.0308 48.2119 23.4378C47.9776 22.8448 47.8605 22.134 47.8605 21.3339V18.1757H50.6019V16.7637H42.6072V18.1757H45.5689V21.3339C45.5689 22.134 45.447 22.8495 45.208 23.4519C44.969 24.0497 44.655 24.5721 44.2755 25.0004C43.8771 25.4382 43.4366 25.8053 42.9633 26.0971C42.5697 26.3371 42.1666 26.5395 41.7683 26.709L43.0008 27.9139C43.4554 27.7492 43.9943 27.4385 44.6035 26.9961C45.2502 26.5254 45.9157 25.8288 46.5764 24.9251L46.7076 24.7463V24.7416Z" fill="#231815"/>
<path d="M52.6873 33.1285C52.8138 33.1474 53.1559 33.1756 53.3996 33.1756C54.3931 33.1756 54.8992 32.7802 54.8992 31.9989V16.0996H52.6873V20.9193H49.9692V22.336H52.6873V33.1285Z" fill="#231815"/>
<path d="M55.8459 33.1293C55.9725 33.1482 56.188 33.1764 56.4317 33.1764C56.8488 33.1764 57.2706 33.1011 57.5189 32.9552C57.847 32.7622 58.0063 32.4469 58.0063 31.9997V16.0957H55.8459V33.1293Z" fill="#231815"/>
<path d="M80.9079 22.4729L81.0391 22.6518C81.6812 23.5366 82.37 24.2144 83.0823 24.6568C83.7619 25.0804 84.357 25.3723 84.8584 25.5417L86.0909 24.3415C85.6645 24.1673 85.238 23.9508 84.8163 23.6826C84.3101 23.3672 83.8509 22.9718 83.4432 22.5059C83.0355 22.0399 82.7028 21.4845 82.4497 20.8585C82.1966 20.2278 82.0654 19.4889 82.0654 18.6605V16.4766H79.7738V18.6605C79.7738 19.4889 79.6426 20.2325 79.3802 20.8726C79.1225 21.5033 78.7804 22.0634 78.3727 22.5294C77.9509 22.9954 77.4869 23.3907 76.9902 23.6967C76.5778 23.9555 76.1654 24.1721 75.7671 24.3415L76.9996 25.5464C77.4588 25.3817 78.0399 25.0852 78.7241 24.6663C79.4411 24.2285 80.13 23.5508 80.7767 22.6612L80.9079 22.4823V22.4729Z" fill="#231815"/>
<path d="M79.7925 27.6637V31.222C79.7925 31.8245 79.9519 32.2857 80.2705 32.6058C80.5939 32.9305 81.011 33.0859 81.5452 33.0859H90.6787C90.8474 33.0859 91.0021 33.0247 91.152 32.8976C91.2926 32.7752 91.3629 32.5964 91.3629 32.3375V31.6691H82.7964C82.5855 31.6691 82.4122 31.6032 82.2809 31.4667C82.1497 31.3302 82.0794 31.1137 82.0794 30.8031V27.6543H79.7878L79.7925 27.6637Z" fill="#231815"/>
<path d="M88.6636 29.0015C88.7995 29.0204 89.0338 29.0486 89.3009 29.0486C90.3647 29.0486 90.9036 28.6532 90.9036 27.8719V21.6355H93.9122V20.2235H90.9036V16.0957H88.6636V29.0062V29.0015Z" fill="#231815"/>
<path d="M106.861 26.3C106.996 26.3188 107.231 26.347 107.498 26.347C108.562 26.347 109.101 25.9517 109.101 25.1703V21.019H112.109V19.607H109.101V16.124H106.861V26.3Z" fill="#231815"/>
<path d="M94.6575 19.1552H96.6773L96.4804 19.4141C96.218 19.753 96.0165 20.1389 95.8759 20.5531C95.74 20.972 95.665 21.405 95.665 21.8333C95.665 22.3887 95.7681 22.9112 95.9696 23.3913C96.1758 23.8713 96.4617 24.3044 96.8319 24.6715C97.1974 25.0386 97.6473 25.3351 98.1675 25.5469C98.6877 25.7587 99.2641 25.8623 99.8873 25.8623C100.511 25.8623 101.068 25.754 101.588 25.5469C102.109 25.3351 102.559 25.0433 102.924 24.6715C103.294 24.2996 103.585 23.8713 103.796 23.3865C104.007 22.9065 104.114 22.3793 104.114 21.8286C104.114 21.3956 104.039 20.9626 103.894 20.5484C103.749 20.1295 103.547 19.7435 103.299 19.4L103.111 19.1458H105.244V17.7338H101.05V15.9688H98.8611V17.7338H94.6622V19.1458L94.6575 19.1552ZM99.8873 24.3938C99.2781 24.3938 98.758 24.1443 98.3456 23.6548C97.9379 23.1747 97.7317 22.5535 97.7317 21.8145C97.7317 21.0755 97.9379 20.4731 98.3456 19.9836C98.7626 19.4847 99.2781 19.2352 99.8873 19.2352C100.497 19.2352 100.998 19.4894 101.42 19.9836C101.832 20.4731 102.043 21.0897 102.043 21.8145C102.043 22.5393 101.832 23.17 101.42 23.6548C100.998 24.1443 100.482 24.3938 99.8873 24.3938Z" fill="#231815"/>
<path d="M106.86 33.1294C106.996 33.153 107.231 33.1765 107.498 33.1765C107.943 33.1765 108.318 33.1012 108.585 32.9506C108.932 32.7576 109.1 32.4423 109.1 31.9998V26.8789H97.7502V28.2909H106.86V33.1247V33.1294Z" fill="#231815"/>
<path d="M144.224 19.6021V16.1191H141.984V25.8903C142.12 25.9138 142.354 25.9374 142.617 25.9374C143.681 25.9374 144.219 25.542 144.219 24.756V21.0094H147.228V19.5974H144.219L144.224 19.6021Z" fill="#231815"/>
<path d="M136.379 24.9588C136.899 24.7705 137.345 24.4975 137.715 24.1539C138.085 23.8103 138.376 23.4055 138.582 22.9443C138.793 22.4877 138.896 21.9747 138.896 21.4193C138.896 20.9863 138.826 20.5768 138.69 20.2144C138.554 19.8473 138.362 19.5084 138.127 19.2024L137.926 18.9436H140.03V17.5316H135.836V15.9736H133.642V17.5316H129.444V18.9436H131.435L131.22 19.2072C130.971 19.5084 130.779 19.8473 130.653 20.2097C130.521 20.5768 130.456 20.9816 130.456 21.4146C130.456 21.97 130.559 22.483 130.76 22.9396C130.962 23.3961 131.252 23.8056 131.618 24.1445C131.984 24.4881 132.433 24.7564 132.954 24.9494C133.474 25.1423 134.055 25.2412 134.678 25.2412C135.301 25.2412 135.859 25.1423 136.384 24.9494L136.379 24.9588ZM133.094 23.109C132.71 22.6713 132.518 22.0971 132.518 21.4005C132.518 20.7039 132.71 20.1626 133.094 19.7155C133.483 19.2589 134.013 19.0283 134.678 19.0283C135.344 19.0283 135.854 19.2589 136.253 19.7155C136.642 20.1626 136.839 20.7321 136.839 21.4005C136.839 22.0688 136.642 22.6572 136.253 23.0996C135.859 23.5467 135.334 23.7727 134.683 23.7727C134.031 23.7727 133.488 23.5515 133.104 23.109H133.094Z" fill="#231815"/>
<path d="M141.975 28.0927H135.831V26.4736H133.596V31.2227C133.596 31.8252 133.755 32.2911 134.074 32.6065C134.397 32.9313 134.814 33.0866 135.348 33.0866H141.783C142.603 33.0866 143.198 32.8465 143.606 32.3523C144.013 31.8534 144.215 31.2462 144.215 30.5402V26.4736H141.975V28.0927ZM141.979 30.5402C141.979 30.8226 141.909 31.0297 141.773 31.1568C141.633 31.2839 141.445 31.3545 141.211 31.3545H136.225C136.103 31.3545 136.009 31.3216 135.939 31.2462C135.873 31.1756 135.836 31.0203 135.836 30.8132V29.8107H141.979V30.5449V30.5402Z" fill="#231815"/>
<path d="M151.741 27.0902H154.032V24.1956H159.445V22.8636H155.719L155.977 22.5906C156.296 22.2517 156.558 21.861 156.755 21.428C156.971 20.9573 157.078 20.4349 157.078 19.8889C157.078 19.3429 156.961 18.8299 156.727 18.3404C156.493 17.8415 156.183 17.3991 155.808 17.0272C155.424 16.6648 154.974 16.3683 154.468 16.1424C153.418 15.6764 152.233 15.7188 151.258 16.1424C150.743 16.3683 150.297 16.6648 149.922 17.0272C149.538 17.4038 149.238 17.8415 149.027 18.3357C148.816 18.8252 148.713 19.3476 148.713 19.8889C148.713 20.4302 148.821 20.9573 149.027 21.428C149.219 21.861 149.482 22.2517 149.81 22.5859L150.077 22.8589H147.176V24.1909H151.741V27.0855V27.0902ZM151.464 21.8281C151.066 21.3245 150.86 20.6702 150.86 19.8889C150.86 19.1076 151.071 18.4204 151.483 17.9121C151.905 17.3991 152.383 17.1355 152.908 17.1355C153.47 17.1355 153.957 17.3991 154.351 17.9168C154.74 18.4204 154.932 19.0841 154.932 19.8889C154.932 20.6938 154.721 21.3056 154.309 21.8187C153.892 22.3411 153.409 22.6047 152.884 22.6047C152.359 22.6047 151.867 22.3458 151.46 21.8281H151.464Z" fill="#231815"/>
<path d="M154.749 31.6706C154.538 31.6706 154.365 31.6047 154.234 31.4682C154.098 31.3365 154.032 31.1199 154.032 30.8093V28.5312H151.741V31.2235C151.741 31.826 151.9 32.2919 152.219 32.6073C152.537 32.932 152.959 33.0874 153.493 33.0874H161.896C162.065 33.0874 162.219 33.0262 162.369 32.8991C162.51 32.7767 162.58 32.5979 162.58 32.339V31.6706H154.749Z" fill="#231815"/>
<path d="M155.448 26.8833H160.317V29.0014C160.453 29.0202 160.687 29.0484 160.954 29.0484C162.018 29.0484 162.557 28.6531 162.557 27.8717V16.0908H160.317V25.5702H155.448V26.8833Z" fill="#231815"/>
<path d="M67.3178 20.9805L67.449 21.1641C67.8052 21.6677 68.2504 22.1007 68.7658 22.4443C69.2907 22.7926 69.8343 23.0891 70.3873 23.3198C70.9262 23.5504 71.4511 23.734 71.9525 23.8705C72.4071 23.9928 72.796 24.0917 73.1006 24.1576L74.1597 22.7879C73.7192 22.6891 73.2225 22.5432 72.6742 22.3596C72.0134 22.1384 71.3714 21.8277 70.7575 21.4324C70.153 21.037 69.6234 20.5475 69.1829 19.9686C68.733 19.3755 68.494 18.6507 68.48 17.8082V17.6435H73.5599V16.2314H61.0241V17.6435H66.1931V17.8129C66.1556 18.6554 65.9166 19.3802 65.4761 19.9686C65.0403 20.5475 64.506 21.0323 63.8874 21.4135C63.2923 21.8042 62.6503 22.1148 61.9801 22.3408C61.4365 22.5243 60.9445 22.6702 60.5227 22.7832L61.5865 24.1576C61.8161 24.1058 62.1442 24.0211 62.6034 23.894C63.1002 23.7575 63.6391 23.5645 64.1967 23.3245C64.7403 23.0844 65.298 22.7832 65.851 22.4255C66.3852 22.0819 66.8398 21.6583 67.1959 21.1641L67.3272 20.9805H67.3178Z" fill="#231815"/>
<path d="M66.2119 33.1293C66.3478 33.1529 66.5821 33.1764 66.8492 33.1764C67.2944 33.1764 67.6693 33.1011 67.9364 32.9505C68.2832 32.7575 68.4566 32.4421 68.4566 31.9997V27.2177H75.4907V25.8057H59.1262V27.2177H66.2119V33.1293Z" fill="#231815"/>
<path d="M120.422 22.9954C123.333 22.9954 125.69 21.2915 125.69 19.1876C125.69 17.0837 123.328 15.3799 120.422 15.3799C117.517 15.3799 115.155 17.0837 115.155 19.1876C115.155 21.2915 117.517 22.9954 120.422 22.9954ZM120.422 16.6836C122.114 16.6836 123.487 17.8038 123.487 19.1876C123.487 20.5714 122.114 21.6916 120.422 21.6916C118.731 21.6916 117.358 20.5714 117.358 19.1876C117.358 17.8038 118.731 16.6836 120.422 16.6836Z" fill="#231815"/>
<path d="M129.406 24.8551V23.3301H111.439V24.8551H116.064V27.3449C115.488 27.9521 115.155 28.691 115.155 29.4818C115.155 31.5857 117.517 33.2895 120.423 33.2895C123.328 33.2895 125.69 31.5857 125.69 29.4818C125.69 28.691 125.352 27.9521 124.781 27.3449V24.8551H129.406ZM120.423 31.9904C118.731 31.9904 117.358 30.8702 117.358 29.4865C117.358 28.1027 118.731 26.9825 120.423 26.9825C122.114 26.9825 123.487 28.1027 123.487 29.4865C123.487 30.8702 122.114 31.9904 120.423 31.9904ZM122.531 25.9941C121.885 25.7917 121.172 25.674 120.423 25.674C119.673 25.674 118.96 25.7917 118.314 25.9941V24.8503H122.531V25.9941Z" fill="#231815"/>
</g>
<defs>
<linearGradient id="paint0_linear_157_3545" x1="16.795" y1="11.8032" x2="24.7909" y2="20.7255" gradientUnits="userSpaceOnUse">
<stop stop-color="#FDD000"/>
<stop offset="0.31" stop-color="#FFF100"/>
<stop offset="0.64" stop-color="#9DC93A"/>
<stop offset="1" stop-color="#00713F"/>
</linearGradient>
<linearGradient id="paint1_linear_157_3545" x1="9.25004" y1="9.25709" x2="25.3531" y2="26.7715" gradientUnits="userSpaceOnUse">
<stop stop-color="#FDD000"/>
<stop offset="0.24" stop-color="#FFF100"/>
<stop offset="0.61" stop-color="#9DC93A"/>
<stop offset="1" stop-color="#00713F"/>
</linearGradient>
<clipPath id="clip0_157_3545">
<rect width="154" height="26.4" fill="white" transform="translate(8.58008 8.7998)"/>
</clipPath>
</defs>
</svg>
