<svg width="1145" height="132" viewBox="0 0 1145 132" fill="none" xmlns="http://www.w3.org/2000/svg">
<path d="M119.63 0H112.593H105.556H98.5187H91.4816H84.4446H77.4076V6.6V13.2H70.3705V19.8V26.4V33H77.4076V39.6H70.3705V46.2V52.8V59.4V66V72.6H63.3335V79.2V85.8H70.3705H77.4076V92.4H70.3705V99V105.6V112.2V118.8H77.4076V125.4V132H84.4446H91.4816H98.5187H105.556H112.593H119.63V125.4H126.667V118.8V112.2V105.6H119.63V112.2H112.593V118.8V125.4H105.556H98.5187V118.8V112.2H91.4816V105.6V99V92.4H98.5187V85.8H91.4816H84.4446V79.2V72.6H91.4816H98.5187H105.556H112.593V66H119.63V59.4H112.593H105.556H98.5187H91.4816V52.8V46.2V39.6H98.5187V33H91.4816V26.4V19.8H98.5187V13.2V6.6H105.556H112.593V13.2V19.8H119.63V26.4H126.667V19.8V13.2V6.6H119.63V0Z" fill="#FF1D6E"/>
<path d="M182.963 0H175.926H168.889H161.852H154.815H147.778H140.741V6.6H147.778H154.815H161.852H168.889V13.2V19.8V26.4V33H175.926V39.6H168.889V46.2V52.8V59.4V66V72.6H161.852V79.2V85.8H168.889H175.926V92.4H168.889V99V105.6V112.2V118.8V125.4H161.852H154.815V118.8V112.2H147.778V105.6V99V92.4H140.741H133.704V99V105.6V112.2H140.741V118.8V125.4H147.778V132H154.815H161.852H168.889H175.926V125.4H182.963V118.8H190V112.2V105.6V99V92.4H197.037V85.8H190H182.963V79.2V72.6H190V66V59.4V52.8V46.2V39.6H197.037V33H190V26.4V19.8V13.2V6.6H197.037V0H190H182.963Z" fill="#FF1D6E"/>
<path d="M267.407 0H260.37H253.333H246.296V6.6H253.333V13.2V19.8V26.4V33H260.37V39.6H253.333V46.2V52.8V59.4V66V72.6H246.296V79.2V85.8H253.333H260.37V92.4H253.333V99V105.6V112.2V118.8V125.4H260.37H267.407V118.8H274.445V112.2V105.6V99V92.4H281.482V85.8H274.445H267.407V79.2V72.6H274.445V66V59.4V52.8V46.2V39.6H281.482V33H274.445V26.4V19.8V13.2V6.6H281.482V0H274.445H267.407Z" fill="#FF1D6E"/>
<path d="M408.148 0H401.111H394.074H387.037V6.6H394.074V13.2V19.8V26.4V33H401.111V39.6H394.074V46.2V52.8V59.4V66V72.6H387.037V79.2V85.8H394.074H401.111V92.4H394.074V99V105.6V112.2V118.8V125.4H387.037V132H394.074H401.111H408.148H415.185H422.222V125.4H415.185V118.8V112.2V105.6V99V92.4H422.222V85.8H415.185H408.148V79.2V72.6H415.185V66V59.4V52.8V46.2V39.6H422.222V33H415.185V26.4V19.8V13.2V6.6H422.222V0H415.185H408.148Z" fill="#FF1D6E"/>
<path d="M555.926 6.6H562.963V0H555.926H548.889H541.852V6.6H548.889H555.926Z" fill="#FF1D6E"/>
<path d="M781.111 0H774.074H767.037H760H752.963H745.926H738.889V6.6V13.2H731.852V19.8V26.4V33H738.889V39.6H731.852V46.2V52.8V59.4V66V72.6H724.815V79.2V85.8H731.852H738.889V92.4H731.852V99V105.6V112.2V118.8H738.889V125.4V132H745.926H752.963H760H767.037H774.074H781.111V125.4H788.148V118.8V112.2V105.6H781.111V112.2H774.074V118.8V125.4H767.037H760V118.8V112.2H752.963V105.6V99V92.4H760V85.8H752.963H745.926V79.2V72.6H752.963H760H767.037H774.074V66H781.111V59.4H774.074H767.037H760H752.963V52.8V46.2V39.6H760V33H752.963V26.4V19.8H760V13.2V6.6H767.037H774.074V13.2V19.8H781.111V26.4H788.148V19.8V13.2V6.6H781.111V0Z" fill="#FF1D6E"/>
<path d="M1132.96 6.6V0H1125.93H1118.89H1111.85H1104.82H1097.78H1090.74V6.6V13.2H1083.7V19.8V26.4V33H1090.74V39.6H1083.7V46.2V52.8V59.4V66V72.6H1076.67V79.2V85.8H1083.7H1090.74V92.4H1083.7V99V105.6V112.2V118.8H1090.74V125.4V132H1097.78H1104.82H1111.85H1118.89H1125.93H1132.96V125.4H1140V118.8V112.2V105.6H1132.96V112.2H1125.93V118.8V125.4H1118.89H1111.85V118.8V112.2H1104.82V105.6V99V92.4H1111.85V85.8H1104.82H1097.78V79.2V72.6H1104.82H1111.85H1118.89H1125.93V66H1132.96V59.4H1125.93H1118.89H1111.85H1104.82V52.8V46.2V39.6H1111.85V33H1104.82V26.4V19.8H1111.85V13.2V6.6H1118.89H1125.93V13.2V19.8H1132.96V26.4H1140V19.8V13.2V6.6H1132.96Z" fill="#FF1D6E"/>
<path d="M724.815 26.4V19.8V13.2V6.6H717.778V0H710.741H703.704H696.667H689.63H682.593H675.556V6.6V13.2H668.518V19.8V26.4V33H675.556V39.6H668.518V46.2V52.8V59.4H661.481V66V72.6V79.2V85.8H668.518H675.556V92.4H668.518V99V105.6V112.2V118.8V125.4H661.481V132H668.518H675.556H682.593H689.63H696.667H703.704V125.4H696.667H689.63V118.8V112.2V105.6V99V92.4H696.667V85.8H689.63H682.593V79.2V72.6H689.63H696.667H703.704H710.741V66H717.778V59.4H710.741H703.704H696.667H689.63V52.8V46.2V39.6H696.667V33H689.63V26.4V19.8H696.667V13.2V6.6H703.704H710.741V13.2V19.8H717.778V26.4H724.815Z" fill="#FF1D6E"/>
<path d="M513.704 33V26.4V19.8H506.667V13.2V6.6H499.63V0H492.593H485.556H478.519H471.482V6.6H464.445V13.2H457.408V19.8V26.4H450.371V33H457.408V39.6H450.371V46.2V52.8V59.4V66V72.6H443.333V79.2V85.8H450.371H457.408V92.4H450.371V99V105.6H457.408V112.2V118.8H464.445V125.4H471.482V132H478.519H485.556H492.593H499.63V125.4H506.667V118.8V112.2H513.704V105.6V99V92.4H506.667H499.63V99V105.6V112.2H492.593V118.8V125.4H485.556H478.519V118.8V112.2H471.482V105.6V99V92.4H478.519V85.8H471.482H464.445V79.2V72.6H471.482V66V59.4V52.8V46.2V39.6H478.519V33H471.482V26.4V19.8H478.519V13.2V6.6H485.556H492.593V13.2V19.8H499.63V26.4V33H506.667V39.6H513.704H520.741V33H513.704Z" fill="#FF1D6E"/>
<path d="M1076.67 33V26.4V19.8H1069.63V13.2V6.6H1062.59V0H1055.56H1048.52H1041.48H1034.44V6.6H1027.41V13.2H1020.37V19.8V26.4H1013.33V33H1020.37V39.6H1013.33V46.2V52.8V59.4V66V72.6H1006.3V79.2V85.8H999.259V79.2V72.6H1006.3V66V59.4V52.8V46.2V39.6H1013.33V33H1006.3V26.4V19.8V13.2V6.6H999.259V0H992.222V6.6H985.185V13.2V19.8V26.4V33H992.222V39.6H985.185V46.2V52.8V59.4V66V72.6H978.148V79.2H971.111V85.8H978.148H985.185V92.4H978.148V99V105.6H985.185V112.2V118.8V125.4H992.222V132H999.259V125.4H1006.3V118.8V112.2V105.6V99V92.4H1013.33V85.8H1020.37V92.4H1013.33V99V105.6H1020.37V112.2V118.8H1027.41V125.4H1034.44V132H1041.48H1048.52H1055.56H1062.59V125.4H1069.63V118.8V112.2H1076.67V105.6V99V92.4H1069.63H1062.59V99V105.6V112.2H1055.56V118.8V125.4H1048.52H1041.48V118.8V112.2H1034.44V105.6V99V92.4H1041.48V85.8H1034.44H1027.41V79.2V72.6H1034.44V66V59.4V52.8V46.2V39.6H1041.48V33H1034.44V26.4V19.8H1041.48V13.2V6.6H1048.52H1055.56V13.2V19.8H1062.59V26.4V33H1069.63V39.6H1076.67H1083.7V33H1076.67Z" fill="#FF1D6E"/>
<path d="M619.259 66V72.6H626.296V66V59.4V52.8H619.259V59.4V66Z" fill="#FF1D6E"/>
<path d="M971.111 66V72.6H978.148V66V59.4V52.8H971.111V59.4V66Z" fill="#FF1D6E"/>
<path d="M619.259 72.6H612.222V79.2H619.259V72.6Z" fill="#FF1D6E"/>
<path d="M971.111 72.6H964.074V79.2H971.111V72.6Z" fill="#FF1D6E"/>
<path d="M49.2593 85.8V79.2V72.6H56.2963V66V59.4V52.8V46.2V39.6H63.3333V33H56.2963V26.4V19.8V13.2V6.6H63.3333V0H56.2963H49.2593H42.2222H35.1852H28.1481H21.1111H14.0741H7.03704V6.6H14.0741H21.1111H28.1481H35.1852V13.2V19.8V26.4V33H42.2222V39.6H35.1852V46.2V52.8V59.4V66V72.6H28.1481V79.2V85.8H35.1852H42.2222V92.4H35.1852V99V105.6V112.2V118.8V125.4H28.1481H21.1111V118.8V112.2H14.0741V105.6V99V92.4H7.03704H0V99V105.6V112.2H7.03704V118.8V125.4H14.0741V132H21.1111H28.1481H35.1852H42.2222V125.4H49.2593V118.8H56.2963V112.2V105.6V99V92.4H63.3333V85.8H56.2963H49.2593Z" fill="#FF1D6E"/>
<path d="M365.926 85.8V72.6H372.963V33H365.926V19.8H358.889V6.6H351.852V0H330.741V6.6H323.704V19.8H316.667V33H323.704V39.6H309.63V72.6H302.593V85.8H316.667V92.4H309.63V125.4H302.593V132H337.778V125.4H330.741V92.4H337.778V85.8H323.704V72.6H330.741V66H351.852V72.6H344.815V85.8H358.889V92.4H351.852V125.4H344.815V132H380V125.4H372.963V92.4H380V85.8H365.926ZM344.815 59.4H330.741V39.6H337.778V33H330.741V19.8H337.778V6.6H344.815V19.8H351.852V33H358.889V39.6H351.852V59.4H344.815Z" fill="#FF1D6E"/>
<path d="M605.185 85.8V79.2V72.6H612.222V66V59.4V52.8H619.259V46.2V39.6H626.296V33H619.259V26.4H612.222V19.8V13.2V6.6H605.185V0H598.148V6.6H591.111V13.2V19.8V26.4V33H598.148V39.6H591.111V46.2V52.8V59.4V66V72.6H584.074V79.2V85.8H577.037V79.2V72.6H584.074V66V59.4V52.8V46.2V39.6H591.111V33H584.074V26.4V19.8H577.037V13.2V6.6H570H562.963V13.2V19.8V26.4V33H570V39.6H562.963V46.2V52.8V59.4V66V72.6H555.926V79.2V85.8H562.963H570V92.4H562.963V99V105.6V112.2V118.8V125.4H570H577.037V118.8H584.074V112.2V105.6V99V92.4H591.111V85.8H598.148V92.4H591.111V99V105.6V112.2V118.8V125.4H598.148V132H605.185V125.4H612.222V118.8V112.2V105.6V99V92.4H619.259V85.8H612.222H605.185Z" fill="#FF1D6E"/>
<path d="M647.407 85.8V79.2V72.6H654.444V66V59.4V52.8V46.2V39.6H661.482V33H654.444V26.4V19.8V13.2V6.6H647.407V0H640.37V6.6H633.333V13.2V19.8V26.4V33H640.37V39.6H633.333V46.2V52.8V59.4V66V72.6H626.296V79.2H619.259V85.8H626.296H633.333V92.4H626.296V99V105.6H633.333V112.2V118.8V125.4H640.37V132H647.407V125.4H654.444V118.8V112.2V105.6V99V92.4H661.482V85.8H654.444H647.407Z" fill="#FF1D6E"/>
<path d="M858.518 85.8V79.2H851.481V59.4H858.518V52.8H865.555V39.6H872.592V33H865.555V13.2H858.518V6.6H851.481V0H809.259V6.6H802.222V33H809.259V39.6H802.222V72.6H795.185V85.8H809.259V92.4H802.222V125.4H795.185V132H830.37V125.4H823.333V92.4H830.37V85.8H816.296V72.6H830.37V79.2H837.407V85.8H851.481V92.4H844.444V125.4H837.407V132H872.592V125.4H865.555V92.4H872.592V85.8H858.518ZM837.407 6.6V13.2H844.444V19.8H851.481V33H858.518V39.6H851.481V46.2H844.444V52.8H837.407V59.4H823.333V39.6H830.37V33H823.333V13.2H830.37V6.6H837.407Z" fill="#FF1D6E"/>
<path d="M957.037 85.8V79.2V72.6H964.074V66V59.4V52.8H971.111V46.2V39.6H978.148V33H971.111V26.4H964.074V19.8V13.2V6.6H957.037V0H950V6.6H942.963V13.2V19.8V26.4V33H950V39.6H942.963V46.2V52.8V59.4V66V72.6H935.926V79.2V85.8H942.963H950V92.4H942.963V99V105.6V112.2V118.8V125.4H950V132H957.037V125.4H964.074V118.8V112.2V105.6V99V92.4H971.111V85.8H964.074H957.037Z" fill="#FF1D6E"/>
<path d="M928.889 112.2H921.852V118.8V125.4H914.815H907.778V118.8V112.2H900.741V105.6V99V92.4H907.778V85.8H900.741H893.704V79.2V72.6H900.741H907.778H914.815H921.852V66H928.889V59.4H921.852H914.815H907.778H900.741V52.8V46.2V39.6H907.778V33H900.741V26.4V19.8H907.778V13.2V6.6H914.815H921.852V13.2V19.8H928.889V26.4H935.926V19.8V13.2V6.6H928.889V0H921.852H914.815H907.778H900.741H893.704H886.667V6.6V13.2H879.63V19.8V26.4V33H886.667V39.6H879.63V46.2V52.8V59.4V66V72.6H872.593V79.2V85.8H879.63H886.667V92.4H879.63V99V105.6V112.2V118.8H886.667V125.4V132H893.704H900.741H907.778H914.815H921.852H928.889V125.4H935.926V118.8V112.2V105.6H928.889V112.2Z" fill="#FF1D6E"/>
<path d="M232.222 112.2V105.6V99V92.4H239.259V85.8H232.222H225.185V79.2V72.6H232.222V66V59.4V52.8V46.2V39.6H239.259V33H232.222V26.4V19.8V13.2V6.6H239.259V0H232.222H225.185H218.148H211.111H204.074V6.6H211.111V13.2V19.8V26.4V33H218.148V39.6H211.111V46.2V52.8V59.4V66V72.6H204.074V79.2V85.8H211.111H218.148V92.4H211.111V99V105.6V112.2V118.8H218.148V125.4H225.185H232.222V118.8V112.2Z" fill="#FF1D6E"/>
<path d="M541.852 112.2V105.6V99V92.4H548.889V85.8H541.852H534.815V79.2V72.6H541.852V66V59.4V52.8V46.2V39.6H548.889V33H541.852V26.4V19.8V13.2V6.60001H534.815H527.778V13.2V19.8H520.741V26.4V33H527.778V39.6H520.741V46.2V52.8V59.4V66V72.6H513.704V79.2V85.8H520.741H527.778V92.4H520.741V99V105.6V112.2V118.8H527.778V125.4H534.815H541.852V118.8V112.2Z" fill="#FF1D6E"/>
<path d="M239.259 125.4H232.222V132H239.259H246.296H253.333V125.4H246.296H239.259Z" fill="#FF1D6E"/>
<path d="M548.889 125.4H541.852V132H548.889H555.926H562.963V125.4H555.926H548.889Z" fill="#FF1D6E"/>
<path d="M124.63 0H117.593H110.556H103.519H96.4816H89.4446H82.4076V6.6V13.2H75.3705V19.8V26.4V33H82.4076V39.6H75.3705V46.2V52.8V59.4V66V72.6H68.3335V79.2V85.8H75.3705H82.4076V92.4H75.3705V99V105.6V112.2V118.8H82.4076V125.4V132H89.4446H96.4816H103.519H110.556H117.593H124.63V125.4H131.667V118.8V112.2V105.6H124.63V112.2H117.593V118.8V125.4H110.556H103.519V118.8V112.2H96.4816V105.6V99V92.4H103.519V85.8H96.4816H89.4446V79.2V72.6H96.4816H103.519H110.556H117.593V66H124.63V59.4H117.593H110.556H103.519H96.4816V52.8V46.2V39.6H103.519V33H96.4816V26.4V19.8H103.519V13.2V6.6H110.556H117.593V13.2V19.8H124.63V26.4H131.667V19.8V13.2V6.6H124.63V0Z" fill="#60FFFF"/>
<path d="M187.963 0H180.926H173.889H166.852H159.815H152.778H145.741V6.6H152.778H159.815H166.852H173.889V13.2V19.8V26.4V33H180.926V39.6H173.889V46.2V52.8V59.4V66V72.6H166.852V79.2V85.8H173.889H180.926V92.4H173.889V99V105.6V112.2V118.8V125.4H166.852H159.815V118.8V112.2H152.778V105.6V99V92.4H145.741H138.704V99V105.6V112.2H145.741V118.8V125.4H152.778V132H159.815H166.852H173.889H180.926V125.4H187.963V118.8H195V112.2V105.6V99V92.4H202.037V85.8H195H187.963V79.2V72.6H195V66V59.4V52.8V46.2V39.6H202.037V33H195V26.4V19.8V13.2V6.6H202.037V0H195H187.963Z" fill="#60FFFF"/>
<path d="M272.407 0H265.37H258.333H251.296V6.6H258.333V13.2V19.8V26.4V33H265.37V39.6H258.333V46.2V52.8V59.4V66V72.6H251.296V79.2V85.8H258.333H265.37V92.4H258.333V99V105.6V112.2V118.8V125.4H265.37H272.407V118.8H279.445V112.2V105.6V99V92.4H286.482V85.8H279.445H272.407V79.2V72.6H279.445V66V59.4V52.8V46.2V39.6H286.482V33H279.445V26.4V19.8V13.2V6.6H286.482V0H279.445H272.407Z" fill="#60FFFF"/>
<path d="M413.148 0H406.111H399.074H392.037V6.6H399.074V13.2V19.8V26.4V33H406.111V39.6H399.074V46.2V52.8V59.4V66V72.6H392.037V79.2V85.8H399.074H406.111V92.4H399.074V99V105.6V112.2V118.8V125.4H392.037V132H399.074H406.111H413.148H420.185H427.222V125.4H420.185V118.8V112.2V105.6V99V92.4H427.222V85.8H420.185H413.148V79.2V72.6H420.185V66V59.4V52.8V46.2V39.6H427.222V33H420.185V26.4V19.8V13.2V6.6H427.222V0H420.185H413.148Z" fill="#60FFFF"/>
<path d="M560.926 6.6H567.963V0H560.926H553.889H546.852V6.6H553.889H560.926Z" fill="#60FFFF"/>
<path d="M786.111 0H779.074H772.037H765H757.963H750.926H743.889V6.6V13.2H736.852V19.8V26.4V33H743.889V39.6H736.852V46.2V52.8V59.4V66V72.6H729.815V79.2V85.8H736.852H743.889V92.4H736.852V99V105.6V112.2V118.8H743.889V125.4V132H750.926H757.963H765H772.037H779.074H786.111V125.4H793.148V118.8V112.2V105.6H786.111V112.2H779.074V118.8V125.4H772.037H765V118.8V112.2H757.963V105.6V99V92.4H765V85.8H757.963H750.926V79.2V72.6H757.963H765H772.037H779.074V66H786.111V59.4H779.074H772.037H765H757.963V52.8V46.2V39.6H765V33H757.963V26.4V19.8H765V13.2V6.6H772.037H779.074V13.2V19.8H786.111V26.4H793.148V19.8V13.2V6.6H786.111V0Z" fill="#60FFFF"/>
<path d="M1137.96 6.6V0H1130.93H1123.89H1116.85H1109.82H1102.78H1095.74V6.6V13.2H1088.7V19.8V26.4V33H1095.74V39.6H1088.7V46.2V52.8V59.4V66V72.6H1081.67V79.2V85.8H1088.7H1095.74V92.4H1088.7V99V105.6V112.2V118.8H1095.74V125.4V132H1102.78H1109.82H1116.85H1123.89H1130.93H1137.96V125.4H1145V118.8V112.2V105.6H1137.96V112.2H1130.93V118.8V125.4H1123.89H1116.85V118.8V112.2H1109.82V105.6V99V92.4H1116.85V85.8H1109.82H1102.78V79.2V72.6H1109.82H1116.85H1123.89H1130.93V66H1137.96V59.4H1130.93H1123.89H1116.85H1109.82V52.8V46.2V39.6H1116.85V33H1109.82V26.4V19.8H1116.85V13.2V6.6H1123.89H1130.93V13.2V19.8H1137.96V26.4H1145V19.8V13.2V6.6H1137.96Z" fill="#60FFFF"/>
<path d="M729.815 26.4V19.8V13.2V6.6H722.778V0H715.741H708.704H701.667H694.63H687.593H680.556V6.6V13.2H673.518V19.8V26.4V33H680.556V39.6H673.518V46.2V52.8V59.4H666.481V66V72.6V79.2V85.8H673.518H680.556V92.4H673.518V99V105.6V112.2V118.8V125.4H666.481V132H673.518H680.556H687.593H694.63H701.667H708.704V125.4H701.667H694.63V118.8V112.2V105.6V99V92.4H701.667V85.8H694.63H687.593V79.2V72.6H694.63H701.667H708.704H715.741V66H722.778V59.4H715.741H708.704H701.667H694.63V52.8V46.2V39.6H701.667V33H694.63V26.4V19.8H701.667V13.2V6.6H708.704H715.741V13.2V19.8H722.778V26.4H729.815Z" fill="#60FFFF"/>
<path d="M518.704 33V26.4V19.8H511.667V13.2V6.6H504.63V0H497.593H490.556H483.519H476.482V6.6H469.445V13.2H462.408V19.8V26.4H455.371V33H462.408V39.6H455.371V46.2V52.8V59.4V66V72.6H448.333V79.2V85.8H455.371H462.408V92.4H455.371V99V105.6H462.408V112.2V118.8H469.445V125.4H476.482V132H483.519H490.556H497.593H504.63V125.4H511.667V118.8V112.2H518.704V105.6V99V92.4H511.667H504.63V99V105.6V112.2H497.593V118.8V125.4H490.556H483.519V118.8V112.2H476.482V105.6V99V92.4H483.519V85.8H476.482H469.445V79.2V72.6H476.482V66V59.4V52.8V46.2V39.6H483.519V33H476.482V26.4V19.8H483.519V13.2V6.6H490.556H497.593V13.2V19.8H504.63V26.4V33H511.667V39.6H518.704H525.741V33H518.704Z" fill="#60FFFF"/>
<path d="M1081.67 33V26.4V19.8H1074.63V13.2V6.6H1067.59V0H1060.56H1053.52H1046.48H1039.44V6.6H1032.41V13.2H1025.37V19.8V26.4H1018.33V33H1025.37V39.6H1018.33V46.2V52.8V59.4V66V72.6H1011.3V79.2V85.8H1004.26V79.2V72.6H1011.3V66V59.4V52.8V46.2V39.6H1018.33V33H1011.3V26.4V19.8V13.2V6.6H1004.26V0H997.222V6.6H990.185V13.2V19.8V26.4V33H997.222V39.6H990.185V46.2V52.8V59.4V66V72.6H983.148V79.2H976.111V85.8H983.148H990.185V92.4H983.148V99V105.6H990.185V112.2V118.8V125.4H997.222V132H1004.26V125.4H1011.3V118.8V112.2V105.6V99V92.4H1018.33V85.8H1025.37V92.4H1018.33V99V105.6H1025.37V112.2V118.8H1032.41V125.4H1039.44V132H1046.48H1053.52H1060.56H1067.59V125.4H1074.63V118.8V112.2H1081.67V105.6V99V92.4H1074.63H1067.59V99V105.6V112.2H1060.56V118.8V125.4H1053.52H1046.48V118.8V112.2H1039.44V105.6V99V92.4H1046.48V85.8H1039.44H1032.41V79.2V72.6H1039.44V66V59.4V52.8V46.2V39.6H1046.48V33H1039.44V26.4V19.8H1046.48V13.2V6.6H1053.52H1060.56V13.2V19.8H1067.59V26.4V33H1074.63V39.6H1081.67H1088.7V33H1081.67Z" fill="#60FFFF"/>
<path d="M624.259 66V72.6H631.296V66V59.4V52.8H624.259V59.4V66Z" fill="#60FFFF"/>
<path d="M976.111 66V72.6H983.148V66V59.4V52.8H976.111V59.4V66Z" fill="#60FFFF"/>
<path d="M624.259 72.6H617.222V79.2H624.259V72.6Z" fill="#60FFFF"/>
<path d="M976.111 72.6H969.074V79.2H976.111V72.6Z" fill="#60FFFF"/>
<path d="M54.2593 85.8V79.2V72.6H61.2963V66V59.4V52.8V46.2V39.6H68.3333V33H61.2963V26.4V19.8V13.2V6.6H68.3333V0H61.2963H54.2593H47.2222H40.1852H33.1481H26.1111H19.0741H12.037V6.6H19.0741H26.1111H33.1481H40.1852V13.2V19.8V26.4V33H47.2222V39.6H40.1852V46.2V52.8V59.4V66V72.6H33.1481V79.2V85.8H40.1852H47.2222V92.4H40.1852V99V105.6V112.2V118.8V125.4H33.1481H26.1111V118.8V112.2H19.0741V105.6V99V92.4H12.037H5V99V105.6V112.2H12.037V118.8V125.4H19.0741V132H26.1111H33.1481H40.1852H47.2222V125.4H54.2593V118.8H61.2963V112.2V105.6V99V92.4H68.3333V85.8H61.2963H54.2593Z" fill="#60FFFF"/>
<path d="M370.926 85.8V72.6H377.963V33H370.926V19.8H363.889V6.6H356.852V0H335.741V6.6H328.704V19.8H321.667V33H328.704V39.6H314.63V72.6H307.593V85.8H321.667V92.4H314.63V125.4H307.593V132H342.778V125.4H335.741V92.4H342.778V85.8H328.704V72.6H335.741V66H356.852V72.6H349.815V85.8H363.889V92.4H356.852V125.4H349.815V132H385V125.4H377.963V92.4H385V85.8H370.926ZM349.815 59.4H335.741V39.6H342.778V33H335.741V19.8H342.778V6.6H349.815V19.8H356.852V33H363.889V39.6H356.852V59.4H349.815Z" fill="#60FFFF"/>
<path d="M610.185 85.8V79.2V72.6H617.222V66V59.4V52.8H624.259V46.2V39.6H631.296V33H624.259V26.4H617.222V19.8V13.2V6.6H610.185V0H603.148V6.6H596.111V13.2V19.8V26.4V33H603.148V39.6H596.111V46.2V52.8V59.4V66V72.6H589.074V79.2V85.8H582.037V79.2V72.6H589.074V66V59.4V52.8V46.2V39.6H596.111V33H589.074V26.4V19.8H582.037V13.2V6.6H575H567.963V13.2V19.8V26.4V33H575V39.6H567.963V46.2V52.8V59.4V66V72.6H560.926V79.2V85.8H567.963H575V92.4H567.963V99V105.6V112.2V118.8V125.4H575H582.037V118.8H589.074V112.2V105.6V99V92.4H596.111V85.8H603.148V92.4H596.111V99V105.6V112.2V118.8V125.4H603.148V132H610.185V125.4H617.222V118.8V112.2V105.6V99V92.4H624.259V85.8H617.222H610.185Z" fill="#60FFFF"/>
<path d="M652.407 85.8V79.2V72.6H659.444V66V59.4V52.8V46.2V39.6H666.482V33H659.444V26.4V19.8V13.2V6.6H652.407V0H645.37V6.6H638.333V13.2V19.8V26.4V33H645.37V39.6H638.333V46.2V52.8V59.4V66V72.6H631.296V79.2H624.259V85.8H631.296H638.333V92.4H631.296V99V105.6H638.333V112.2V118.8V125.4H645.37V132H652.407V125.4H659.444V118.8V112.2V105.6V99V92.4H666.482V85.8H659.444H652.407Z" fill="#60FFFF"/>
<path d="M863.518 85.8V79.2H856.481V59.4H863.518V52.8H870.555V39.6H877.592V33H870.555V13.2H863.518V6.6H856.481V0H814.259V6.6H807.222V33H814.259V39.6H807.222V72.6H800.185V85.8H814.259V92.4H807.222V125.4H800.185V132H835.37V125.4H828.333V92.4H835.37V85.8H821.296V72.6H835.37V79.2H842.407V85.8H856.481V92.4H849.444V125.4H842.407V132H877.592V125.4H870.555V92.4H877.592V85.8H863.518ZM842.407 6.6V13.2H849.444V19.8H856.481V33H863.518V39.6H856.481V46.2H849.444V52.8H842.407V59.4H828.333V39.6H835.37V33H828.333V13.2H835.37V6.6H842.407Z" fill="#60FFFF"/>
<path d="M962.037 85.8V79.2V72.6H969.074V66V59.4V52.8H976.111V46.2V39.6H983.148V33H976.111V26.4H969.074V19.8V13.2V6.6H962.037V0H955V6.6H947.963V13.2V19.8V26.4V33H955V39.6H947.963V46.2V52.8V59.4V66V72.6H940.926V79.2V85.8H947.963H955V92.4H947.963V99V105.6V112.2V118.8V125.4H955V132H962.037V125.4H969.074V118.8V112.2V105.6V99V92.4H976.111V85.8H969.074H962.037Z" fill="#60FFFF"/>
<path d="M933.889 112.2H926.852V118.8V125.4H919.815H912.778V118.8V112.2H905.741V105.6V99V92.4H912.778V85.8H905.741H898.704V79.2V72.6H905.741H912.778H919.815H926.852V66H933.889V59.4H926.852H919.815H912.778H905.741V52.8V46.2V39.6H912.778V33H905.741V26.4V19.8H912.778V13.2V6.6H919.815H926.852V13.2V19.8H933.889V26.4H940.926V19.8V13.2V6.6H933.889V0H926.852H919.815H912.778H905.741H898.704H891.667V6.6V13.2H884.63V19.8V26.4V33H891.667V39.6H884.63V46.2V52.8V59.4V66V72.6H877.593V79.2V85.8H884.63H891.667V92.4H884.63V99V105.6V112.2V118.8H891.667V125.4V132H898.704H905.741H912.778H919.815H926.852H933.889V125.4H940.926V118.8V112.2V105.6H933.889V112.2Z" fill="#60FFFF"/>
<path d="M237.222 112.2V105.6V99V92.4H244.259V85.8H237.222H230.185V79.2V72.6H237.222V66V59.4V52.8V46.2V39.6H244.259V33H237.222V26.4V19.8V13.2V6.6H244.259V0H237.222H230.185H223.148H216.111H209.074V6.6H216.111V13.2V19.8V26.4V33H223.148V39.6H216.111V46.2V52.8V59.4V66V72.6H209.074V79.2V85.8H216.111H223.148V92.4H216.111V99V105.6V112.2V118.8H223.148V125.4H230.185H237.222V118.8V112.2Z" fill="#60FFFF"/>
<path d="M546.852 112.2V105.6V99V92.4H553.889V85.8H546.852H539.815V79.2V72.6H546.852V66V59.4V52.8V46.2V39.6H553.889V33H546.852V26.4V19.8V13.2V6.60001H539.815H532.778V13.2V19.8H525.741V26.4V33H532.778V39.6H525.741V46.2V52.8V59.4V66V72.6H518.704V79.2V85.8H525.741H532.778V92.4H525.741V99V105.6V112.2V118.8H532.778V125.4H539.815H546.852V118.8V112.2Z" fill="#60FFFF"/>
<path d="M244.259 125.4H237.222V132H244.259H251.296H258.333V125.4H251.296H244.259Z" fill="#60FFFF"/>
<path d="M553.889 125.4H546.852V132H553.889H560.926H567.963V125.4H560.926H553.889Z" fill="#60FFFF"/>
<path d="M122.63 0H115.593H108.556H101.519H94.4816H87.4446H80.4076V6.6V13.2H73.3705V19.8V26.4V33H80.4076V39.6H73.3705V46.2V52.8V59.4V66V72.6H66.3335V79.2V85.8H73.3705H80.4076V92.4H73.3705V99V105.6V112.2V118.8H80.4076V125.4V132H87.4446H94.4816H101.519H108.556H115.593H122.63V125.4H129.667V118.8V112.2V105.6H122.63V112.2H115.593V118.8V125.4H108.556H101.519V118.8V112.2H94.4816V105.6V99V92.4H101.519V85.8H94.4816H87.4446V79.2V72.6H94.4816H101.519H108.556H115.593V66H122.63V59.4H115.593H108.556H101.519H94.4816V52.8V46.2V39.6H101.519V33H94.4816V26.4V19.8H101.519V13.2V6.6H108.556H115.593V13.2V19.8H122.63V26.4H129.667V19.8V13.2V6.6H122.63V0Z" fill="#6DF2CC"/>
<path d="M185.963 0H178.926H171.889H164.852H157.815H150.778H143.741V6.6H150.778H157.815H164.852H171.889V13.2V19.8V26.4V33H178.926V39.6H171.889V46.2V52.8V59.4V66V72.6H164.852V79.2V85.8H171.889H178.926V92.4H171.889V99V105.6V112.2V118.8V125.4H164.852H157.815V118.8V112.2H150.778V105.6V99V92.4H143.741H136.704V99V105.6V112.2H143.741V118.8V125.4H150.778V132H157.815H164.852H171.889H178.926V125.4H185.963V118.8H193V112.2V105.6V99V92.4H200.037V85.8H193H185.963V79.2V72.6H193V66V59.4V52.8V46.2V39.6H200.037V33H193V26.4V19.8V13.2V6.6H200.037V0H193H185.963Z" fill="#6DF2CC"/>
<path d="M270.407 0H263.37H256.333H249.296V6.6H256.333V13.2V19.8V26.4V33H263.37V39.6H256.333V46.2V52.8V59.4V66V72.6H249.296V79.2V85.8H256.333H263.37V92.4H256.333V99V105.6V112.2V118.8V125.4H263.37H270.407V118.8H277.445V112.2V105.6V99V92.4H284.482V85.8H277.445H270.407V79.2V72.6H277.445V66V59.4V52.8V46.2V39.6H284.482V33H277.445V26.4V19.8V13.2V6.6H284.482V0H277.445H270.407Z" fill="#6DF2CC"/>
<path d="M411.148 0H404.111H397.074H390.037V6.6H397.074V13.2V19.8V26.4V33H404.111V39.6H397.074V46.2V52.8V59.4V66V72.6H390.037V79.2V85.8H397.074H404.111V92.4H397.074V99V105.6V112.2V118.8V125.4H390.037V132H397.074H404.111H411.148H418.185H425.222V125.4H418.185V118.8V112.2V105.6V99V92.4H425.222V85.8H418.185H411.148V79.2V72.6H418.185V66V59.4V52.8V46.2V39.6H425.222V33H418.185V26.4V19.8V13.2V6.6H425.222V0H418.185H411.148Z" fill="#6DF2CC"/>
<path d="M558.926 6.6H565.963V0H558.926H551.889H544.852V6.6H551.889H558.926Z" fill="#6DF2CC"/>
<path d="M784.111 0H777.074H770.037H763H755.963H748.926H741.889V6.6V13.2H734.852V19.8V26.4V33H741.889V39.6H734.852V46.2V52.8V59.4V66V72.6H727.815V79.2V85.8H734.852H741.889V92.4H734.852V99V105.6V112.2V118.8H741.889V125.4V132H748.926H755.963H763H770.037H777.074H784.111V125.4H791.148V118.8V112.2V105.6H784.111V112.2H777.074V118.8V125.4H770.037H763V118.8V112.2H755.963V105.6V99V92.4H763V85.8H755.963H748.926V79.2V72.6H755.963H763H770.037H777.074V66H784.111V59.4H777.074H770.037H763H755.963V52.8V46.2V39.6H763V33H755.963V26.4V19.8H763V13.2V6.6H770.037H777.074V13.2V19.8H784.111V26.4H791.148V19.8V13.2V6.6H784.111V0Z" fill="#6DF2CC"/>
<path d="M1135.96 6.6V0H1128.93H1121.89H1114.85H1107.82H1100.78H1093.74V6.6V13.2H1086.7V19.8V26.4V33H1093.74V39.6H1086.7V46.2V52.8V59.4V66V72.6H1079.67V79.2V85.8H1086.7H1093.74V92.4H1086.7V99V105.6V112.2V118.8H1093.74V125.4V132H1100.78H1107.82H1114.85H1121.89H1128.93H1135.96V125.4H1143V118.8V112.2V105.6H1135.96V112.2H1128.93V118.8V125.4H1121.89H1114.85V118.8V112.2H1107.82V105.6V99V92.4H1114.85V85.8H1107.82H1100.78V79.2V72.6H1107.82H1114.85H1121.89H1128.93V66H1135.96V59.4H1128.93H1121.89H1114.85H1107.82V52.8V46.2V39.6H1114.85V33H1107.82V26.4V19.8H1114.85V13.2V6.6H1121.89H1128.93V13.2V19.8H1135.96V26.4H1143V19.8V13.2V6.6H1135.96Z" fill="#6DF2CC"/>
<path d="M727.815 26.4V19.8V13.2V6.6H720.778V0H713.741H706.704H699.667H692.63H685.593H678.556V6.6V13.2H671.518V19.8V26.4V33H678.556V39.6H671.518V46.2V52.8V59.4H664.481V66V72.6V79.2V85.8H671.518H678.556V92.4H671.518V99V105.6V112.2V118.8V125.4H664.481V132H671.518H678.556H685.593H692.63H699.667H706.704V125.4H699.667H692.63V118.8V112.2V105.6V99V92.4H699.667V85.8H692.63H685.593V79.2V72.6H692.63H699.667H706.704H713.741V66H720.778V59.4H713.741H706.704H699.667H692.63V52.8V46.2V39.6H699.667V33H692.63V26.4V19.8H699.667V13.2V6.6H706.704H713.741V13.2V19.8H720.778V26.4H727.815Z" fill="#6DF2CC"/>
<path d="M516.704 33V26.4V19.8H509.667V13.2V6.6H502.63V0H495.593H488.556H481.519H474.482V6.6H467.445V13.2H460.408V19.8V26.4H453.371V33H460.408V39.6H453.371V46.2V52.8V59.4V66V72.6H446.333V79.2V85.8H453.371H460.408V92.4H453.371V99V105.6H460.408V112.2V118.8H467.445V125.4H474.482V132H481.519H488.556H495.593H502.63V125.4H509.667V118.8V112.2H516.704V105.6V99V92.4H509.667H502.63V99V105.6V112.2H495.593V118.8V125.4H488.556H481.519V118.8V112.2H474.482V105.6V99V92.4H481.519V85.8H474.482H467.445V79.2V72.6H474.482V66V59.4V52.8V46.2V39.6H481.519V33H474.482V26.4V19.8H481.519V13.2V6.6H488.556H495.593V13.2V19.8H502.63V26.4V33H509.667V39.6H516.704H523.741V33H516.704Z" fill="#6DF2CC"/>
<path d="M1079.67 33V26.4V19.8H1072.63V13.2V6.6H1065.59V0H1058.56H1051.52H1044.48H1037.44V6.6H1030.41V13.2H1023.37V19.8V26.4H1016.33V33H1023.37V39.6H1016.33V46.2V52.8V59.4V66V72.6H1009.3V79.2V85.8H1002.26V79.2V72.6H1009.3V66V59.4V52.8V46.2V39.6H1016.33V33H1009.3V26.4V19.8V13.2V6.6H1002.26V0H995.222V6.6H988.185V13.2V19.8V26.4V33H995.222V39.6H988.185V46.2V52.8V59.4V66V72.6H981.148V79.2H974.111V85.8H981.148H988.185V92.4H981.148V99V105.6H988.185V112.2V118.8V125.4H995.222V132H1002.26V125.4H1009.3V118.8V112.2V105.6V99V92.4H1016.33V85.8H1023.37V92.4H1016.33V99V105.6H1023.37V112.2V118.8H1030.41V125.4H1037.44V132H1044.48H1051.52H1058.56H1065.59V125.4H1072.63V118.8V112.2H1079.67V105.6V99V92.4H1072.63H1065.59V99V105.6V112.2H1058.56V118.8V125.4H1051.52H1044.48V118.8V112.2H1037.44V105.6V99V92.4H1044.48V85.8H1037.44H1030.41V79.2V72.6H1037.44V66V59.4V52.8V46.2V39.6H1044.48V33H1037.44V26.4V19.8H1044.48V13.2V6.6H1051.52H1058.56V13.2V19.8H1065.59V26.4V33H1072.63V39.6H1079.67H1086.7V33H1079.67Z" fill="#6DF2CC"/>
<path d="M622.259 66V72.6H629.296V66V59.4V52.8H622.259V59.4V66Z" fill="#6DF2CC"/>
<path d="M974.111 66V72.6H981.148V66V59.4V52.8H974.111V59.4V66Z" fill="#6DF2CC"/>
<path d="M622.259 72.6H615.222V79.2H622.259V72.6Z" fill="#6DF2CC"/>
<path d="M974.111 72.6H967.074V79.2H974.111V72.6Z" fill="#6DF2CC"/>
<path d="M52.2593 85.8V79.2V72.6H59.2963V66V59.4V52.8V46.2V39.6H66.3333V33H59.2963V26.4V19.8V13.2V6.6H66.3333V0H59.2963H52.2593H45.2222H38.1852H31.1481H24.1111H17.0741H10.037V6.6H17.0741H24.1111H31.1481H38.1852V13.2V19.8V26.4V33H45.2222V39.6H38.1852V46.2V52.8V59.4V66V72.6H31.1481V79.2V85.8H38.1852H45.2222V92.4H38.1852V99V105.6V112.2V118.8V125.4H31.1481H24.1111V118.8V112.2H17.0741V105.6V99V92.4H10.037H3V99V105.6V112.2H10.037V118.8V125.4H17.0741V132H24.1111H31.1481H38.1852H45.2222V125.4H52.2593V118.8H59.2963V112.2V105.6V99V92.4H66.3333V85.8H59.2963H52.2593Z" fill="#6DF2CC"/>
<path d="M368.926 85.8V72.6H375.963V33H368.926V19.8H361.889V6.6H354.852V0H333.741V6.6H326.704V19.8H319.667V33H326.704V39.6H312.63V72.6H305.593V85.8H319.667V92.4H312.63V125.4H305.593V132H340.778V125.4H333.741V92.4H340.778V85.8H326.704V72.6H333.741V66H354.852V72.6H347.815V85.8H361.889V92.4H354.852V125.4H347.815V132H383V125.4H375.963V92.4H383V85.8H368.926ZM347.815 59.4H333.741V39.6H340.778V33H333.741V19.8H340.778V6.6H347.815V19.8H354.852V33H361.889V39.6H354.852V59.4H347.815Z" fill="#6DF2CC"/>
<path d="M608.185 85.8V79.2V72.6H615.222V66V59.4V52.8H622.259V46.2V39.6H629.296V33H622.259V26.4H615.222V19.8V13.2V6.6H608.185V0H601.148V6.6H594.111V13.2V19.8V26.4V33H601.148V39.6H594.111V46.2V52.8V59.4V66V72.6H587.074V79.2V85.8H580.037V79.2V72.6H587.074V66V59.4V52.8V46.2V39.6H594.111V33H587.074V26.4V19.8H580.037V13.2V6.6H573H565.963V13.2V19.8V26.4V33H573V39.6H565.963V46.2V52.8V59.4V66V72.6H558.926V79.2V85.8H565.963H573V92.4H565.963V99V105.6V112.2V118.8V125.4H573H580.037V118.8H587.074V112.2V105.6V99V92.4H594.111V85.8H601.148V92.4H594.111V99V105.6V112.2V118.8V125.4H601.148V132H608.185V125.4H615.222V118.8V112.2V105.6V99V92.4H622.259V85.8H615.222H608.185Z" fill="#6DF2CC"/>
<path d="M650.407 85.8V79.2V72.6H657.444V66V59.4V52.8V46.2V39.6H664.482V33H657.444V26.4V19.8V13.2V6.6H650.407V0H643.37V6.6H636.333V13.2V19.8V26.4V33H643.37V39.6H636.333V46.2V52.8V59.4V66V72.6H629.296V79.2H622.259V85.8H629.296H636.333V92.4H629.296V99V105.6H636.333V112.2V118.8V125.4H643.37V132H650.407V125.4H657.444V118.8V112.2V105.6V99V92.4H664.482V85.8H657.444H650.407Z" fill="#6DF2CC"/>
<path d="M861.518 85.8V79.2H854.481V59.4H861.518V52.8H868.555V39.6H875.592V33H868.555V13.2H861.518V6.6H854.481V0H812.259V6.6H805.222V33H812.259V39.6H805.222V72.6H798.185V85.8H812.259V92.4H805.222V125.4H798.185V132H833.37V125.4H826.333V92.4H833.37V85.8H819.296V72.6H833.37V79.2H840.407V85.8H854.481V92.4H847.444V125.4H840.407V132H875.592V125.4H868.555V92.4H875.592V85.8H861.518ZM840.407 6.6V13.2H847.444V19.8H854.481V33H861.518V39.6H854.481V46.2H847.444V52.8H840.407V59.4H826.333V39.6H833.37V33H826.333V13.2H833.37V6.6H840.407Z" fill="#6DF2CC"/>
<path d="M960.037 85.8V79.2V72.6H967.074V66V59.4V52.8H974.111V46.2V39.6H981.148V33H974.111V26.4H967.074V19.8V13.2V6.6H960.037V0H953V6.6H945.963V13.2V19.8V26.4V33H953V39.6H945.963V46.2V52.8V59.4V66V72.6H938.926V79.2V85.8H945.963H953V92.4H945.963V99V105.6V112.2V118.8V125.4H953V132H960.037V125.4H967.074V118.8V112.2V105.6V99V92.4H974.111V85.8H967.074H960.037Z" fill="#6DF2CC"/>
<path d="M931.889 112.2H924.852V118.8V125.4H917.815H910.778V118.8V112.2H903.741V105.6V99V92.4H910.778V85.8H903.741H896.704V79.2V72.6H903.741H910.778H917.815H924.852V66H931.889V59.4H924.852H917.815H910.778H903.741V52.8V46.2V39.6H910.778V33H903.741V26.4V19.8H910.778V13.2V6.6H917.815H924.852V13.2V19.8H931.889V26.4H938.926V19.8V13.2V6.6H931.889V0H924.852H917.815H910.778H903.741H896.704H889.667V6.6V13.2H882.63V19.8V26.4V33H889.667V39.6H882.63V46.2V52.8V59.4V66V72.6H875.593V79.2V85.8H882.63H889.667V92.4H882.63V99V105.6V112.2V118.8H889.667V125.4V132H896.704H903.741H910.778H917.815H924.852H931.889V125.4H938.926V118.8V112.2V105.6H931.889V112.2Z" fill="#6DF2CC"/>
<path d="M235.222 112.2V105.6V99V92.4H242.259V85.8H235.222H228.185V79.2V72.6H235.222V66V59.4V52.8V46.2V39.6H242.259V33H235.222V26.4V19.8V13.2V6.6H242.259V0H235.222H228.185H221.148H214.111H207.074V6.6H214.111V13.2V19.8V26.4V33H221.148V39.6H214.111V46.2V52.8V59.4V66V72.6H207.074V79.2V85.8H214.111H221.148V92.4H214.111V99V105.6V112.2V118.8H221.148V125.4H228.185H235.222V118.8V112.2Z" fill="#6DF2CC"/>
<path d="M544.852 112.2V105.6V99V92.4H551.889V85.8H544.852H537.815V79.2V72.6H544.852V66V59.4V52.8V46.2V39.6H551.889V33H544.852V26.4V19.8V13.2V6.60001H537.815H530.778V13.2V19.8H523.741V26.4V33H530.778V39.6H523.741V46.2V52.8V59.4V66V72.6H516.704V79.2V85.8H523.741H530.778V92.4H523.741V99V105.6V112.2V118.8H530.778V125.4H537.815H544.852V118.8V112.2Z" fill="#6DF2CC"/>
<path d="M242.259 125.4H235.222V132H242.259H249.296H256.333V125.4H249.296H242.259Z" fill="#6DF2CC"/>
<path d="M551.889 125.4H544.852V132H551.889H558.926H565.963V125.4H558.926H551.889Z" fill="#6DF2CC"/>
</svg>
