<svg width="81" height="32" viewBox="0 0 81 32" fill="none" xmlns="http://www.w3.org/2000/svg" class="h-[26px] w-[67px] md:h-[29px] md:w-[73px]"><path d="M0 29.5789H4.79686V27.2304H0.865776V20.2426H11.1232V27.2304H7.19211V29.5789H11.989V31.6721H0V29.5789ZM8.7237 25.1373V22.3336H3.26527V25.1373H8.72583H8.7237Z" fill="#F7585C"></path><path d="M25.0841 28.9216H20.2872V31.8529H17.8899V28.9216H13.093V26.8284H25.082V28.9216H25.0841ZM24.2906 22.0422H16.1732V23.7354H24.3991V25.7754H13.7758V20.0064H24.2906V22.0464V22.0422Z" fill="#F7585C"></path><path d="M35.1947 30.1958L26.2689 30.7042L26.0307 28.5387L35.0331 28.0494L35.199 30.1979H35.1969L35.1947 30.1958ZM32.491 18.628C33.0739 19.0088 33.5312 19.547 33.8546 20.2383C34.1822 20.9318 34.3417 21.738 34.3417 22.6591C34.3417 23.5802 34.1779 24.3523 33.8546 25.0437C33.527 25.7371 33.0739 26.2732 32.491 26.654C31.9082 27.0347 31.2402 27.2283 30.4915 27.2283C29.7427 27.2411 29.0833 27.0539 28.5174 26.6731C27.9516 26.2923 27.5049 25.7542 27.1815 25.0628C26.8539 24.3693 26.6944 23.5716 26.6944 22.6612C26.6944 21.7507 26.8582 20.9318 27.1815 20.2404C27.5091 19.547 27.9516 19.0109 28.5174 18.6301C29.0833 18.2494 29.7427 18.0558 30.4915 18.0558C31.2402 18.0558 31.9082 18.2472 32.491 18.6301V18.628ZM31.8912 22.6591C31.8912 22.0294 31.7933 21.4934 31.5955 21.0594C31.4849 20.7786 31.3275 20.5744 31.1254 20.4404C30.9233 20.3085 30.7106 20.2404 30.4893 20.2404C30.2681 20.2404 30.0596 20.3085 29.8618 20.4404C29.664 20.5744 29.5044 20.7807 29.3811 21.0594C29.196 21.4955 29.1045 22.0294 29.1045 22.6591C29.1045 23.2887 29.1981 23.8014 29.3811 24.2226C29.5023 24.4906 29.664 24.6927 29.8618 24.8331C30.0596 24.9735 30.266 25.0437 30.4893 25.0437C30.7127 25.0437 30.9233 24.9735 31.1254 24.8331C31.3275 24.6927 31.487 24.4906 31.5955 24.2226C31.7933 23.7737 31.8912 23.2526 31.8912 22.6591ZM38.2005 17.7644V31.8529H35.6372L35.6925 17.7644H38.2005Z" fill="#F7585C"></path><path d="M46.8774 18.3004C47.0667 19.0109 47.1624 19.7342 47.1624 20.4744C47.1624 21.2764 47.0688 22.0124 46.8859 22.6867C46.7008 23.361 46.4328 23.9354 46.0733 24.4076C45.7287 24.8799 45.3245 25.2351 44.8565 25.4712C44.3885 25.7074 43.8844 25.8265 43.3441 25.8265C42.8038 25.8265 42.2954 25.7074 41.821 25.4712C41.3466 25.2351 40.9446 24.8799 40.6127 24.4076C40.2554 23.946 39.9852 23.3759 39.8001 22.6952C39.6151 22.0145 39.5236 21.2764 39.5236 20.4744C39.5236 19.6725 39.6172 18.9364 39.8001 18.2621C39.9852 17.5878 40.2532 17.0134 40.6127 16.5412C40.9446 16.0562 41.3445 15.6988 41.8104 15.467C42.2784 15.2351 42.7889 15.1138 43.342 15.1032C43.8844 15.0904 44.3864 15.2074 44.8544 15.4478C45.3224 15.6924 45.7287 16.0541 46.0712 16.5391C46.4158 17.0007 46.6838 17.5835 46.8731 18.2962H46.8774V18.3004ZM51.9423 29.5959V31.8529H41.67V26.939H44.2141V29.5959H51.9423ZM44.8416 20.4787C44.8416 19.581 44.6991 18.8514 44.4162 18.294C44.2822 18.026 44.1205 17.826 43.9354 17.692C43.7504 17.5601 43.5547 17.4921 43.3441 17.4921C42.8995 17.4921 42.5443 17.7601 42.2762 18.294C42.0061 18.8641 41.8721 19.5938 41.8721 20.4787C41.8721 21.3636 42.0061 22.0868 42.2762 22.6442C42.4102 22.9122 42.5719 23.1143 42.757 23.2547C42.942 23.3951 43.1377 23.4653 43.3483 23.4653C43.5589 23.4653 43.7525 23.3951 43.9397 23.2547C44.1248 23.1143 44.2843 22.9122 44.4205 22.6442C44.7034 22.0868 44.8459 21.3657 44.8459 20.4787H44.8416ZM47.9218 23.1526V20.8956H49.2684V19.8937H47.9218V17.6367H49.2684V14.7607H51.7764V27.1922H49.2854L49.2662 23.1505H47.9197L47.9218 23.1526Z" fill="#F7585C"></path><path d="M64.7056 24.48H65.9585V26.7731H60.9787V31.8529H58.3579V26.7731H53.1569V24.48H62.0827V14.5416H54.0589V12.2293H64.7034V24.4778H64.7056V24.48Z" fill="#F7585C"></path><path d="M66.2435 31.6721V28.9429H72.238V21.6976H75.0055V28.9429H81V31.6721H66.2435ZM69.5726 17.4729C70.2916 16.5391 70.8723 15.5244 71.3148 14.4331C71.67 13.5482 71.9104 12.3889 72.0338 10.9573C72.1551 9.52566 72.2189 8.11744 72.2189 6.73476V0H74.9864V6.73476C74.9864 7.93663 75.0715 9.28954 75.2459 10.7956C75.4161 12.2995 75.699 13.5142 76.0947 14.4353C76.5754 15.5627 77.1476 16.588 77.8198 17.5112C78.4899 18.4344 79.2812 19.1066 80.1917 19.5321L79.7109 22.4442C78.7281 22.24 77.773 21.638 76.8519 20.6403C75.9287 19.6469 75.1842 18.5046 74.6099 17.2177C74.0398 15.9307 73.7505 14.816 73.7505 13.8694V13.6525H73.5654V13.8694C73.5654 14.816 73.2697 15.9286 72.6805 17.2113C72.0891 18.4919 71.3254 19.632 70.3916 20.634C69.4577 21.6359 68.5111 22.24 67.5518 22.4442L67.071 19.5321C68.0176 19.096 68.8515 18.4089 69.5684 17.4751L69.5726 17.4729Z" fill="#F7585C"></path></svg>