<svg width="126" height="40" viewBox="0 0 126 40" fill="none" xmlns="http://www.w3.org/2000/svg">
<path d="M2.38961 14.2063L6.64935 14.2038L6.22111 16.5042L6.27738 16.5042C7.18499 14.853 8.79416 13.7968 10.7329 13.7958C11.3791 13.7955 11.858 13.8223 12.3456 14.0385L11.6048 18.0979C10.951 17.936 10.3279 17.828 9.42882 17.8285C6.81583 17.8299 5.8777 19.4269 5.50934 21.8084L4.40022 28.2493L0 28.2518L2.38961 14.2063Z" fill="#4C4C4C"/>
<path d="M12.2451 22.3461C12.2451 17.4805 15.8934 13.8031 20.6985 13.8031C25.296 13.8031 27.8468 16.7167 27.1053 21.2428L26.9273 22.3461L16.457 22.4027C16.5757 24.2979 17.5248 25.2314 19.4231 25.2314C20.8171 25.2314 21.885 24.6374 22.4486 23.5907H26.779C25.7706 26.6176 22.6857 28.6826 19.1858 28.6826C14.796 28.6826 12.2451 26.363 12.2451 22.3461ZM16.9019 19.7718H22.9527C23.2197 18.216 22.2409 17.2259 20.4316 17.2259C18.8595 17.2259 17.5544 18.2443 16.9019 19.7718Z" fill="#4C4C4C"/>
<path d="M30.018 25.6068C30.018 24.3122 31.1572 23.2257 32.5389 23.2257C33.6781 23.2257 34.4053 23.9192 34.4053 24.9827C34.4053 26.2541 33.2176 27.3406 31.8602 27.3406C30.721 27.3406 30.018 26.6702 30.018 25.6068ZM31.3754 17.4695C31.3754 16.1749 32.5146 15.0885 33.8963 15.0885C35.0355 15.0885 35.7627 15.782 35.7627 16.8454C35.7627 18.1168 34.5749 19.2033 33.2176 19.2033C32.0784 19.2033 31.3754 18.5329 31.3754 17.4695Z" fill="#28FF00"/>
<path d="M41.7279 14.1991L41.9356 13.0109C42.5881 9.07893 44.9609 7.01391 48.8169 7.01391C49.4101 7.01391 50.122 7.07046 50.7745 7.18361L50.1813 10.8045H48.9355C47.3932 10.8045 46.5331 11.4834 46.2958 13.0109L46.0881 14.1991H49.6178L49.0245 17.7068H45.5245L43.7746 28.3432H39.3847L41.1643 17.7068H39.1177L39.711 14.1991H41.7279Z" fill="#4C4C4C"/>
<path d="M50.3405 28.3432L53.8702 7.01391H58.2896L54.76 28.3432H50.3405Z" fill="#4C4C4C"/>
<path d="M67.6623 13.8031C72.0818 13.8031 75.0479 16.3772 75.0479 20.2244C75.0479 24.9768 71.1623 28.6826 66.1793 28.6826C61.7598 28.6826 58.7937 26.1084 58.7937 22.2612C58.7937 17.5088 62.6793 13.8031 67.6623 13.8031ZM66.3869 24.9768C68.6709 24.9768 70.5395 23.0533 70.5395 20.5922C70.5395 18.7535 69.353 17.5088 67.4547 17.5088C65.1708 17.5088 63.3022 19.4324 63.3022 21.8935C63.3022 23.7322 64.4886 24.9768 66.3869 24.9768Z" fill="#4C4C4C"/>
<path d="M66.8649 23.0701C68.4762 20.3993 69.3654 19.1938 70.7822 17.3639C72.1967 15.5368 73.7194 13.7876 75.3437 12.1266C76.8846 10.5509 78.5277 9.02716 80.4178 7.83353C80.8636 7.55203 82.2216 6.71413 82.533 6.85189C83.2549 7.17125 83.4555 8.04016 83.4972 8.71658C83.5589 9.71792 83.3126 10.739 83.1221 11.7174C82.8921 12.8983 82.6184 14.071 82.3247 15.2388C81.1733 19.8173 79.6692 24.3796 79.3223 29.1016C79.2777 29.7076 79.2642 30.318 79.333 30.9229C79.3899 31.4228 79.4718 31.9793 79.802 32.3896C80.1604 32.8351 80.699 33.0393 81.2578 32.9938C81.9897 32.9342 82.7613 32.5593 83.3682 32.164C84.2611 31.5827 84.9682 30.7297 85.6814 29.9641C86.4067 29.1854 87.1112 28.3894 87.8042 27.5845C90.5555 24.389 93.0913 21.0282 95.9076 17.8831C97.3034 16.3244 98.7681 14.8185 100.35 13.4289C101.14 12.7347 101.959 12.07 102.809 11.4438C103.009 11.2965 103.075 11.5 103.051 11.6889C103.015 11.9724 102.95 12.255 102.886 12.5338C102.398 14.6591 101.46 16.6549 100.797 18.7303C100.474 19.7428 100.217 20.7799 100.117 21.8359C100.033 22.7237 99.9306 23.9183 100.526 24.6776C101.334 25.707 102.757 25.5403 104.06 24.7767C105.103 24.1657 106.092 23.4277 107.038 22.6991C108.986 21.1989 110.905 19.6637 112.792 18.0948C116.538 14.9813 119.909 12.1368 123.402 8.76602C124.248 7.94966 125.086 7.12576 125.916 6.29517C126.209 6.0022 125.654 5.98891 125.461 6.00406C125.067 6.03507 124.452 6.15182 124.161 6.44315C120.718 9.88616 117.396 12.8056 113.694 15.9945C111.85 17.5828 109.976 19.1383 108.071 20.6599C107.119 21.4207 106.159 22.1731 105.192 22.9168C104.709 23.2887 103.347 24.2571 103.127 24.3449C102.58 24.5628 102.33 24.0048 102.239 23.7876C102.054 23.3453 102.024 22.8556 102.017 22.3849C101.999 21.3138 102.183 20.2552 102.466 19.2216C103.041 17.121 103.988 15.1334 104.584 13.0386C104.732 12.518 104.857 11.9915 104.949 11.4592C105.027 11.0111 105.071 10.4831 104.504 10.3279C103.788 10.1316 102.878 10.4456 102.255 10.7727C101.784 11.0202 101.358 11.3657 100.934 11.6803C99.2397 12.9396 97.6741 14.3497 96.2037 15.8416C93.2171 18.872 90.6158 22.2189 87.928 25.4867C86.5925 27.1104 85.2335 28.7177 83.791 30.2566C83.4304 30.6413 83.0886 31.0447 82.6932 31.397C82.2833 31.7621 81.6942 31.9483 81.4477 31.2912C81.2422 30.7432 81.2381 30.2665 81.228 29.6891C81.2071 28.4969 81.3766 27.2934 81.5592 26.1162C81.7417 24.9402 81.9818 23.7726 82.2501 22.6118C82.7844 20.2998 83.4371 18.015 84.0319 15.7169C84.3292 14.5684 84.6122 13.4162 84.8585 12.2567C85.0876 11.178 85.3377 10.0734 85.4286 8.97465C85.4896 8.23681 85.449 7.36578 84.9802 6.74152C84.2483 5.76697 82.8273 5.99135 81.7921 6.34104C80.6516 6.72632 79.5716 7.36457 78.5813 8.01994C77.611 8.6621 76.6947 9.37432 75.826 10.137C74.1035 11.6493 72.5317 13.3246 71.0415 15.0444C69.5207 16.7997 68.1011 18.6336 66.795 20.5398C65.4811 22.4573 64.1572 24.6626 63.0572 26.7026C62.1456 28.3931 60.7114 30.9766 60.4993 32.0711C60.4385 32.3846 60.667 32.5695 61.2733 32.2396C61.8796 31.9098 62.3724 31.612 63.0066 30.4942C63.6407 29.3764 65.2535 25.741 66.8649 23.0701Z" fill="#28FF00"/>
</svg>
