<svg width="260" height="40" viewBox="0 0 260 40" fill="none" xmlns="http://www.w3.org/2000/svg">
<path d="M0 12.955V19.7493C0 23.973 2.76671 27.5632 6.62444 28.8879V12.955H0Z" fill="#4BABDF"/>
<path d="M22.9658 0C19.3073 0 16.3414 2.89915 16.3414 6.47543V28.8879C20.1991 27.5632 22.9658 23.973 22.9658 19.7493L22.9658 0Z" fill="#4BABDF"/>
<path d="M8.17072 39C11.8293 39 14.7952 36.1009 14.7952 32.5246V10.1121C10.9374 11.4368 8.17072 15.027 8.17072 19.2507L8.17072 39Z" fill="#63B157"/>
<path d="M27.3874 19.2958C29.1786 19.2958 30.6307 17.8764 30.6307 16.1254C30.6307 14.3745 29.1786 12.955 27.3874 12.955C25.5961 12.955 24.144 14.3745 24.144 16.1254C24.144 17.8764 25.5961 19.2958 27.3874 19.2958Z" fill="#E27E3A"/>
<path d="M40.6734 16.4219V19.7139C40.6734 19.9927 40.7604 20.2953 40.9341 20.6217C41.1078 20.948 41.3259 21.2723 41.5888 21.5946C41.8515 21.9169 42.1409 22.2215 42.4572 22.5092C42.7734 22.7962 43.0741 23.0357 43.3592 23.2277L42.464 24.2461C42.2235 24.0812 41.9783 23.8872 41.729 23.6646C41.4796 23.4428 41.2435 23.2168 41.0208 22.9855C40.798 22.7548 40.5954 22.5241 40.4128 22.2934C40.2303 22.0627 40.0856 21.8477 39.9787 21.6468C39.8451 21.8646 39.68 22.1041 39.4841 22.3653C39.2882 22.6266 39.0743 22.8878 38.8428 23.149C38.6111 23.4102 38.3661 23.6606 38.1079 23.9001C37.8494 24.1396 37.5867 24.3506 37.3194 24.5337L36.2639 23.5934C36.6469 23.3322 37.0121 23.0296 37.3595 22.6856C37.7071 22.3416 38.012 21.9868 38.2749 21.6211C38.5376 21.2554 38.747 20.8978 38.903 20.5497C39.0587 20.2017 39.1367 19.8964 39.1367 19.6352V16.4219H36.8652V15.2339H42.8916V16.4219H40.6734ZM43.8805 26.7015V19.8835H41.7423V18.6297H43.8805V14.5676H45.3903V26.4403C45.3813 26.5536 45.3436 26.6255 45.2768 26.656C45.21 26.6865 45.1586 26.7015 45.1231 26.7015H43.8805ZM46.5529 27.002V14.5676H48.0629V26.7408C48.0538 26.8541 48.016 26.926 47.9492 26.9566C47.8824 26.9871 47.831 27.002 47.7955 27.002H46.5529Z" fill="#646C73"/>
<path d="M54.4498 27.002V22.5479H49.185V21.294H61.2111V22.2866C61.2021 22.4088 61.162 22.4827 61.0909 22.5092C61.0194 22.535 60.9706 22.5479 60.9439 22.5479H55.9864V26.7408C55.9775 26.8629 55.9374 26.9369 55.8661 26.9634C55.7948 26.9891 55.7459 27.002 55.7191 27.002H54.4498ZM56.0799 16.1084L56.12 16.2787C56.2002 16.54 56.3983 16.8161 56.7146 17.1078C57.0308 17.3996 57.4049 17.6805 57.8372 17.9505C58.269 18.2205 58.7367 18.4641 59.2401 18.6819C59.7433 18.8997 60.2222 19.0605 60.6767 19.165L59.6878 20.184C59.2956 20.0796 58.8904 19.9378 58.4719 19.7593C58.053 19.5809 57.6454 19.3767 57.2491 19.1453C56.8528 18.9153 56.4809 18.6643 56.1333 18.3942C55.786 18.1249 55.4875 17.8508 55.2381 17.5719C55.0244 17.842 54.7658 18.1052 54.4632 18.3617C54.1602 18.6188 53.8194 18.8603 53.441 19.087C53.0622 19.3136 52.6503 19.5178 52.205 19.701C51.7594 19.8835 51.2963 20.0321 50.8153 20.1447L49.8264 19.1392C50.3343 19.0259 50.8352 18.8671 51.3298 18.6622C51.8241 18.458 52.2761 18.2273 52.686 17.9702C53.0957 17.713 53.4476 17.4369 53.7415 17.1404C54.0355 16.8446 54.2361 16.5488 54.343 16.2523L54.383 16.1084H50.7485V14.8682H59.7278V16.1084H56.0799Z" fill="#646C73"/>
<path d="M62.3067 15.1945H69.3487V16.4355H66.5559V19.1521C66.5559 19.4832 66.6583 19.8333 66.8634 20.2037C67.0681 20.5735 67.331 20.9399 67.6517 21.3008C67.9724 21.6624 68.3308 22.0044 68.7273 22.326C69.1237 22.6483 69.5091 22.9224 69.8832 23.149L68.8677 24.1158C68.6182 23.9679 68.351 23.7779 68.0659 23.5472C67.7808 23.3166 67.4979 23.0689 67.2174 22.803C66.9368 22.5377 66.6739 22.2697 66.4291 21.9996C66.1839 21.7296 65.9814 21.4813 65.821 21.2554C65.6428 21.5166 65.4245 21.7954 65.1663 22.0912C64.9078 22.3871 64.634 22.6768 64.3445 22.9597C64.0549 23.2426 63.7632 23.5059 63.4693 23.7501C63.1754 23.9937 62.9034 24.1898 62.6543 24.3377L61.5852 23.3844C62.0039 23.1313 62.4181 22.8247 62.828 22.463C63.2375 22.1021 63.6029 21.7255 63.9236 21.3334C64.2442 20.9419 64.5049 20.5497 64.7053 20.1576C64.9057 19.7661 65.006 19.4133 65.006 19.0998V16.4355H62.3067V15.1945ZM72.3952 26.7408C72.3952 26.8107 72.3685 26.8718 72.3151 26.924C72.2616 26.9763 72.1992 27.002 72.128 27.002H70.8854V14.5676H72.3952V26.7408Z" fill="#646C73"/>
<path d="M83.2454 21.6991V20.2234H80.3724C80.0606 20.5457 79.6887 20.7831 79.2566 20.9351C78.8244 21.0878 78.368 21.1638 77.887 21.1638C77.4237 21.1638 76.9851 21.0939 76.5709 20.9548C76.1567 20.8157 75.7957 20.6128 75.4884 20.3476C75.1811 20.0816 74.9361 19.7485 74.7536 19.3482C74.5709 18.9479 74.4796 18.4858 74.4796 17.9634C74.4796 17.4844 74.5665 17.0515 74.7402 16.6641C74.9139 16.2767 75.1544 15.9456 75.4617 15.6715C75.769 15.3967 76.1299 15.1857 76.5441 15.0378C76.9583 14.8899 77.406 14.816 77.887 14.816C78.3947 14.816 78.8535 14.9028 79.2634 15.0772C79.6729 15.2509 80.0293 15.4904 80.3323 15.795H83.2454V14.5541H84.7418V21.4379C84.7418 21.5078 84.7151 21.5688 84.6616 21.6211C84.6082 21.6733 84.5457 21.6991 84.4746 21.6991H83.2454ZM75.9762 17.9505C75.9762 18.2897 76.0317 18.5842 76.1433 18.8318C76.2545 19.0802 76.4015 19.2851 76.5842 19.4459C76.7666 19.6073 76.9717 19.7268 77.1988 19.8055C77.426 19.8835 77.6552 19.9228 77.887 19.9228C78.4303 19.9228 78.8735 19.7444 79.2165 19.3875C79.5594 19.03 79.731 18.551 79.731 17.9505C79.731 17.6805 79.6819 17.4281 79.5841 17.1927C79.4859 16.9579 79.3522 16.755 79.1832 16.5854C79.0139 16.4158 78.8178 16.2828 78.5952 16.1872C78.3724 16.0915 78.1364 16.0433 77.887 16.0433C77.6198 16.0433 77.3703 16.0915 77.1388 16.1872C76.907 16.2828 76.7045 16.4158 76.5308 16.5854C76.3571 16.755 76.221 16.9579 76.1232 17.1927C76.0251 17.4281 75.9762 17.6805 75.9762 17.9505ZM84.7151 26.7408C84.7151 26.8107 84.6884 26.8718 84.6349 26.924C84.5815 26.9763 84.519 27.002 84.4479 27.002H83.2185V23.763C83.2185 23.6762 83.1739 23.6321 83.0849 23.6321H76.1098V22.4047H83.9001C84.1225 22.4047 84.3143 22.4786 84.4746 22.6266C84.6349 22.7745 84.7151 22.9617 84.7151 23.1883V26.7408ZM81.2277 17.9634C81.2277 18.3121 81.1786 18.6514 81.0805 18.9825H83.2454V17.0359H81.0805C81.1786 17.367 81.2277 17.6764 81.2277 17.9634Z" fill="#646C73"/>
<path d="M93.6145 16.9057H86.6794V15.717H89.3651V14.28H90.9152V15.717H93.6145V16.9057ZM93.3471 19.7268C93.3471 20.0667 93.2647 20.3801 93.1 20.6671C92.935 20.9548 92.7078 21.2072 92.4184 21.425C92.129 21.6428 91.7904 21.8124 91.403 21.9345C91.0155 22.0566 90.6034 22.117 90.167 22.117C89.7304 22.117 89.3205 22.0607 88.9376 21.9474C88.5544 21.8341 88.2204 21.6733 87.9355 21.4643C87.6502 21.2554 87.4253 21.0023 87.2606 20.7065C87.0956 20.4107 87.0134 20.0843 87.0134 19.7268C87.0134 19.3787 87.0956 19.0585 87.2606 18.7667C87.4253 18.475 87.6502 18.2205 87.9355 18.0028C88.2204 17.785 88.5544 17.6153 88.9376 17.4932C89.3205 17.3718 89.7304 17.3107 90.167 17.3107C90.6034 17.3107 91.0155 17.3691 91.403 17.4864C91.7904 17.6045 92.129 17.7721 92.4184 17.9899C92.7078 18.2076 92.935 18.4641 93.1 18.7606C93.2647 19.0564 93.3471 19.3787 93.3471 19.7268ZM91.8907 19.7268C91.8907 19.5442 91.846 19.3767 91.7571 19.224C91.6679 19.072 91.5454 18.9431 91.3896 18.8386C91.2336 18.7341 91.0509 18.6514 90.8418 18.5903C90.6323 18.5299 90.4075 18.4987 90.167 18.4987C89.686 18.4987 89.285 18.6059 88.9643 18.819C88.6436 19.0327 88.4833 19.3353 88.4833 19.7268C88.4833 20.0755 88.6436 20.3625 88.9643 20.5891C89.285 20.8157 89.686 20.9283 90.167 20.9283C90.648 20.9283 91.0556 20.8198 91.3896 20.602C91.7236 20.3842 91.8907 20.0925 91.8907 19.7268ZM97.3291 26.7408C97.3291 26.8107 97.3023 26.8718 97.2489 26.924C97.1954 26.9763 97.133 27.002 97.0618 27.002H95.7925V24.2203C95.7925 24.1334 95.7478 24.0893 95.6589 24.0893H88.6971V22.8749H96.514C96.7367 22.8749 96.9282 22.9488 97.0886 23.0967C97.2489 23.2446 97.3291 23.4319 97.3291 23.6585V26.7408ZM97.3558 21.9209C97.3469 22.0342 97.3091 22.1062 97.2423 22.1367C97.1755 22.1672 97.1241 22.1822 97.0886 22.1822H95.846V21.1244H93.708V19.9228H95.846V18.3813H93.6947V17.1669H95.846V14.5676H97.3558V21.9209Z" fill="#646C73"/>
<path d="M103.342 17.6764C103.342 18.0421 103.429 18.3773 103.603 18.6819C103.776 18.9865 104.014 19.2695 104.317 19.5307C104.62 19.7919 104.97 20.0402 105.366 20.2756C105.763 20.5104 106.184 20.737 106.629 20.9548L105.774 21.8823C105.507 21.769 105.224 21.6272 104.925 21.4575C104.627 21.2879 104.335 21.1027 104.05 20.9026C103.765 20.7024 103.496 20.4955 103.242 20.2817C102.988 20.0687 102.776 19.8618 102.607 19.6616C102.286 20.0796 101.863 20.5084 101.338 20.948C100.812 21.3877 100.189 21.7907 99.4668 22.1564L98.4514 21.216C98.8611 21.0247 99.2664 20.8001 99.6673 20.543C100.068 20.2865 100.427 20.0056 100.743 19.701C101.059 19.3963 101.313 19.072 101.505 18.7274C101.696 18.3841 101.792 18.0245 101.792 17.6499V14.7373H103.342V17.6764ZM109.836 26.7537C109.836 26.8236 109.809 26.8847 109.756 26.9369C109.702 26.9891 109.64 27.0156 109.569 27.0156H101.819C101.605 27.0156 101.415 26.9389 101.251 26.787C101.086 26.6343 101.004 26.445 101.004 26.2184V22.9271H102.54V25.6308C102.54 25.6743 102.554 25.7068 102.58 25.7285C102.607 25.7503 102.634 25.7611 102.66 25.7611H109.836V26.7537ZM107.965 23.5934V14.5676H109.502V23.3322C109.502 23.4014 109.475 23.4624 109.422 23.5147C109.368 23.5669 109.306 23.5934 109.235 23.5934H107.965Z" fill="#646C73"/>
<path d="M111.306 21.0199V19.8055H123.345V20.7587C123.336 20.872 123.298 20.9439 123.231 20.9745C123.165 21.005 123.113 21.0199 123.078 21.0199H111.306ZM112.562 14.8024H122.156V15.9388H120.659V17.2714C120.659 17.3582 120.65 17.4457 120.633 17.5326C120.615 17.6194 120.597 17.711 120.579 17.8067H122.436V18.9431H112.308V17.8067H114.112C114.067 17.6153 114.045 17.4322 114.045 17.2585V15.9388H112.562V14.8024ZM121.929 26.8453C121.929 26.9152 121.902 26.9763 121.849 27.0285C121.795 27.0807 121.733 27.1065 121.661 27.1065H113.871C113.328 27.1065 113.056 26.8453 113.056 26.3229V23.9326H120.004C120.094 23.9326 120.138 23.8892 120.138 23.8024V23.1232H113.056V21.9081H121.661V24.3112C121.661 24.5555 121.583 24.7468 121.428 24.8866C121.272 25.0256 121.078 25.0955 120.846 25.0955H114.553V25.7747C114.553 25.8615 114.597 25.9049 114.686 25.9049H121.929V26.8453ZM118.962 17.8067C119.051 17.8067 119.096 17.7632 119.096 17.6764V15.9388H115.595V17.6764C115.595 17.7632 115.639 17.8067 115.729 17.8067H118.962Z" fill="#646C73"/>
<path d="M125.683 20.1576C125.683 20.2451 125.728 20.2885 125.817 20.2885C126.432 20.2974 127.071 20.2777 127.735 20.2295C128.398 20.182 129.149 20.0925 129.986 19.9622V21.1115C129.647 21.1638 129.309 21.2113 128.971 21.2554C128.632 21.2988 128.267 21.3354 127.875 21.3659C127.483 21.3965 127.057 21.4209 126.599 21.4379C126.14 21.4555 125.621 21.4643 125.042 21.4643C124.802 21.4643 124.606 21.3877 124.454 21.2357C124.303 21.083 124.227 20.8978 124.227 20.6807V17.5326H127.768C127.857 17.5326 127.902 17.4844 127.902 17.3887V16.0698H124.227V14.894H129.372V17.8854C129.372 18.112 129.293 18.2986 129.138 18.4465C128.982 18.5951 128.788 18.669 128.556 18.669H125.683V20.1576ZM125.483 25.9836C126.071 25.8792 126.632 25.7462 127.167 25.5847C127.701 25.4239 128.176 25.2326 128.59 25.01C129.004 24.7882 129.334 24.5337 129.579 24.2461C129.824 23.9591 129.946 23.6368 129.946 23.2799V22.3002H131.483V23.3322C131.483 23.689 131.614 24.0093 131.877 24.2922C132.14 24.5751 132.474 24.8275 132.879 25.0494C133.284 25.2712 133.739 25.4612 134.242 25.6179C134.745 25.7747 135.238 25.9049 135.719 26.0094L134.93 27.0414C134.556 26.9545 134.159 26.8473 133.741 26.7211C133.322 26.595 132.919 26.447 132.532 26.2774C132.144 26.1078 131.788 25.9158 131.463 25.7028C131.137 25.489 130.882 25.2523 130.694 24.991C130.48 25.278 130.202 25.5304 129.859 25.7482C129.516 25.966 129.144 26.1601 128.743 26.3297C128.343 26.4993 127.928 26.6431 127.501 26.7605C127.073 26.8779 126.672 26.9763 126.298 27.0543L125.483 25.9836ZM132.137 21.5552C132.137 21.6251 132.111 21.6862 132.057 21.7384C132.004 21.7907 131.941 21.8165 131.87 21.8165H130.641V14.5676H132.137V17.0359H133.487V14.5676H134.957V22.4434C134.957 22.5133 134.93 22.5743 134.877 22.6266C134.823 22.6788 134.761 22.7046 134.69 22.7046H133.487V18.3162H132.137V21.5552Z" fill="#646C73"/>
<path d="M137.148 19.3482V18.1595H138.952C138.907 17.9681 138.885 17.7897 138.885 17.6242V15.8472H137.402V14.6721H146.983V15.8472H145.5V17.6371C145.5 17.7239 145.493 17.8087 145.48 17.8915C145.466 17.9743 145.451 18.0638 145.433 18.1595H147.29V19.3482H142.974V20.4453H148.199V21.4121C148.19 21.5254 148.152 21.5966 148.085 21.6272C148.018 21.6577 147.967 21.6733 147.932 21.6733H136.159V20.4453H141.451V19.3482H137.148ZM137.87 22.5614H146.555V26.2577C146.555 26.4925 146.475 26.6825 146.315 26.8256C146.154 26.9695 145.963 27.0414 145.74 27.0414H138.685C138.453 27.0414 138.259 26.9674 138.104 26.8195C137.948 26.6709 137.87 26.4844 137.87 26.2577V22.5614ZM139.34 23.7759V25.696C139.34 25.7828 139.384 25.8269 139.473 25.8269H144.938C145.027 25.8269 145.072 25.7828 145.072 25.696V23.7759H139.34ZM143.869 18.1595C143.958 18.1595 144.003 18.1161 144.003 18.0285V15.8472H140.382V18.0285C140.382 18.1161 140.426 18.1595 140.515 18.1595H143.869Z" fill="#646C73"/>
<path d="M149.294 15.1945H156.336V16.4355H153.543V19.1521C153.543 19.4832 153.646 19.8333 153.851 20.2037C154.056 20.5735 154.319 20.9399 154.639 21.3008C154.96 21.6624 155.318 22.0044 155.715 22.326C156.111 22.6483 156.497 22.9224 156.871 23.149L155.855 24.1158C155.606 23.9679 155.338 23.7779 155.053 23.5472C154.768 23.3166 154.485 23.0689 154.205 22.803C153.924 22.5377 153.661 22.2697 153.417 21.9996C153.171 21.7296 152.969 21.4813 152.809 21.2554C152.63 21.5166 152.412 21.7954 152.154 22.0912C151.895 22.3871 151.621 22.6768 151.332 22.9597C151.042 23.2426 150.751 23.5059 150.457 23.7501C150.163 23.9937 149.891 24.1898 149.642 24.3377L148.573 23.3844C148.991 23.1313 149.406 22.8247 149.815 22.463C150.225 22.1021 150.59 21.7255 150.911 21.3334C151.232 20.9419 151.492 20.5497 151.693 20.1576C151.893 19.7661 151.994 19.4133 151.994 19.0998V16.4355H149.294V15.1945ZM159.383 26.7408C159.383 26.8107 159.356 26.8718 159.303 26.924C159.249 26.9763 159.187 27.002 159.116 27.002H157.873V14.5676H159.383V26.7408Z" fill="#646C73"/>
<path d="M173.052 20.1712V21.1509C173.052 21.2201 173.026 21.2811 172.972 21.3334C172.919 21.3856 172.856 21.4121 172.785 21.4121H161.013V20.1712H173.052ZM171.663 24.7556C171.663 25.1647 171.556 25.5264 171.342 25.8398C171.128 26.1533 170.823 26.4165 170.427 26.6302C170.03 26.8433 169.549 27.0041 168.984 27.1133C168.418 27.2219 167.783 27.2768 167.079 27.2768C166.367 27.2768 165.728 27.2219 165.162 27.1133C164.596 27.0041 164.115 26.8412 163.719 26.6234C163.322 26.4057 163.017 26.1377 162.804 25.8201C162.59 25.5019 162.483 25.1389 162.483 24.7291C162.483 23.9109 162.888 23.284 163.699 22.8484C164.509 22.4135 165.636 22.1957 167.079 22.1957C167.783 22.1957 168.418 22.25 168.984 22.3586C169.549 22.4678 170.03 22.6286 170.427 22.8423C170.823 23.0553 171.128 23.3186 171.342 23.6321C171.556 23.9455 171.663 24.3071 171.663 24.7163V24.7556ZM163.525 19.1785C163.293 19.1785 163.1 19.1046 162.944 18.956C162.788 18.8081 162.71 18.6208 162.71 18.3942V14.4367H164.233V17.8196C164.233 17.9071 164.278 17.9505 164.367 17.9505H171.583L171.596 19.1785H163.525ZM164.033 24.7291C164.033 25.1478 164.293 25.4761 164.814 25.7156C165.336 25.9551 166.082 26.0746 167.053 26.0746C168.041 26.0746 168.799 25.9551 169.324 25.7156C169.85 25.4761 170.113 25.143 170.113 24.7163C170.113 24.2983 169.85 23.972 169.324 23.7365C168.799 23.5018 168.041 23.3844 167.053 23.3844C166.082 23.3844 165.336 23.5038 164.814 23.7433C164.293 23.9828 164.033 24.3112 164.033 24.7291Z" fill="#646C73"/>
<path d="M180.575 16.827H173.654V15.6518H176.339V14.28H177.889V15.6518H180.575V16.827ZM180.308 19.5829C180.308 19.9663 180.216 20.3014 180.034 20.5891C179.851 20.8761 179.613 21.1136 179.319 21.3008C179.025 21.4881 178.686 21.6299 178.304 21.7255C177.921 21.8212 177.529 21.8687 177.128 21.8687C176.727 21.8687 176.337 21.8232 175.959 21.7316C175.58 21.6401 175.244 21.4989 174.95 21.3076C174.656 21.1156 174.42 20.8788 174.241 20.5952C174.063 20.3123 173.974 19.9751 173.974 19.5829C173.974 19.1914 174.061 18.8495 174.235 18.5577C174.408 18.266 174.642 18.0245 174.936 17.8331C175.23 17.6411 175.566 17.498 175.945 17.4016C176.324 17.306 176.718 17.2585 177.128 17.2585C177.537 17.2585 177.934 17.306 178.317 17.4016C178.7 17.498 179.039 17.6411 179.333 17.8331C179.626 18.0245 179.862 18.266 180.041 18.5577C180.219 18.8495 180.308 19.1914 180.308 19.5829ZM178.825 19.5829C178.825 19.3916 178.78 19.222 178.691 19.0741C178.602 18.9255 178.479 18.802 178.324 18.7016C178.168 18.6012 177.987 18.5252 177.782 18.4729C177.578 18.4207 177.359 18.3942 177.128 18.3942C176.896 18.3942 176.68 18.4207 176.48 18.4729C176.279 18.5252 176.103 18.6012 175.952 18.7016C175.8 18.802 175.68 18.9255 175.591 19.0741C175.502 19.222 175.457 19.3916 175.457 19.5829C175.457 19.7749 175.502 19.9425 175.591 20.0863C175.68 20.2295 175.8 20.3496 175.952 20.4453C176.103 20.5409 176.279 20.6128 176.48 20.661C176.68 20.7085 176.896 20.7329 177.128 20.7329C177.359 20.7329 177.578 20.7085 177.782 20.661C177.987 20.6128 178.168 20.5409 178.324 20.4453C178.479 20.3496 178.602 20.2295 178.691 20.0863C178.78 19.9425 178.825 19.7749 178.825 19.5829ZM184.504 24.8866C184.504 25.3479 184.379 25.7333 184.13 26.042C183.88 26.3514 183.55 26.597 183.141 26.7802C182.731 26.9634 182.268 27.0916 181.751 27.1655C181.234 27.2395 180.704 27.2768 180.161 27.2768C179.617 27.2768 179.085 27.2395 178.564 27.1655C178.043 27.0916 177.58 26.9634 177.174 26.7802C176.769 26.597 176.442 26.3534 176.192 26.0488C175.943 25.7441 175.818 25.3567 175.818 24.8866C175.818 24.4157 175.943 24.0262 176.192 23.7169C176.442 23.4082 176.769 23.1619 177.174 22.9794C177.58 22.7962 178.043 22.6679 178.564 22.594C179.085 22.52 179.617 22.4827 180.161 22.4827C180.704 22.4827 181.234 22.52 181.751 22.594C182.268 22.6679 182.731 22.7962 183.141 22.9794C183.55 23.1619 183.88 23.4082 184.13 23.7169C184.379 24.0262 184.504 24.4157 184.504 24.8866ZM182.914 24.8866C182.914 24.6769 182.84 24.4991 182.693 24.3506C182.546 24.2027 182.348 24.0832 182.098 23.9916C181.849 23.9001 181.557 23.8329 181.223 23.7888C180.889 23.7454 180.54 23.7236 180.174 23.7236C179.8 23.7236 179.446 23.7454 179.112 23.7888C178.778 23.8329 178.484 23.9001 178.23 23.9916C177.976 24.0832 177.776 24.2027 177.629 24.3506C177.482 24.4991 177.408 24.6769 177.408 24.8866C177.408 25.0867 177.482 25.2604 177.629 25.409C177.776 25.5569 177.976 25.6763 178.23 25.7679C178.484 25.8595 178.778 25.9267 179.112 25.9701C179.446 26.0135 179.8 26.0359 180.174 26.0359C180.531 26.0359 180.876 26.0135 181.21 25.9701C181.544 25.9267 181.836 25.8595 182.085 25.7679C182.334 25.6763 182.535 25.5589 182.686 25.4151C182.838 25.2712 182.914 25.0955 182.914 24.8866ZM184.423 21.908C184.415 22.0214 184.377 22.0933 184.31 22.1238C184.243 22.1543 184.192 22.1693 184.156 22.1693H182.887V20.9941H180.655V19.7661H182.887V18.342H180.655V17.1275H182.887V14.5541H184.423V21.908Z" fill="#646C73"/>
<path d="M190.249 18.8386C190.249 19.1785 190.367 19.5612 190.603 19.988C190.839 20.4147 191.136 20.8306 191.492 21.2357C191.848 21.6401 192.234 22.0085 192.648 22.3389C193.062 22.67 193.443 22.9142 193.79 23.071L192.841 24.1416C192.565 24.0113 192.267 23.822 191.946 23.5737C191.626 23.3254 191.314 23.0574 191.011 22.7704C190.708 22.4827 190.425 22.191 190.162 21.8952C189.9 21.5993 189.692 21.3381 189.541 21.1115C189.407 21.3381 189.209 21.6102 188.946 21.9277C188.684 22.2459 188.399 22.5614 188.091 22.8749C187.784 23.1883 187.472 23.4753 187.156 23.7365C186.84 23.9978 186.557 24.1857 186.307 24.2983L185.305 23.3451C185.751 23.0838 186.178 22.7656 186.588 22.3911C186.998 22.0173 187.361 21.6251 187.677 21.216C187.993 20.8069 188.245 20.3978 188.432 19.988C188.619 19.5788 188.713 19.2091 188.713 18.878V15.1423H190.249V18.8386ZM196.743 26.7408C196.743 26.8107 196.717 26.8718 196.663 26.924C196.61 26.9763 196.547 27.002 196.476 27.002H195.233V19.6874H191.933V18.4336H195.233V14.5676H196.743V26.7408Z" fill="#646C73"/>
<path d="M205.629 23.3844C205.629 23.6103 205.549 23.7976 205.389 23.9455C205.228 24.0941 205.037 24.1681 204.814 24.1681H199.964C199.723 24.1681 199.527 24.0914 199.376 23.9394C199.224 23.7867 199.148 23.6022 199.148 23.3844V15.1158H200.658V18.3813H204.106V15.1158H205.629V23.3844ZM204.106 19.6352H200.658V22.7962C200.658 22.8837 200.703 22.9271 200.792 22.9271H203.972C204.061 22.9271 204.106 22.8837 204.106 22.7962V19.6352ZM207.447 27.002V14.5541H208.983V26.7408C208.983 26.8107 208.957 26.8718 208.903 26.924C208.85 26.9763 208.787 27.002 208.716 27.002H207.447Z" fill="#646C73"/>
<path d="M222.76 23.9978V24.991C222.76 25.0602 222.733 25.1213 222.679 25.1735C222.626 25.2258 222.564 25.2523 222.492 25.2523H210.734V23.9978H222.76ZM216.012 15.103H217.535V17.1927C217.562 17.4457 217.664 17.7022 217.842 17.9634C218.02 18.2246 218.245 18.4818 218.517 18.7341C218.789 18.9865 219.094 19.2288 219.432 19.4588C219.771 19.6901 220.116 19.9032 220.468 20.0992C220.82 20.2953 221.165 20.4649 221.504 20.6088C221.842 20.7519 222.145 20.8632 222.412 20.9419L221.45 22.0125C221.111 21.9257 220.72 21.7798 220.274 21.5749C219.829 21.3707 219.381 21.1312 218.931 20.8564C218.482 20.5823 218.063 20.2906 217.675 19.9819C217.288 19.6725 216.987 19.3739 216.773 19.087C216.542 19.3739 216.237 19.6745 215.858 19.988C215.479 20.3014 215.074 20.6 214.642 20.8829C214.21 21.1658 213.769 21.4182 213.319 21.6401C212.869 21.8626 212.457 22.0302 212.083 22.1435L211.081 21.0986C211.348 21.0199 211.656 20.9066 212.003 20.7587C212.35 20.6108 212.707 20.4364 213.072 20.2363C213.437 20.0361 213.796 19.8143 214.148 19.57C214.5 19.3265 214.814 19.0652 215.09 18.7864C215.366 18.5075 215.589 18.2226 215.758 17.9308C215.927 17.6391 216.012 17.3412 216.012 17.0359V15.103Z" fill="#646C73"/>
<path d="M227.316 18.8651C227.316 19.2396 227.427 19.6399 227.65 20.0667C227.873 20.4934 228.158 20.9026 228.505 21.294C228.853 21.6862 229.235 22.039 229.654 22.3525C230.073 22.6659 230.478 22.8966 230.87 23.0445L229.908 24.0765C229.632 23.9632 229.336 23.7915 229.02 23.5601C228.703 23.3301 228.392 23.073 228.084 22.7901C227.777 22.5071 227.492 22.2215 227.229 21.9345C226.966 21.6468 226.75 21.3904 226.581 21.1638C226.403 21.3904 226.182 21.6557 225.919 21.9603C225.657 22.2656 225.376 22.5675 225.078 22.8681C224.779 23.1687 224.478 23.4428 224.176 23.6911C223.873 23.9394 223.597 24.1199 223.347 24.2332L222.345 23.2799C222.808 23.0187 223.247 22.7093 223.661 22.3525C224.076 21.9956 224.441 21.619 224.757 21.2221C225.073 20.8266 225.322 20.4256 225.505 20.0205C225.688 19.6155 225.779 19.2308 225.779 18.8651V15.1423H227.316V18.8651ZM235.133 20.184H233.262V26.7408C233.262 26.8107 233.235 26.8718 233.182 26.924C233.129 26.9763 233.066 27.002 232.995 27.002H231.752V14.5676H233.262V18.9431H235.133V20.184Z" fill="#646C73"/>
<path d="M244.82 21.2682V18.2511H242.696C242.633 18.7036 242.502 19.091 242.302 19.4133C242.101 19.7356 241.852 19.9988 241.553 20.2037C241.255 20.4086 240.921 20.5586 240.551 20.6542C240.181 20.7499 239.796 20.7981 239.395 20.7981C238.932 20.7981 238.493 20.737 238.079 20.6149C237.665 20.4934 237.304 20.3062 236.997 20.0531C236.69 19.8007 236.444 19.4832 236.262 19.0998C236.079 18.7165 235.988 18.264 235.988 17.7415C235.988 17.2625 236.075 16.8358 236.248 16.4613C236.422 16.0874 236.663 15.7692 236.97 15.508C237.277 15.2468 237.638 15.0487 238.052 14.9137C238.467 14.7786 238.914 14.7115 239.395 14.7115C239.805 14.7115 240.19 14.7678 240.551 14.8811C240.912 14.9944 241.233 15.1532 241.513 15.3574C241.794 15.5623 242.032 15.8038 242.228 16.0827C242.424 16.3615 242.562 16.6702 242.642 17.0101H244.82V14.5676H246.304V21.007C246.304 21.0769 246.277 21.1373 246.223 21.1895C246.17 21.2418 246.108 21.2682 246.036 21.2682H244.82ZM237.485 17.7286C237.485 18.0597 237.54 18.34 237.652 18.5706C237.763 18.802 237.91 18.9886 238.093 19.1324C238.275 19.2762 238.48 19.3828 238.707 19.4527C238.935 19.5225 239.164 19.5571 239.395 19.5571C239.957 19.5571 240.404 19.3984 240.738 19.0802C241.072 18.7626 241.239 18.3121 241.239 17.7286C241.239 17.4674 241.19 17.2252 241.092 17.0034C240.994 16.7815 240.861 16.5922 240.692 16.4355C240.522 16.2787 240.326 16.1566 240.104 16.0698C239.881 15.9829 239.645 15.9388 239.395 15.9388C239.128 15.9388 238.879 15.9829 238.647 16.0698C238.415 16.1566 238.213 16.2808 238.039 16.4416C237.865 16.6031 237.73 16.7924 237.632 17.0101C237.534 17.2279 237.485 17.4674 237.485 17.7286ZM237.859 21.8952H239.369V23.1883H244.754V21.8952H246.25V26.2578C246.25 26.4844 246.172 26.6709 246.016 26.8195C245.86 26.9674 245.667 27.0414 245.435 27.0414H238.674C238.442 27.0414 238.248 26.9674 238.093 26.8195C237.936 26.6709 237.859 26.4844 237.859 26.2578V21.8952ZM239.369 24.4028V25.696C239.369 25.7828 239.413 25.8269 239.502 25.8269H244.62C244.709 25.8269 244.754 25.7828 244.754 25.696V24.4028H239.369Z" fill="#646C73"/>
<path d="M250.099 20.5369C250.508 20.5369 250.947 20.5321 251.415 20.5233C251.882 20.5151 252.363 20.4955 252.858 20.4649C253.352 20.4344 253.851 20.3951 254.354 20.3476C254.858 20.2994 255.354 20.2363 255.844 20.1576V21.3076C255.755 21.3422 255.575 21.3788 255.303 21.4182C255.031 21.4575 254.704 21.4949 254.321 21.5295C253.938 21.5641 253.517 21.5946 253.058 21.6211C252.599 21.6468 252.141 21.6713 251.682 21.6923C251.223 21.7147 250.782 21.7296 250.359 21.7384C249.936 21.7473 249.569 21.7473 249.257 21.7384C249.016 21.7296 248.82 21.6516 248.669 21.503C248.517 21.3551 248.442 21.1726 248.442 20.9548V15.7299C248.442 15.5209 248.517 15.3384 248.669 15.1817C248.82 15.0249 249.016 14.9462 249.257 14.9462H254.802V16.1478H250.099C250.009 16.1478 249.965 16.1919 249.965 16.2787V20.4059C249.965 20.4934 250.009 20.5369 250.099 20.5369ZM258.383 26.7408C258.383 26.8107 258.356 26.8718 258.303 26.924C258.25 26.9763 258.187 27.002 258.116 27.002H250.66C250.446 27.002 250.256 26.926 250.092 26.7734C249.927 26.6214 249.845 26.4321 249.845 26.2055V22.94H251.395V25.6179C251.395 25.6614 251.408 25.6939 251.435 25.7156C251.461 25.7374 251.488 25.7482 251.515 25.7482H258.383V26.7408ZM258.049 23.3186C258.049 23.3885 258.022 23.4495 257.969 23.5018C257.915 23.554 257.853 23.5798 257.782 23.5798H256.552V14.5676H258.049V17.7286H260V18.9696H258.049V23.3186Z" fill="#646C73"/>
</svg>
