<svg width="167" height="46" viewBox="0 0 167 46" fill="none" xmlns="http://www.w3.org/2000/svg">
<path d="M0 15.2803V23.2941C0 28.2759 3.1058 32.5104 7.43631 34.0729V15.2803H0Z" fill="#4BABDF"/>
<path d="M25.7805 0C21.6736 0 18.3442 3.41951 18.3442 7.63769V34.0729C22.6748 32.5104 25.7806 28.2759 25.7806 23.2941L25.7805 0Z" fill="#4BABDF"/>
<path d="M9.17188 45.9999C13.2788 45.9999 16.6082 42.5804 16.6082 38.3623V11.927C12.2777 13.4895 9.17188 17.7241 9.17188 22.7058L9.17188 45.9999Z" fill="#63B157"/>
<path d="M30.7439 22.7591C32.7546 22.7591 34.3847 21.0849 34.3847 19.0197C34.3847 16.9545 32.7546 15.2803 30.7439 15.2803C28.7331 15.2803 27.103 16.9545 27.103 19.0197C27.103 21.0849 28.7331 22.7591 30.7439 22.7591Z" fill="#E27E3A"/>
<path d="M44.0103 28.3474V32.4702C44.0103 33.15 43.9168 33.4986 43.6452 33.795C43.3571 34.1176 42.9071 34.292 42.364 34.292C41.6003 34.292 41.0489 33.9518 40.8279 33.3328C40.7434 33.0888 40.7178 32.8188 40.7095 32.2521H41.5154C41.5241 32.6704 41.5407 32.8626 41.6003 33.0454C41.7191 33.3855 41.9907 33.5684 42.364 33.5684C42.6356 33.5684 42.8645 33.4638 43.0003 33.2809C43.1534 33.0888 43.204 32.8626 43.204 32.4527V28.3474H44.0103Z" fill="black"/>
<path d="M49.3249 29.071H46.1595V30.8227H49.0534V31.5029H46.1595V33.4374H49.4351V34.161H45.3535V28.3474H49.3249V29.071Z" fill="black"/>
<path d="M53.1978 28.3474V32.4702C53.1978 33.15 53.1043 33.4986 52.8327 33.795C52.5446 34.1176 52.0947 34.292 51.5515 34.292C50.7878 34.292 50.2364 33.9518 50.0154 33.3328C49.9309 33.0888 49.9053 32.8188 49.897 32.2521H50.7029C50.7116 32.6704 50.7282 32.8626 50.7878 33.0454C50.9066 33.3855 51.1782 33.5684 51.5515 33.5684C51.8231 33.5684 52.052 33.4638 52.1878 33.2809C52.3409 33.0888 52.3915 32.8626 52.3915 32.4527V28.3474H53.1978Z" fill="black"/>
<path d="M58.979 28.3474V32.1475C58.979 32.8626 58.8262 33.3243 58.4785 33.6815C58.0795 34.0828 57.4855 34.292 56.764 34.292C56.0345 34.292 55.4401 34.0828 55.0415 33.6815C54.6934 33.3243 54.541 32.8626 54.541 32.1475V28.3474H55.347V32.261C55.347 33.0803 55.8731 33.5684 56.764 33.5684C57.6465 33.5684 58.173 33.0803 58.173 32.261V28.3474H58.979Z" fill="black"/>
<path d="M63.6682 34.161H62.8618V28.3474H65.17C65.9085 28.3474 66.2988 28.452 66.6469 28.7398C66.9864 29.0187 67.1644 29.446 67.1644 29.9689C67.1644 30.6313 66.8928 31.0756 66.2901 31.3894C66.7401 31.5986 66.9185 31.9298 66.9607 32.6185L66.9947 33.1066C67.0369 33.6644 67.1048 33.917 67.2745 34.161H66.2901C66.2223 33.917 66.2057 33.7861 66.163 33.1066L66.1204 32.6793C66.0699 32.0867 65.747 31.764 65.2126 31.764H63.6682V34.161ZM65.0176 31.0846C65.4502 31.0846 65.747 31.0059 65.9681 30.8405C66.197 30.6662 66.3414 30.361 66.3414 30.0298C66.3414 29.4282 65.9424 29.071 65.2805 29.071H63.6682V31.0846H65.0176Z" fill="black"/>
<path d="M68.7636 32.2522C68.8228 33.1153 69.2471 33.6033 69.9517 33.6033C70.4352 33.6033 70.7576 33.3678 70.9443 32.8712H71.6911C71.4957 33.7513 70.8425 34.2743 69.9343 34.2743C68.7802 34.2743 67.9829 33.3678 67.9829 32.0519C67.9829 30.7361 68.7636 29.8381 69.909 29.8381C70.7237 29.8381 71.3177 30.2828 71.5893 31.0932C71.6911 31.407 71.742 31.7471 71.7507 32.2522H68.7636ZM70.936 31.6684C70.9021 30.9015 70.5287 30.4742 69.909 30.4742C69.2728 30.4742 68.8142 30.9623 68.7719 31.6684H70.936Z" fill="black"/>
<path d="M76.183 29.9512V33.9954C76.183 34.5532 76.0556 34.9196 75.767 35.1637C75.4446 35.4511 74.9437 35.608 74.3327 35.608C73.7304 35.608 73.2552 35.4426 72.9667 35.1288C72.7887 34.9367 72.7034 34.7275 72.6695 34.3529H73.4162C73.4589 34.7624 73.773 34.9715 74.3584 34.9715C75.0968 34.9715 75.4363 34.6492 75.4363 33.952V33.4724C75.1051 33.8389 74.6978 34.0217 74.2226 34.0217C73.1873 34.0217 72.4658 33.1765 72.4658 31.9648C72.4658 30.7097 73.196 29.8381 74.2396 29.8381C74.774 29.8381 75.1134 30.0039 75.4529 30.4134L75.4363 29.9512H76.183ZM73.2552 31.9299C73.2552 32.793 73.6712 33.3244 74.3584 33.3244C75.029 33.3244 75.4529 32.793 75.4529 31.9473C75.4529 31.0669 75.0456 30.5354 74.3501 30.5354C73.6712 30.5354 73.2552 31.0669 73.2552 31.9299Z" fill="black"/>
<path d="M78.1035 29.2802H77.3228V28.3474H78.1035V29.2802ZM78.1035 34.161H77.3228V29.9511H78.1035V34.161Z" fill="black"/>
<path d="M82.9842 32.0868C82.9842 33.3767 82.1783 34.2743 81.0068 34.2743C79.8361 34.2743 79.0381 33.3767 79.0381 32.0519C79.0381 30.7361 79.8361 29.8381 81.0068 29.8381C82.2035 29.8381 82.9842 30.7271 82.9842 32.0868ZM79.8275 32.0519C79.8275 33.037 80.2601 33.6033 81.0155 33.6033C81.7536 33.6033 82.1949 33.037 82.1949 32.0779C82.1949 31.0669 81.7709 30.5091 81.0068 30.5091C80.2601 30.5091 79.8275 31.0758 79.8275 32.0519Z" fill="black"/>
<path d="M84.6584 29.9512V30.4308C85.0657 29.9861 85.3969 29.8381 85.9569 29.8381C86.4408 29.8381 86.8395 30.0039 87.0684 30.2999C87.2638 30.5617 87.3399 30.8577 87.3399 31.3458V34.1612H86.5592V31.407C86.5592 30.8317 86.305 30.5528 85.7702 30.5528C85.0997 30.5528 84.6923 30.9538 84.6923 31.6076V34.1612H83.9116V29.9512H84.6584Z" fill="black"/>
<path d="M88.4801 31.3458C88.5141 30.8492 88.6072 30.5528 88.8109 30.3177C89.0742 30.0124 89.5663 29.8381 90.1434 29.8381C91.1617 29.8381 91.7388 30.3347 91.7388 31.2063V33.185C91.7388 33.5162 91.7814 33.5859 91.9594 33.5859C92.0273 33.5859 92.0695 33.577 92.163 33.5421V34.1612C91.9764 34.2045 91.8153 34.2224 91.6539 34.2224C91.2805 34.2224 91.1108 34.0566 91.0429 33.6556C90.6273 34.0829 90.1773 34.2743 89.6256 34.2743C88.8283 34.2743 88.2852 33.7691 88.2852 33.0281C88.2852 32.3483 88.6925 31.9299 89.5237 31.7556L90.4319 31.5728C90.9241 31.4767 91.0259 31.3985 91.0259 31.1366C91.0259 30.7271 90.6778 30.4742 90.1264 30.4742C89.7274 30.4742 89.4136 30.6051 89.3035 30.8317C89.2439 30.9452 89.2269 31.0409 89.2099 31.3458H88.4801ZM91.0429 31.9996C90.8988 32.0609 90.7631 32.1042 90.5594 32.1565L89.7613 32.3483C89.2861 32.4614 89.0742 32.662 89.0742 32.9932C89.0742 33.3767 89.3797 33.6382 89.8379 33.6382C90.4998 33.6382 91.0429 33.1416 91.0429 32.54V31.9996Z" fill="black"/>
<path d="M93.7016 34.161H92.9209V28.3474H93.7016V34.161Z" fill="black"/>
<path d="M98.2952 34.161H97.4893V28.3474H98.2952V34.161Z" fill="black"/>
<path d="M100.274 29.9512V30.4308C100.681 29.9861 101.012 29.8381 101.572 29.8381C102.056 29.8381 102.455 30.0039 102.684 30.2999C102.879 30.5617 102.956 30.8577 102.956 31.3458V34.1612H102.175V31.407C102.175 30.8317 101.92 30.5528 101.386 30.5528C100.715 30.5528 100.308 30.9538 100.308 31.6076V34.1612H99.5273V29.9512H100.274Z" fill="black"/>
<path d="M104.85 29.9512V30.4308C105.258 29.9861 105.589 29.8381 106.149 29.8381C106.633 29.8381 107.031 30.0039 107.26 30.2999C107.456 30.5617 107.532 30.8577 107.532 31.3458V34.1612H106.751V31.407C106.751 30.8317 106.497 30.5528 105.962 30.5528C105.292 30.5528 104.884 30.9538 104.884 31.6076V34.1612H104.104V29.9512H104.85Z" fill="black"/>
<path d="M112.423 32.0868C112.423 33.3767 111.617 34.2743 110.445 34.2743C109.275 34.2743 108.477 33.3767 108.477 32.0519C108.477 30.7361 109.275 29.8381 110.445 29.8381C111.642 29.8381 112.423 30.7271 112.423 32.0868ZM109.266 32.0519C109.266 33.037 109.699 33.6033 110.454 33.6033C111.192 33.6033 111.633 33.037 111.633 32.0779C111.633 31.0669 111.209 30.5091 110.445 30.5091C109.699 30.5091 109.266 31.0758 109.266 32.0519Z" fill="black"/>
<path d="M114.14 34.1611L112.731 29.9512H113.563L114.259 32.2088C114.343 32.4791 114.479 32.9932 114.581 33.3856C114.59 33.3244 114.607 33.2546 114.624 33.2113L114.7 32.8975C114.717 32.8278 114.853 32.3567 114.887 32.2262L115.583 29.9512H116.414L114.997 34.1611H114.14Z" fill="black"/>
<path d="M116.925 31.3458C116.959 30.8492 117.053 30.5528 117.256 30.3177C117.519 30.0124 118.012 29.8381 118.589 29.8381C119.607 29.8381 120.184 30.3347 120.184 31.2063V33.185C120.184 33.5162 120.226 33.5859 120.405 33.5859C120.472 33.5859 120.515 33.577 120.608 33.5421V34.1612C120.422 34.2045 120.26 34.2224 120.099 34.2224C119.726 34.2224 119.556 34.0566 119.488 33.6556C119.072 34.0829 118.623 34.2743 118.071 34.2743C117.273 34.2743 116.73 33.7691 116.73 33.0281C116.73 32.3483 117.137 31.9299 117.969 31.7556L118.877 31.5728C119.369 31.4767 119.471 31.3985 119.471 31.1366C119.471 30.7271 119.123 30.4742 118.572 30.4742C118.173 30.4742 117.859 30.6051 117.748 30.8317C117.689 30.9452 117.672 31.0409 117.655 31.3458H116.925ZM119.488 31.9996C119.344 32.0609 119.208 32.1042 119.004 32.1565L118.207 32.3483C117.732 32.4614 117.519 32.662 117.519 32.9932C117.519 33.3767 117.825 33.6382 118.283 33.6382C118.945 33.6382 119.488 33.1416 119.488 32.54V31.9996Z" fill="black"/>
<path d="M122.987 30.5877H122.249V33.2284C122.249 33.4724 122.359 33.6119 122.554 33.6119C122.665 33.6119 122.775 33.5859 122.987 33.4987V34.1526C122.648 34.2309 122.521 34.2483 122.334 34.2483C121.749 34.2483 121.468 33.9256 121.468 33.2284V30.5877H120.917V29.9512H121.468V28.6179H122.249V29.9512H122.987V30.5877Z" fill="black"/>
<path d="M124.524 29.2802H123.744V28.3474H124.524V29.2802ZM124.524 34.161H123.744V29.9511H124.524V34.161Z" fill="black"/>
<path d="M129.405 32.0868C129.405 33.3767 128.599 34.2743 127.428 34.2743C126.257 34.2743 125.459 33.3767 125.459 32.0519C125.459 30.7361 126.257 29.8381 127.428 29.8381C128.624 29.8381 129.405 30.7271 129.405 32.0868ZM126.248 32.0519C126.248 33.037 126.681 33.6033 127.436 33.6033C128.174 33.6033 128.616 33.037 128.616 32.0779C128.616 31.0669 128.192 30.5091 127.428 30.5091C126.681 30.5091 126.248 31.0758 126.248 32.0519Z" fill="black"/>
<path d="M131.08 29.9512V30.4308C131.487 29.9861 131.818 29.8381 132.378 29.8381C132.861 29.8381 133.26 30.0039 133.49 30.2999C133.685 30.5617 133.761 30.8577 133.761 31.3458V34.1612H132.981V31.407C132.981 30.8317 132.726 30.5528 132.191 30.5528C131.521 30.5528 131.114 30.9538 131.114 31.6076V34.1612H130.333V29.9512H131.08Z" fill="black"/>
<path d="M138.365 34.161H137.559V28.3474H139.544C140.299 28.3474 140.732 28.4609 141.105 28.7658C141.462 29.0625 141.666 29.5328 141.666 30.0906C141.666 30.6224 141.487 31.0408 141.139 31.3545C140.775 31.6857 140.376 31.7989 139.604 31.7989H138.365V34.161ZM139.663 31.1194C140.096 31.1194 140.367 31.0408 140.571 30.849C140.775 30.6662 140.885 30.3958 140.885 30.0906C140.885 29.7946 140.775 29.5242 140.571 29.3414C140.367 29.1493 140.096 29.071 139.663 29.071H138.365V31.1194H139.663Z" fill="black"/>
<path d="M143.256 34.161H142.475V28.3474H143.256V34.161Z" fill="black"/>
<path d="M144.385 31.3458C144.419 30.8492 144.513 30.5528 144.716 30.3177C144.979 30.0124 145.472 29.8381 146.049 29.8381C147.067 29.8381 147.644 30.3347 147.644 31.2063V33.185C147.644 33.5162 147.687 33.5859 147.865 33.5859C147.933 33.5859 147.975 33.577 148.068 33.5421V34.1612C147.882 34.2045 147.721 34.2224 147.559 34.2224C147.186 34.2224 147.016 34.0566 146.948 33.6556C146.533 34.0829 146.083 34.2743 145.531 34.2743C144.734 34.2743 144.19 33.7691 144.19 33.0281C144.19 32.3483 144.598 31.9299 145.429 31.7556L146.337 31.5728C146.829 31.4767 146.931 31.3985 146.931 31.1366C146.931 30.7271 146.583 30.4742 146.032 30.4742C145.633 30.4742 145.319 30.6051 145.209 30.8317C145.149 30.9452 145.132 31.0409 145.115 31.3458H144.385ZM146.948 31.9996C146.804 32.0609 146.668 32.1042 146.465 32.1565L145.667 32.3483C145.191 32.4614 144.979 32.662 144.979 32.9932C144.979 33.3767 145.285 33.6382 145.743 33.6382C146.405 33.6382 146.948 33.1416 146.948 32.54V31.9996Z" fill="black"/>
<path d="M150.448 30.5877H149.709V33.2284C149.709 33.4724 149.819 33.6119 150.015 33.6119C150.125 33.6119 150.235 33.5859 150.448 33.4987V34.1526C150.108 34.2309 149.981 34.2483 149.794 34.2483C149.208 34.2483 148.928 33.9256 148.928 33.2284V30.5877H148.377V29.9512H148.928V28.6179H149.709V29.9512H150.448V30.5877Z" fill="black"/>
<path d="M152.74 30.5877H152.018V34.1611H151.238V30.5877H150.661V29.9512H151.238V29.2629C151.238 28.5307 151.543 28.2429 152.324 28.2429C152.46 28.2429 152.553 28.2518 152.74 28.2867V28.9665C152.604 28.9491 152.536 28.9402 152.443 28.9402C152.103 28.9402 152.018 29.0537 152.018 29.5158V29.9512H152.74V30.5877Z" fill="black"/>
<path d="M157.052 32.0868C157.052 33.3767 156.246 34.2743 155.075 34.2743C153.904 34.2743 153.106 33.3767 153.106 32.0519C153.106 30.7361 153.904 29.8381 155.075 29.8381C156.272 29.8381 157.052 30.7271 157.052 32.0868ZM153.895 32.0519C153.895 33.037 154.328 33.6033 155.083 33.6033C155.822 33.6033 156.263 33.037 156.263 32.0779C156.263 31.0669 155.839 30.5091 155.075 30.5091C154.328 30.5091 153.895 31.0758 153.895 32.0519Z" fill="black"/>
<path d="M158.727 29.9512V30.6136C158.888 30.3696 158.956 30.2739 159.066 30.1693C159.253 29.9691 159.55 29.8381 159.796 29.8381C159.949 29.8381 160.093 29.873 160.229 29.9427V30.6663C160.067 30.6315 159.983 30.6226 159.872 30.6226C159.244 30.6226 158.761 31.1978 158.761 31.9473V34.1612H157.98V29.9512H158.727Z" fill="black"/>
<path d="M161.681 29.9512V30.4831C161.995 30.0039 162.284 29.8381 162.793 29.8381C163.336 29.8381 163.667 30.0558 163.854 30.5439C164.177 30.0388 164.516 29.8381 165.093 29.8381C165.526 29.8381 165.899 29.995 166.103 30.2739C166.289 30.5091 166.366 30.8143 166.366 31.3024V34.1612H165.585V31.3636C165.585 30.8143 165.365 30.5528 164.906 30.5528C164.372 30.5528 164.041 30.9538 164.041 31.5987V34.1612H163.26V31.2939C163.26 30.8143 163.022 30.5528 162.581 30.5528C162.055 30.5528 161.715 30.9452 161.715 31.5549V34.1612H160.935V29.9512H161.681Z" fill="black"/>
<path d="M45.6722 12.808V16.6909C45.6722 17.0188 45.7694 17.3758 45.9646 17.7611C46.1598 18.1457 46.4043 18.5287 46.6996 18.9088C46.9942 19.2889 47.3193 19.6481 47.6749 19.9872C48.029 20.3263 48.3671 20.6081 48.6864 20.8346L47.6821 22.036C47.4122 21.8408 47.1365 21.6127 46.8571 21.3504C46.577 21.088 46.3122 20.8212 46.0625 20.5492C45.8115 20.2772 45.5844 20.0051 45.3797 19.7331C45.1744 19.4611 45.0118 19.2069 44.8921 18.9699C44.7419 19.2271 44.5569 19.5095 44.337 19.8181C44.1171 20.1259 43.877 20.4337 43.6172 20.7422C43.3574 21.05 43.0817 21.3459 42.7921 21.6276C42.5026 21.9108 42.2073 22.159 41.9076 22.3744L40.7227 21.2654C41.1522 20.9576 41.5622 20.6006 41.9526 20.1952C42.3423 19.7897 42.6848 19.3709 42.9801 18.9394C43.2747 18.5079 43.5098 18.0875 43.6847 17.6761C43.8595 17.2662 43.9473 16.9063 43.9473 16.5985V12.808H41.3975V11.4069H48.1618V12.808H45.6722ZM49.2713 24.9322V16.8906H46.8723V15.412H49.2713V10.6213H50.9663V24.6236C50.9562 24.7578 50.9141 24.842 50.8386 24.8785C50.7646 24.9143 50.7066 24.9322 50.6666 24.9322H49.2713ZM52.271 25.2862V10.6213H53.9661V24.9784C53.9559 25.1118 53.9138 25.196 53.8384 25.2325C53.7644 25.2683 53.7063 25.2862 53.6664 25.2862H52.271Z" fill="black"/>
<path d="M61.1351 25.2862V20.0335H55.2256V18.5541H68.7251V19.7257C68.715 19.8687 68.67 19.9567 68.5902 19.9872C68.5096 20.0178 68.4552 20.0335 68.4247 20.0335H62.8606V24.9784C62.8505 25.1215 62.8055 25.2094 62.7257 25.24C62.6451 25.2705 62.5907 25.2862 62.5602 25.2862H61.1351ZM62.9651 12.4383L63.0101 12.6388C63.1001 12.9466 63.3229 13.273 63.6777 13.6174C64.0325 13.9617 64.4527 14.2926 64.9374 14.6108C65.4221 14.929 65.9475 15.2167 66.512 15.4731C67.0773 15.7302 67.6149 15.9203 68.1243 16.044L67.0148 17.2454C66.5744 17.1216 66.1201 16.9547 65.6499 16.7445C65.1797 16.5344 64.7226 16.2929 64.2778 16.0201C63.833 15.7488 63.415 15.453 63.0254 15.1347C62.6357 14.8165 62.3004 14.4923 62.0204 14.1644C61.7809 14.4826 61.4907 14.7934 61.1503 15.096C60.81 15.3986 60.4283 15.684 60.0031 15.9508C59.5779 16.2184 59.1157 16.4598 58.6157 16.6745C58.115 16.8906 57.5955 17.065 57.0556 17.1992L55.9454 16.0127C56.5157 15.8793 57.0788 15.6922 57.6332 15.4507C58.1883 15.2093 58.6955 14.9365 59.1556 14.6339C59.6156 14.3313 60.0104 14.0049 60.3405 13.6561C60.6707 13.3066 60.8956 12.957 61.0154 12.6082L61.0604 12.4383H56.9809V10.9753H67.0598V12.4383H62.9651Z" fill="black"/>
<path d="M69.9543 11.3607H77.8593V12.8236H74.7246V16.0276C74.7246 16.4181 74.8392 16.8317 75.0693 17.2677C75.2993 17.7045 75.5939 18.136 75.9538 18.5623C76.3137 18.9886 76.7164 19.3918 77.1613 19.7719C77.6068 20.152 78.0393 20.4754 78.4587 20.7422L77.3194 21.8817C77.0394 21.7073 76.7389 21.4845 76.4189 21.2117C76.0989 20.9397 75.7811 20.6468 75.4662 20.3338C75.1513 20.0208 74.8567 19.7048 74.5817 19.3858C74.3066 19.0683 74.0788 18.7754 73.8988 18.5079C73.6993 18.8164 73.4548 19.1451 73.1645 19.4946C72.8743 19.8434 72.5666 20.1847 72.2415 20.5186C71.9164 20.8525 71.5899 21.1633 71.259 21.4502C70.9296 21.7379 70.6248 21.9689 70.3447 22.1433L69.1445 21.0195C69.6147 20.7213 70.0791 20.3591 70.5392 19.9328C70.9992 19.5073 71.4099 19.0624 71.7698 18.6003C72.1298 18.1382 72.4215 17.6761 72.6464 17.2141C72.8713 16.752 72.9845 16.3361 72.9845 15.9665V12.8236H69.9543V11.3607ZM81.2785 24.9784C81.2785 25.0604 81.2487 25.1319 81.1885 25.1938C81.129 25.2556 81.0586 25.2862 80.9788 25.2862H79.5834V10.6213H81.2785V24.9784Z" fill="black"/>
<path d="M93.4577 19.0318V17.2916H90.233C89.8825 17.6717 89.4653 17.9512 88.9806 18.1308C88.4951 18.3111 87.9828 18.4006 87.4429 18.4006C86.9227 18.4006 86.4307 18.3186 85.9656 18.1539C85.5004 17.9899 85.0955 17.7507 84.7501 17.4377C84.4062 17.1247 84.1305 16.7312 83.9258 16.2586C83.7212 15.7869 83.6182 15.2421 83.6182 14.6265C83.6182 14.0616 83.7154 13.5503 83.9106 13.0935C84.1058 12.6366 84.3757 12.2461 84.7211 11.9226C85.0658 11.5992 85.4707 11.3502 85.9358 11.1759C86.4002 11.0015 86.9031 10.9135 87.4429 10.9135C88.0126 10.9135 88.5278 11.0164 88.9878 11.2221C89.4479 11.4278 89.8477 11.7095 90.188 12.0687H93.4577V10.6057H95.1368V18.724C95.1368 18.806 95.1077 18.8776 95.0468 18.9394C94.9873 19.0013 94.9176 19.0318 94.8378 19.0318H93.4577ZM85.298 14.6108C85.298 15.0111 85.3604 15.3584 85.4859 15.6505C85.6107 15.9434 85.7755 16.1849 85.9808 16.3749C86.1854 16.565 86.4155 16.7058 86.6702 16.7982C86.9256 16.8906 87.1824 16.9369 87.4429 16.9369C88.0532 16.9369 88.5503 16.7267 88.9356 16.3049C89.3201 15.8845 89.5132 15.3196 89.5132 14.6108C89.5132 14.2926 89.458 13.9945 89.3477 13.7173C89.2374 13.44 89.0879 13.2015 88.8978 13.001C88.7077 12.8006 88.4879 12.644 88.2375 12.5308C87.9879 12.4182 87.7223 12.3616 87.4429 12.3616C87.1433 12.3616 86.8632 12.4182 86.6034 12.5308C86.3429 12.644 86.1158 12.8006 85.9206 13.001C85.7254 13.2015 85.573 13.44 85.4627 13.7173C85.3531 13.9945 85.298 14.2926 85.298 14.6108ZM95.1077 24.9784C95.1077 25.0604 95.0773 25.1319 95.0178 25.1938C94.9568 25.2556 94.8872 25.2862 94.8073 25.2862H93.4272V21.4659C93.4272 21.3638 93.3771 21.3116 93.2777 21.3116H85.4482V19.8643H94.192C94.4423 19.8643 94.6579 19.9508 94.8378 20.1259C95.0178 20.301 95.1077 20.5216 95.1077 20.7884V24.9784ZM91.1923 14.6265C91.1923 15.0371 91.1371 15.4374 91.0275 15.8279H93.4577V13.5324H91.0275C91.1371 13.9229 91.1923 14.2874 91.1923 14.6265Z" fill="black"/>
<path d="M105.097 13.3789H97.312V11.9763H100.326V10.2815H102.066V11.9763H105.097V13.3789ZM104.796 16.7058C104.796 17.1068 104.703 17.4764 104.519 17.8148C104.333 18.1539 104.078 18.452 103.754 18.7084C103.429 18.9655 103.049 19.1652 102.613 19.3098C102.179 19.4529 101.717 19.5244 101.226 19.5244C100.737 19.5244 100.277 19.4581 99.8466 19.3247C99.4163 19.1913 99.0419 19.0012 98.7212 18.7546C98.4019 18.5079 98.1494 18.2105 97.9644 17.861C97.7793 17.5122 97.6864 17.1276 97.6864 16.7058C97.6864 16.2951 97.7793 15.9173 97.9644 15.5737C98.1494 15.2301 98.4019 14.929 98.7212 14.6727C99.0419 14.4163 99.4163 14.2151 99.8466 14.072C100.277 13.9274 100.737 13.8558 101.226 13.8558C101.717 13.8558 102.179 13.9252 102.613 14.0638C103.049 14.2024 103.429 14.3999 103.754 14.657C104.078 14.9141 104.333 15.2167 104.519 15.5655C104.703 15.9151 104.796 16.2951 104.796 16.7058ZM103.161 16.7058C103.161 16.4897 103.111 16.2929 103.011 16.1126C102.911 15.9337 102.774 15.7816 102.599 15.6579C102.423 15.535 102.219 15.4373 101.984 15.3658C101.748 15.2942 101.496 15.2577 101.226 15.2577C100.686 15.2577 100.236 15.3837 99.8764 15.6356C99.5165 15.8875 99.3365 16.2437 99.3365 16.7058C99.3365 17.1172 99.5165 17.4555 99.8764 17.7224C100.236 17.9899 100.686 18.1233 101.226 18.1233C101.767 18.1233 102.224 17.9951 102.599 17.738C102.973 17.4809 103.161 17.1373 103.161 16.7058ZM109.266 24.9784C109.266 25.0604 109.236 25.1319 109.176 25.1938C109.116 25.2556 109.045 25.2862 108.966 25.2862H107.54V22.0047C107.54 21.9026 107.491 21.8512 107.391 21.8512H99.5767V20.4188H108.351C108.601 20.4188 108.816 20.506 108.996 20.6804C109.176 20.8555 109.266 21.0761 109.266 21.3429V24.9784ZM109.296 19.2934C109.286 19.4275 109.243 19.5125 109.169 19.5483C109.093 19.5841 109.035 19.6019 108.996 19.6019H107.601V18.3543H105.201V16.9368H107.601V15.1191H105.187V13.6859H107.601V10.6213H109.296V19.2934Z" fill="black"/>
<path d="M116.015 14.2874C116.015 14.7189 116.113 15.1139 116.308 15.4731C116.503 15.8331 116.771 16.1662 117.11 16.4748C117.45 16.7833 117.843 17.0754 118.287 17.3527C118.733 17.6299 119.205 17.8975 119.705 18.1539L118.745 19.2472C118.445 19.1145 118.128 18.9476 117.792 18.7471C117.457 18.5466 117.131 18.329 116.81 18.092C116.491 17.8565 116.188 17.612 115.903 17.3601C115.618 17.109 115.38 16.8653 115.19 16.6283C114.83 17.1217 114.356 17.6277 113.765 18.1457C113.176 18.6644 112.476 19.1399 111.666 19.5706L110.526 18.4617C110.986 18.2366 111.441 17.9713 111.891 17.6687C112.341 17.3661 112.743 17.0345 113.098 16.6745C113.453 16.3153 113.738 15.9337 113.953 15.5275C114.168 15.1213 114.276 14.698 114.276 14.2568V10.8211H116.015V14.2874ZM123.305 24.9933C123.305 25.0753 123.275 25.1476 123.214 25.2094C123.155 25.2705 123.085 25.3018 123.005 25.3018H114.306C114.065 25.3018 113.853 25.2116 113.668 25.032C113.483 24.8524 113.391 24.6288 113.391 24.362V20.4799H115.115V23.6689C115.115 23.7203 115.131 23.7591 115.16 23.7844C115.19 23.8098 115.221 23.8232 115.25 23.8232H123.305V24.9933ZM121.205 21.2654V10.6213H122.93V20.9576C122.93 21.0403 122.899 21.1119 122.84 21.173C122.78 21.2348 122.709 21.2654 122.629 21.2654H121.205Z" fill="black"/>
<path d="M124.954 18.2307V16.7983H138.468V17.9229C138.458 18.0563 138.416 18.1413 138.34 18.1771C138.266 18.2128 138.208 18.2307 138.168 18.2307H124.954ZM126.365 10.8987H137.133V12.2387H135.454V13.8097C135.454 13.9126 135.444 14.0154 135.423 14.1183C135.403 14.2211 135.384 14.3285 135.364 14.4417H137.448V15.7817H126.079V14.4417H128.104C128.054 14.2152 128.029 13.9998 128.029 13.7948V12.2387H126.365V10.8987ZM136.878 25.1014C136.878 25.1842 136.849 25.2557 136.788 25.3168C136.728 25.3794 136.658 25.4092 136.579 25.4092H127.834C127.224 25.4092 126.919 25.1014 126.919 24.4851V21.6665H134.718C134.818 21.6665 134.868 21.615 134.868 21.5122V20.711H126.919V19.2786H136.579V22.1129C136.579 22.4006 136.491 22.6264 136.316 22.7903C136.14 22.955 135.923 23.0378 135.663 23.0378H128.599V23.8382C128.599 23.941 128.649 23.9925 128.749 23.9925H136.878V25.1014ZM133.548 14.4417C133.649 14.4417 133.699 14.3903 133.699 14.2875V12.2387H129.769V14.2875C129.769 14.3903 129.819 14.4417 129.919 14.4417H133.548Z" fill="black"/>
<path d="M141.093 17.2141C141.093 17.3169 141.143 17.3683 141.243 17.3683C141.932 17.3788 142.651 17.3557 143.395 17.299C144.14 17.2424 144.983 17.1373 145.923 16.983V18.3387C145.542 18.4006 145.163 18.4572 144.783 18.5079C144.402 18.56 143.993 18.6033 143.553 18.639C143.112 18.6748 142.635 18.7031 142.12 18.724C141.605 18.7449 141.022 18.7546 140.373 18.7546C140.103 18.7546 139.883 18.6644 139.713 18.4855C139.543 18.3052 139.458 18.0875 139.458 17.8304V14.1182H143.433C143.533 14.1182 143.582 14.0615 143.582 13.9483V12.3921H139.458V11.0059H145.233V14.534C145.233 14.8009 145.145 15.0215 144.97 15.1959C144.795 15.371 144.578 15.4582 144.318 15.4582H141.093V17.2141ZM140.868 24.0848C141.527 23.9618 142.158 23.8053 142.758 23.6145C143.358 23.4252 143.89 23.1987 144.355 22.9371C144.82 22.6755 145.19 22.3744 145.465 22.036C145.74 21.6969 145.878 21.3176 145.878 20.8957V19.7406H147.602V20.9576C147.602 21.3787 147.75 21.7558 148.045 22.0897C148.34 22.4236 148.715 22.7217 149.17 22.9833C149.625 23.2449 150.135 23.4684 150.699 23.6533C151.264 23.8381 151.817 23.9924 152.357 24.1153L151.472 25.3324C151.052 25.2303 150.607 25.1036 150.137 24.9553C149.668 24.8062 149.215 24.6318 148.779 24.4313C148.345 24.2316 147.945 24.005 147.58 23.7531C147.215 23.5012 146.928 23.2225 146.717 22.914C146.478 23.2531 146.165 23.5504 145.78 23.8075C145.395 24.0639 144.977 24.2927 144.527 24.4925C144.077 24.6937 143.613 24.8629 143.133 25.0015C142.653 25.1401 142.203 25.2556 141.783 25.348L140.868 24.0848ZM148.337 18.8626C148.337 18.9446 148.308 19.0162 148.248 19.078C148.187 19.1399 148.118 19.1712 148.038 19.1712H146.658V10.6213H148.337V13.5324H149.852V10.6213H151.502V19.9105C151.502 19.9925 151.472 20.064 151.412 20.1259C151.352 20.1877 151.282 20.2183 151.202 20.2183H149.852V15.0423H148.337V18.8626Z" fill="black"/>
<path d="M153.962 16.2587V14.8576H155.986C155.937 14.631 155.912 14.4208 155.912 14.2256V12.1306H154.246V10.7444H165.001V12.1306H163.335V14.2412C163.335 14.3441 163.328 14.4439 163.314 14.5416C163.298 14.6392 163.281 14.7443 163.261 14.8576H165.345V16.2587H160.501V17.5532H166.366V18.6928C166.355 18.8269 166.313 18.9119 166.238 18.9477C166.163 18.9834 166.106 19.0013 166.065 19.0013H152.852V17.5532H158.792V16.2587H153.962ZM154.772 20.0492H164.521V24.4083C164.521 24.6856 164.431 24.9091 164.251 25.0783C164.071 25.2482 163.856 25.3325 163.606 25.3325H155.687C155.426 25.3325 155.209 25.2453 155.034 25.0709C154.859 24.8965 154.772 24.6751 154.772 24.4083V20.0492ZM156.422 21.4816V23.7458C156.422 23.8486 156.471 23.9 156.571 23.9H162.706C162.806 23.9 162.857 23.8486 162.857 23.7458V21.4816H156.422ZM161.506 14.8576C161.606 14.8576 161.656 14.8062 161.656 14.7033V12.1306H157.591V14.7033C157.591 14.8062 157.641 14.8576 157.742 14.8576H161.506Z" fill="black"/>
</svg>
