<svg width="145" height="40" viewBox="0 0 145 40" fill="none" xmlns="http://www.w3.org/2000/svg">
<path d="M95.9406 30.878C94.908 30.878 94.0719 30.0587 94.0719 29.0467C94.0719 24.5611 90.3464 20.9102 85.7689 20.9102C81.1917 20.9102 77.4659 24.5611 77.4659 29.0467C77.4659 30.0587 76.63 30.878 75.5974 30.878C74.5646 30.878 73.7287 30.0587 73.7287 29.0467C73.7287 22.541 79.1301 17.2477 85.7689 17.2477C92.4078 17.2477 97.8094 22.541 97.8094 29.0467C97.8094 30.0587 96.9732 30.878 95.9406 30.878Z" fill="#15BF70"/>
<path d="M124.68 30.878C124.196 30.878 123.712 30.6989 123.342 30.3422L113.047 20.3747C112.308 19.6595 112.308 18.4991 113.047 17.784C113.785 17.0689 114.982 17.0689 115.722 17.784L124.68 26.4562L133.637 17.784C134.376 17.0689 135.572 17.0689 136.313 17.784C137.052 18.4991 137.052 19.6595 136.313 20.3747L126.018 30.3422C125.647 30.6989 125.164 30.878 124.68 30.878Z" fill="#2E6FF2"/>
<path d="M105.298 30.878C104.243 30.878 103.389 30.0589 103.389 29.0472V18.7885C103.389 17.7767 104.243 16.9576 105.298 16.9576C106.353 16.9576 107.207 17.7767 107.207 18.7885V29.0472C107.207 30.0589 106.353 30.878 105.298 30.878Z" fill="#FFC533"/>
<path d="M105.446 14.2421C106.836 14.2421 107.962 13.1267 107.962 11.7507C107.962 10.3747 106.836 9.25926 105.446 9.25926C104.057 9.25926 102.931 10.3747 102.931 11.7507C102.931 13.1267 104.057 14.2421 105.446 14.2421Z" fill="#FFC533"/>
<path d="M139.467 30.8517C140.856 30.8517 141.983 29.7362 141.983 28.3602C141.983 26.9843 140.856 25.8688 139.467 25.8688C138.078 25.8688 136.951 26.9843 136.951 28.3602C136.951 29.7362 138.078 30.8517 139.467 30.8517Z" fill="#FFC533"/>
<path d="M61.9323 31.4591C60.9306 31.4591 59.9286 31.2662 58.9722 30.8806C57.0239 30.0957 55.4995 28.6023 54.6796 26.676C53.86 24.7497 53.8442 22.6248 54.6362 20.6868C55.4242 18.7507 56.9269 17.2357 58.8634 16.4211C60.7997 15.6065 62.9402 15.5908 64.8904 16.3778C66.8387 17.1629 68.3631 18.6562 69.183 20.5825C69.5671 21.4836 69.1413 22.5225 68.2364 22.9022L59.0079 26.7803C59.3841 27.1245 59.8237 27.4021 60.3108 27.5988C61.3779 28.0297 62.5501 28.0197 63.6093 27.5751C64.5895 27.1639 65.3794 26.4104 65.8308 25.4541C66.2486 24.5687 67.3099 24.189 68.2009 24.6041C69.092 25.0193 69.4741 26.0739 69.0563 26.9593C68.2307 28.7064 66.7872 30.0838 64.9973 30.8374C64.0114 31.2524 62.9718 31.4591 61.9323 31.4591ZM60.2514 19.6833C59.1922 20.1299 58.3685 20.9583 57.9348 22.0188C57.7367 22.5028 57.6318 23.0104 57.6179 23.5181L64.8528 20.4782C64.4766 20.1339 64.0351 19.8643 63.5499 19.6597C62.9598 19.4118 61.6867 19.0773 60.2514 19.6833Z" fill="#2E6FF2"/>
<path d="M48.3417 17.2213C47.2971 17.2213 46.4516 18.0405 46.4516 19.0525C46.4516 23.5382 42.6835 27.189 38.054 27.189C33.4243 27.189 29.6561 23.5382 29.6561 19.0525C29.6561 18.0405 28.8106 17.2213 27.7661 17.2213C26.7217 17.2213 25.876 18.0405 25.876 19.0525C25.876 23.5382 22.108 27.189 17.4784 27.189C12.8488 27.189 9.08067 23.5382 9.08067 19.0525C9.08067 18.0405 8.23513 17.2213 7.19062 17.2213C6.14613 17.2213 5.3006 18.0405 5.3006 19.0525C5.3006 25.5583 10.7638 30.8517 17.4784 30.8517C21.8036 30.8517 25.6055 28.6542 27.7661 25.354C29.9269 28.6542 33.7307 30.8517 38.054 30.8517C44.7685 30.8517 50.2318 25.5583 50.2318 19.0525C50.2318 18.0405 49.386 17.2213 48.3417 17.2213Z" fill="#FFC533"/>
</svg>
